<?xml version="1.0" encoding="UTF-8" standalone="no"?>
<!DOCTYPE svg PUBLIC "-//W3C//DTD SVG 1.1//EN"
 "http://www.w3.org/Graphics/SVG/1.1/DTD/svg11.dtd">
<!-- Generated by graphviz version 2.40.1 (20161225.0304)
 -->
<!-- Title: public.tenants Pages: 1 -->
<svg width="1594pt" height="592pt"
 viewBox="0.00 0.00 1594.00 592.00" xmlns="http://www.w3.org/2000/svg" xmlns:xlink="http://www.w3.org/1999/xlink">
<g id="graph0" class="graph" transform="scale(1 1) rotate(0) translate(4 588)">
<title>public.tenants</title>
<polygon fill="#ffffff" stroke="transparent" points="-4,4 -4,-588 1590,-588 1590,4 -4,4"/>
<!-- public.tenants -->
<g id="node1" class="node">
<title>public.tenants</title>
<polygon fill="#efefef" stroke="transparent" points="656,-165.5 656,-200.5 929,-200.5 929,-165.5 656,-165.5"/>
<polygon fill="none" stroke="#000000" points="656,-165.5 656,-200.5 929,-200.5 929,-165.5 656,-165.5"/>
<text text-anchor="start" x="688.3539" y="-178.3" font-family="Arial Bold" font-size="18.00" fill="#000000">public.tenants</text>
<text text-anchor="start" x="799.3923" y="-178.3" font-family="Arial" font-size="14.00" fill="#000000"> </text>
<text text-anchor="start" x="803.2829" y="-178.3" font-family="Arial" font-size="14.00" fill="#666666">[BASE TABLE]</text>
<polygon fill="none" stroke="#000000" points="656,-135.5 656,-165.5 929,-165.5 929,-135.5 656,-135.5"/>
<text text-anchor="start" x="663" y="-146.9" font-family="Arial" font-size="14.00" fill="#000000">id </text>
<text text-anchor="start" x="677.7798" y="-146.9" font-family="Arial" font-size="14.00" fill="#666666">[uuid]</text>
<polygon fill="none" stroke="#000000" points="656,-105.5 656,-135.5 929,-135.5 929,-105.5 656,-105.5"/>
<text text-anchor="start" x="663" y="-116.9" font-family="Arial" font-size="14.00" fill="#000000">name </text>
<text text-anchor="start" x="701.899" y="-116.9" font-family="Arial" font-size="14.00" fill="#666666">[text]</text>
<polygon fill="none" stroke="#000000" points="656,-75.5 656,-105.5 929,-105.5 929,-75.5 656,-75.5"/>
<text text-anchor="start" x="663" y="-86.9" font-family="Arial" font-size="14.00" fill="#000000">created_at </text>
<text text-anchor="start" x="733.028" y="-86.9" font-family="Arial" font-size="14.00" fill="#666666">[timestamp without time zone]</text>
<polygon fill="none" stroke="#000000" points="656,-45.5 656,-75.5 929,-75.5 929,-45.5 656,-45.5"/>
<text text-anchor="start" x="662.9636" y="-56.9" font-family="Arial" font-size="14.00" fill="#000000">updated_at </text>
<text text-anchor="start" x="736.8962" y="-56.9" font-family="Arial" font-size="14.00" fill="#666666">[timestamp without time zone]</text>
<polygon fill="none" stroke="#000000" stroke-width="3" points="654,-44.5 654,-202.5 930,-202.5 930,-44.5 654,-44.5"/>
</g>
<!-- public.resources -->
<g id="node2" class="node">
<title>public.resources</title>
<polygon fill="#efefef" stroke="transparent" points="91,-490.5 91,-525.5 364,-525.5 364,-490.5 91,-490.5"/>
<polygon fill="none" stroke="#000000" points="91,-490.5 91,-525.5 364,-525.5 364,-490.5 91,-490.5"/>
<text text-anchor="start" x="113.3639" y="-503.3" font-family="Arial Bold" font-size="18.00" fill="#000000">public.resources</text>
<text text-anchor="start" x="244.3823" y="-503.3" font-family="Arial" font-size="14.00" fill="#000000"> </text>
<text text-anchor="start" x="248.2729" y="-503.3" font-family="Arial" font-size="14.00" fill="#666666">[BASE TABLE]</text>
<polygon fill="none" stroke="#000000" points="91,-460.5 91,-490.5 364,-490.5 364,-460.5 91,-460.5"/>
<text text-anchor="start" x="98" y="-471.9" font-family="Arial" font-size="14.00" fill="#000000">id </text>
<text text-anchor="start" x="112.7798" y="-471.9" font-family="Arial" font-size="14.00" fill="#666666">[uuid]</text>
<polygon fill="none" stroke="#000000" points="91,-430.5 91,-460.5 364,-460.5 364,-430.5 91,-430.5"/>
<text text-anchor="start" x="98" y="-441.9" font-family="Arial" font-size="14.00" fill="#000000">tenant_id </text>
<text text-anchor="start" x="159.474" y="-441.9" font-family="Arial" font-size="14.00" fill="#666666">[uuid]</text>
<polygon fill="none" stroke="#000000" points="91,-400.5 91,-430.5 364,-430.5 364,-400.5 91,-400.5"/>
<text text-anchor="start" x="98" y="-411.9" font-family="Arial" font-size="14.00" fill="#000000">name </text>
<text text-anchor="start" x="136.899" y="-411.9" font-family="Arial" font-size="14.00" fill="#666666">[text]</text>
<polygon fill="none" stroke="#000000" points="91,-370.5 91,-400.5 364,-400.5 364,-370.5 91,-370.5"/>
<text text-anchor="start" x="98" y="-381.9" font-family="Arial" font-size="14.00" fill="#000000">created_at </text>
<text text-anchor="start" x="168.028" y="-381.9" font-family="Arial" font-size="14.00" fill="#666666">[timestamp without time zone]</text>
<polygon fill="none" stroke="#000000" points="91,-340.5 91,-370.5 364,-370.5 364,-340.5 91,-340.5"/>
<text text-anchor="start" x="97.9636" y="-351.9" font-family="Arial" font-size="14.00" fill="#000000">updated_at </text>
<text text-anchor="start" x="171.8962" y="-351.9" font-family="Arial" font-size="14.00" fill="#666666">[timestamp without time zone]</text>
</g>
<!-- public.resources&#45;&gt;public.tenants -->
<g id="edge1" class="edge">
<title>public.resources:tenant_id&#45;&gt;public.tenants:id</title>
<path fill="none" stroke="#000000" d="M374.0585,-444.774C432.8883,-435.4584 369.3859,-338.7071 415,-283 492.4381,-188.4271 533.7679,-150.5 656,-150.5"/>
<polygon fill="#000000" stroke="#000000" points="373.9741,-444.78 363.676,-441.0117 368.987,-445.14 364,-445.5 364,-445.5 364,-445.5 368.987,-445.14 364.324,-449.9883 373.9741,-444.78 373.9741,-444.78"/>
<text text-anchor="start" x="6.7065" y="-455.5" font-family="Arial" font-size="10.00" fill="#000000">FOREIGN KEY (tenant_id) REFERENCES tenants(id) ON DELETE CASCADE</text>
</g>
<!-- public.roles -->
<g id="node3" class="node">
<title>public.roles</title>
<polygon fill="#efefef" stroke="transparent" points="468,-490.5 468,-525.5 741,-525.5 741,-490.5 468,-490.5"/>
<polygon fill="none" stroke="#000000" points="468,-490.5 468,-525.5 741,-525.5 741,-490.5 468,-490.5"/>
<text text-anchor="start" x="510.3691" y="-503.3" font-family="Arial Bold" font-size="18.00" fill="#000000">public.roles</text>
<text text-anchor="start" x="601.3771" y="-503.3" font-family="Arial" font-size="14.00" fill="#000000"> </text>
<text text-anchor="start" x="605.2677" y="-503.3" font-family="Arial" font-size="14.00" fill="#666666">[BASE TABLE]</text>
<polygon fill="none" stroke="#000000" points="468,-460.5 468,-490.5 741,-490.5 741,-460.5 468,-460.5"/>
<text text-anchor="start" x="475" y="-471.9" font-family="Arial" font-size="14.00" fill="#000000">id </text>
<text text-anchor="start" x="489.7798" y="-471.9" font-family="Arial" font-size="14.00" fill="#666666">[uuid]</text>
<polygon fill="none" stroke="#000000" points="468,-430.5 468,-460.5 741,-460.5 741,-430.5 468,-430.5"/>
<text text-anchor="start" x="475" y="-441.9" font-family="Arial" font-size="14.00" fill="#000000">tenant_id </text>
<text text-anchor="start" x="536.474" y="-441.9" font-family="Arial" font-size="14.00" fill="#666666">[uuid]</text>
<polygon fill="none" stroke="#000000" points="468,-400.5 468,-430.5 741,-430.5 741,-400.5 468,-400.5"/>
<text text-anchor="start" x="475" y="-411.9" font-family="Arial" font-size="14.00" fill="#000000">name </text>
<text text-anchor="start" x="513.899" y="-411.9" font-family="Arial" font-size="14.00" fill="#666666">[text]</text>
<polygon fill="none" stroke="#000000" points="468,-370.5 468,-400.5 741,-400.5 741,-370.5 468,-370.5"/>
<text text-anchor="start" x="475" y="-381.9" font-family="Arial" font-size="14.00" fill="#000000">created_at </text>
<text text-anchor="start" x="545.028" y="-381.9" font-family="Arial" font-size="14.00" fill="#666666">[timestamp without time zone]</text>
<polygon fill="none" stroke="#000000" points="468,-340.5 468,-370.5 741,-370.5 741,-340.5 468,-340.5"/>
<text text-anchor="start" x="474.9636" y="-351.9" font-family="Arial" font-size="14.00" fill="#000000">updated_at </text>
<text text-anchor="start" x="548.8962" y="-351.9" font-family="Arial" font-size="14.00" fill="#666666">[timestamp without time zone]</text>
</g>
<!-- public.roles&#45;&gt;public.tenants -->
<g id="edge2" class="edge">
<title>public.roles:tenant_id&#45;&gt;public.tenants:id</title>
<path fill="none" stroke="#000000" d="M751.2064,-444.6519C802.7913,-435.3605 771.4697,-351.8153 741,-298 719.2936,-259.6624 677.7064,-285.3376 656,-247 634.8687,-209.6781 613.1111,-150.5 656,-150.5"/>
<polygon fill="#000000" stroke="#000000" points="750.9657,-444.6719 740.6273,-441.0155 745.9828,-445.0859 741,-445.5 741,-445.5 741,-445.5 745.9828,-445.0859 741.3727,-449.9845 750.9657,-444.6719 750.9657,-444.6719"/>
<text text-anchor="start" x="747.7065" y="-455.5" font-family="Arial" font-size="10.00" fill="#000000">FOREIGN KEY (tenant_id) REFERENCES tenants(id) ON DELETE CASCADE</text>
</g>
<!-- public.users -->
<g id="node4" class="node">
<title>public.users</title>
<polygon fill="#efefef" stroke="transparent" points="845,-505.5 845,-540.5 1118,-540.5 1118,-505.5 845,-505.5"/>
<polygon fill="none" stroke="#000000" points="845,-505.5 845,-540.5 1118,-540.5 1118,-505.5 845,-505.5"/>
<text text-anchor="start" x="884.8662" y="-518.3" font-family="Arial Bold" font-size="18.00" fill="#000000">public.users</text>
<text text-anchor="start" x="980.88" y="-518.3" font-family="Arial" font-size="14.00" fill="#000000"> </text>
<text text-anchor="start" x="984.7706" y="-518.3" font-family="Arial" font-size="14.00" fill="#666666">[BASE TABLE]</text>
<polygon fill="none" stroke="#000000" points="845,-475.5 845,-505.5 1118,-505.5 1118,-475.5 845,-475.5"/>
<text text-anchor="start" x="852" y="-486.9" font-family="Arial" font-size="14.00" fill="#000000">id </text>
<text text-anchor="start" x="866.7798" y="-486.9" font-family="Arial" font-size="14.00" fill="#666666">[uuid]</text>
<polygon fill="none" stroke="#000000" points="845,-445.5 845,-475.5 1118,-475.5 1118,-445.5 845,-445.5"/>
<text text-anchor="start" x="852" y="-456.9" font-family="Arial" font-size="14.00" fill="#000000">tenant_id </text>
<text text-anchor="start" x="913.474" y="-456.9" font-family="Arial" font-size="14.00" fill="#666666">[uuid]</text>
<polygon fill="none" stroke="#000000" points="845,-415.5 845,-445.5 1118,-445.5 1118,-415.5 845,-415.5"/>
<text text-anchor="start" x="852" y="-426.9" font-family="Arial" font-size="14.00" fill="#000000">name </text>
<text text-anchor="start" x="890.899" y="-426.9" font-family="Arial" font-size="14.00" fill="#666666">[text]</text>
<polygon fill="none" stroke="#000000" points="845,-385.5 845,-415.5 1118,-415.5 1118,-385.5 845,-385.5"/>
<text text-anchor="start" x="852" y="-396.9" font-family="Arial" font-size="14.00" fill="#000000">email </text>
<text text-anchor="start" x="889.3296" y="-396.9" font-family="Arial" font-size="14.00" fill="#666666">[text]</text>
<polygon fill="none" stroke="#000000" points="845,-355.5 845,-385.5 1118,-385.5 1118,-355.5 845,-355.5"/>
<text text-anchor="start" x="852" y="-366.9" font-family="Arial" font-size="14.00" fill="#000000">created_at </text>
<text text-anchor="start" x="922.028" y="-366.9" font-family="Arial" font-size="14.00" fill="#666666">[timestamp without time zone]</text>
<polygon fill="none" stroke="#000000" points="845,-325.5 845,-355.5 1118,-355.5 1118,-325.5 845,-325.5"/>
<text text-anchor="start" x="851.9636" y="-336.9" font-family="Arial" font-size="14.00" fill="#000000">updated_at </text>
<text text-anchor="start" x="925.8962" y="-336.9" font-family="Arial" font-size="14.00" fill="#666666">[timestamp without time zone]</text>
</g>
<!-- public.users&#45;&gt;public.tenants -->
<g id="edge3" class="edge">
<title>public.users:tenant_id&#45;&gt;public.tenants:id</title>
<path fill="none" stroke="#000000" d="M834.6491,-459.7803C769.4531,-450.1343 803.608,-345.7725 845,-283 867.3595,-249.0909 906.6405,-280.9091 929,-247 952.6099,-211.1946 971.8889,-150.5 929,-150.5"/>
<polygon fill="#000000" stroke="#000000" points="835.0241,-459.8063 844.6878,-464.9892 840.012,-460.1531 845,-460.5 845,-460.5 845,-460.5 840.012,-460.1531 845.3122,-456.0108 835.0241,-459.8063 835.0241,-459.8063"/>
<text text-anchor="start" x="851.7065" y="-470.5" font-family="Arial" font-size="10.00" fill="#000000">FOREIGN KEY (tenant_id) REFERENCES tenants(id) ON DELETE CASCADE</text>
</g>
<!-- public.user_roles -->
<g id="node5" class="node">
<title>public.user_roles</title>
<polygon fill="#efefef" stroke="transparent" points="1222,-475.5 1222,-510.5 1469,-510.5 1469,-475.5 1222,-475.5"/>
<polygon fill="none" stroke="#000000" points="1222,-475.5 1222,-510.5 1469,-510.5 1469,-475.5 1222,-475.5"/>
<text text-anchor="start" x="1228.8637" y="-488.3" font-family="Arial Bold" font-size="18.00" fill="#000000">public.user_roles</text>
<text text-anchor="start" x="1364.8825" y="-488.3" font-family="Arial" font-size="14.00" fill="#000000"> </text>
<text text-anchor="start" x="1368.7731" y="-488.3" font-family="Arial" font-size="14.00" fill="#666666">[BASE TABLE]</text>
<polygon fill="none" stroke="#000000" points="1222,-445.5 1222,-475.5 1469,-475.5 1469,-445.5 1222,-445.5"/>
<text text-anchor="start" x="1229" y="-456.9" font-family="Arial" font-size="14.00" fill="#000000">id </text>
<text text-anchor="start" x="1243.7798" y="-456.9" font-family="Arial" font-size="14.00" fill="#666666">[uuid]</text>
<polygon fill="none" stroke="#000000" points="1222,-415.5 1222,-445.5 1469,-445.5 1469,-415.5 1222,-415.5"/>
<text text-anchor="start" x="1229" y="-426.9" font-family="Arial" font-size="14.00" fill="#000000">user_id </text>
<text text-anchor="start" x="1278.7882" y="-426.9" font-family="Arial" font-size="14.00" fill="#666666">[uuid]</text>
<polygon fill="none" stroke="#000000" points="1222,-385.5 1222,-415.5 1469,-415.5 1469,-385.5 1222,-385.5"/>
<text text-anchor="start" x="1229" y="-396.9" font-family="Arial" font-size="14.00" fill="#000000">role_id </text>
<text text-anchor="start" x="1274.8948" y="-396.9" font-family="Arial" font-size="14.00" fill="#666666">[uuid]</text>
<polygon fill="none" stroke="#000000" points="1222,-355.5 1222,-385.5 1469,-385.5 1469,-355.5 1222,-355.5"/>
<text text-anchor="start" x="1229" y="-366.9" font-family="Arial" font-size="14.00" fill="#000000">tenant_id </text>
<text text-anchor="start" x="1290.474" y="-366.9" font-family="Arial" font-size="14.00" fill="#666666">[uuid]</text>
</g>
<!-- public.user_roles&#45;&gt;public.tenants -->
<g id="edge4" class="edge">
<title>public.user_roles:tenant_id&#45;&gt;public.tenants:id</title>
<path fill="none" stroke="#000000" d="M1211.828,-369.3093C1180.7588,-361.0477 1199.725,-311.7449 1170,-283 1082.1323,-198.0296 1051.2321,-150.5 929,-150.5"/>
<polygon fill="#000000" stroke="#000000" points="1212.0678,-369.3373 1221.4768,-374.9695 1217.0339,-369.9186 1222,-370.5 1222,-370.5 1222,-370.5 1217.0339,-369.9186 1222.5232,-366.0305 1212.0678,-369.3373 1212.0678,-369.3373"/>
<text text-anchor="start" x="1228.7065" y="-380.5" font-family="Arial" font-size="10.00" fill="#000000">FOREIGN KEY (tenant_id) REFERENCES tenants(id) ON DELETE CASCADE</text>
</g>
</g>
</svg>
