<?xml version="1.0" encoding="UTF-8" standalone="no"?>
<!DOCTYPE svg PUBLIC "-//W3C//DTD SVG 1.1//EN"
 "http://www.w3.org/Graphics/SVG/1.1/DTD/svg11.dtd">
<!-- Generated by graphviz version 2.40.1 (20161225.0304)
 -->
<!-- Title: public.roles Pages: 1 -->
<svg width="916pt" height="839pt"
 viewBox="0.00 0.00 916.00 839.00" xmlns="http://www.w3.org/2000/svg" xmlns:xlink="http://www.w3.org/1999/xlink">
<g id="graph0" class="graph" transform="scale(1 1) rotate(0) translate(4 835)">
<title>public.roles</title>
<polygon fill="#ffffff" stroke="transparent" points="-4,4 -4,-835 912,-835 912,4 -4,4"/>
<!-- public.roles -->
<g id="node1" class="node">
<title>public.roles</title>
<polygon fill="#efefef" stroke="transparent" points="364,-472.5 364,-507.5 637,-507.5 637,-472.5 364,-472.5"/>
<polygon fill="none" stroke="#000000" points="364,-472.5 364,-507.5 637,-507.5 637,-472.5 364,-472.5"/>
<text text-anchor="start" x="406.3691" y="-485.3" font-family="Arial Bold" font-size="18.00" fill="#000000">public.roles</text>
<text text-anchor="start" x="497.3771" y="-485.3" font-family="Arial" font-size="14.00" fill="#000000"> </text>
<text text-anchor="start" x="501.2677" y="-485.3" font-family="Arial" font-size="14.00" fill="#666666">[BASE TABLE]</text>
<polygon fill="none" stroke="#000000" points="364,-442.5 364,-472.5 637,-472.5 637,-442.5 364,-442.5"/>
<text text-anchor="start" x="371" y="-453.9" font-family="Arial" font-size="14.00" fill="#000000">id </text>
<text text-anchor="start" x="385.7798" y="-453.9" font-family="Arial" font-size="14.00" fill="#666666">[uuid]</text>
<polygon fill="none" stroke="#000000" points="364,-412.5 364,-442.5 637,-442.5 637,-412.5 364,-412.5"/>
<text text-anchor="start" x="371" y="-423.9" font-family="Arial" font-size="14.00" fill="#000000">tenant_id </text>
<text text-anchor="start" x="432.474" y="-423.9" font-family="Arial" font-size="14.00" fill="#666666">[uuid]</text>
<polygon fill="none" stroke="#000000" points="364,-382.5 364,-412.5 637,-412.5 637,-382.5 364,-382.5"/>
<text text-anchor="start" x="371" y="-393.9" font-family="Arial" font-size="14.00" fill="#000000">name </text>
<text text-anchor="start" x="409.899" y="-393.9" font-family="Arial" font-size="14.00" fill="#666666">[text]</text>
<polygon fill="none" stroke="#000000" points="364,-352.5 364,-382.5 637,-382.5 637,-352.5 364,-352.5"/>
<text text-anchor="start" x="371" y="-363.9" font-family="Arial" font-size="14.00" fill="#000000">created_at </text>
<text text-anchor="start" x="441.028" y="-363.9" font-family="Arial" font-size="14.00" fill="#666666">[timestamp without time zone]</text>
<polygon fill="none" stroke="#000000" points="364,-322.5 364,-352.5 637,-352.5 637,-322.5 364,-322.5"/>
<text text-anchor="start" x="370.9636" y="-333.9" font-family="Arial" font-size="14.00" fill="#000000">updated_at </text>
<text text-anchor="start" x="444.8962" y="-333.9" font-family="Arial" font-size="14.00" fill="#666666">[timestamp without time zone]</text>
<polygon fill="none" stroke="#000000" stroke-width="3" points="362,-321.5 362,-509.5 638,-509.5 638,-321.5 362,-321.5"/>
</g>
<!-- public.tenants -->
<g id="node4" class="node">
<title>public.tenants</title>
<polygon fill="#efefef" stroke="transparent" points="364,-162.5 364,-197.5 637,-197.5 637,-162.5 364,-162.5"/>
<polygon fill="none" stroke="#000000" points="364,-162.5 364,-197.5 637,-197.5 637,-162.5 364,-162.5"/>
<text text-anchor="start" x="396.3539" y="-175.3" font-family="Arial Bold" font-size="18.00" fill="#000000">public.tenants</text>
<text text-anchor="start" x="507.3923" y="-175.3" font-family="Arial" font-size="14.00" fill="#000000"> </text>
<text text-anchor="start" x="511.2829" y="-175.3" font-family="Arial" font-size="14.00" fill="#666666">[BASE TABLE]</text>
<polygon fill="none" stroke="#000000" points="364,-132.5 364,-162.5 637,-162.5 637,-132.5 364,-132.5"/>
<text text-anchor="start" x="371" y="-143.9" font-family="Arial" font-size="14.00" fill="#000000">id </text>
<text text-anchor="start" x="385.7798" y="-143.9" font-family="Arial" font-size="14.00" fill="#666666">[uuid]</text>
<polygon fill="none" stroke="#000000" points="364,-102.5 364,-132.5 637,-132.5 637,-102.5 364,-102.5"/>
<text text-anchor="start" x="371" y="-113.9" font-family="Arial" font-size="14.00" fill="#000000">name </text>
<text text-anchor="start" x="409.899" y="-113.9" font-family="Arial" font-size="14.00" fill="#666666">[text]</text>
<polygon fill="none" stroke="#000000" points="364,-72.5 364,-102.5 637,-102.5 637,-72.5 364,-72.5"/>
<text text-anchor="start" x="371" y="-83.9" font-family="Arial" font-size="14.00" fill="#000000">created_at </text>
<text text-anchor="start" x="441.028" y="-83.9" font-family="Arial" font-size="14.00" fill="#666666">[timestamp without time zone]</text>
<polygon fill="none" stroke="#000000" points="364,-42.5 364,-72.5 637,-72.5 637,-42.5 364,-42.5"/>
<text text-anchor="start" x="370.9636" y="-53.9" font-family="Arial" font-size="14.00" fill="#000000">updated_at </text>
<text text-anchor="start" x="444.8962" y="-53.9" font-family="Arial" font-size="14.00" fill="#666666">[timestamp without time zone]</text>
</g>
<!-- public.roles&#45;&gt;public.tenants -->
<g id="edge3" class="edge">
<title>public.roles:tenant_id&#45;&gt;public.tenants:id</title>
<path fill="none" stroke="#000000" d="M353.7265,-426.839C239.6554,-411.8652 243.0799,-147.5 364,-147.5"/>
<polygon fill="#000000" stroke="#000000" points="354.0206,-426.8578 363.711,-431.9907 359.0103,-427.1789 364,-427.5 364,-427.5 364,-427.5 359.0103,-427.1789 364.289,-423.0093 354.0206,-426.8578 354.0206,-426.8578"/>
<text text-anchor="start" x="6.7065" y="-437.5" font-family="Arial" font-size="10.00" fill="#000000">FOREIGN KEY (tenant_id) REFERENCES tenants(id) ON DELETE CASCADE</text>
</g>
<!-- public.role_permissions -->
<g id="node2" class="node">
<title>public.role_permissions</title>
<polygon fill="#efefef" stroke="transparent" points="163,-752.5 163,-787.5 462,-787.5 462,-752.5 163,-752.5"/>
<polygon fill="none" stroke="#000000" points="163,-752.5 163,-787.5 462,-787.5 462,-752.5 163,-752.5"/>
<text text-anchor="start" x="169.8672" y="-765.3" font-family="Arial Bold" font-size="18.00" fill="#000000">public.role_permissions</text>
<text text-anchor="start" x="357.879" y="-765.3" font-family="Arial" font-size="14.00" fill="#000000"> </text>
<text text-anchor="start" x="361.7696" y="-765.3" font-family="Arial" font-size="14.00" fill="#666666">[BASE TABLE]</text>
<polygon fill="none" stroke="#000000" points="163,-722.5 163,-752.5 462,-752.5 462,-722.5 163,-722.5"/>
<text text-anchor="start" x="170" y="-733.9" font-family="Arial" font-size="14.00" fill="#000000">id </text>
<text text-anchor="start" x="184.7798" y="-733.9" font-family="Arial" font-size="14.00" fill="#666666">[uuid]</text>
<polygon fill="none" stroke="#000000" points="163,-692.5 163,-722.5 462,-722.5 462,-692.5 163,-692.5"/>
<text text-anchor="start" x="170" y="-703.9" font-family="Arial" font-size="14.00" fill="#000000">role_id </text>
<text text-anchor="start" x="215.8948" y="-703.9" font-family="Arial" font-size="14.00" fill="#666666">[uuid]</text>
<polygon fill="none" stroke="#000000" points="163,-662.5 163,-692.5 462,-692.5 462,-662.5 163,-662.5"/>
<text text-anchor="start" x="170" y="-673.9" font-family="Arial" font-size="14.00" fill="#000000">resource_id </text>
<text text-anchor="start" x="247.014" y="-673.9" font-family="Arial" font-size="14.00" fill="#666666">[uuid]</text>
<polygon fill="none" stroke="#000000" points="163,-632.5 163,-662.5 462,-662.5 462,-632.5 163,-632.5"/>
<text text-anchor="start" x="170" y="-643.9" font-family="Arial" font-size="14.00" fill="#000000">action_id </text>
<text text-anchor="start" x="229.9074" y="-643.9" font-family="Arial" font-size="14.00" fill="#666666">[uuid]</text>
</g>
<!-- public.role_permissions&#45;&gt;public.roles -->
<g id="edge1" class="edge">
<title>public.role_permissions:role_id&#45;&gt;public.roles:id</title>
<path fill="none" stroke="#000000" d="M472.423,-706.3095C510.8656,-696.5905 489.6713,-629.6443 462,-590 435.4419,-551.9506 390.5581,-592.0494 364,-554 339.4523,-518.8309 321.1111,-457.5 364,-457.5"/>
<polygon fill="#000000" stroke="#000000" points="471.9354,-706.3651 461.4893,-703.0291 466.9677,-706.9325 462,-707.5 462,-707.5 462,-707.5 466.9677,-706.9325 462.5107,-711.9709 471.9354,-706.3651 471.9354,-706.3651"/>
<text text-anchor="start" x="468.8345" y="-717.5" font-family="Arial" font-size="10.00" fill="#000000">FOREIGN KEY (role_id) REFERENCES roles(id) ON DELETE CASCADE</text>
</g>
<!-- public.user_roles -->
<g id="node3" class="node">
<title>public.user_roles</title>
<polygon fill="#efefef" stroke="transparent" points="566,-752.5 566,-787.5 813,-787.5 813,-752.5 566,-752.5"/>
<polygon fill="none" stroke="#000000" points="566,-752.5 566,-787.5 813,-787.5 813,-752.5 566,-752.5"/>
<text text-anchor="start" x="572.8637" y="-765.3" font-family="Arial Bold" font-size="18.00" fill="#000000">public.user_roles</text>
<text text-anchor="start" x="708.8825" y="-765.3" font-family="Arial" font-size="14.00" fill="#000000"> </text>
<text text-anchor="start" x="712.7731" y="-765.3" font-family="Arial" font-size="14.00" fill="#666666">[BASE TABLE]</text>
<polygon fill="none" stroke="#000000" points="566,-722.5 566,-752.5 813,-752.5 813,-722.5 566,-722.5"/>
<text text-anchor="start" x="573" y="-733.9" font-family="Arial" font-size="14.00" fill="#000000">id </text>
<text text-anchor="start" x="587.7798" y="-733.9" font-family="Arial" font-size="14.00" fill="#666666">[uuid]</text>
<polygon fill="none" stroke="#000000" points="566,-692.5 566,-722.5 813,-722.5 813,-692.5 566,-692.5"/>
<text text-anchor="start" x="573" y="-703.9" font-family="Arial" font-size="14.00" fill="#000000">user_id </text>
<text text-anchor="start" x="622.7882" y="-703.9" font-family="Arial" font-size="14.00" fill="#666666">[uuid]</text>
<polygon fill="none" stroke="#000000" points="566,-662.5 566,-692.5 813,-692.5 813,-662.5 566,-662.5"/>
<text text-anchor="start" x="573" y="-673.9" font-family="Arial" font-size="14.00" fill="#000000">role_id </text>
<text text-anchor="start" x="618.8948" y="-673.9" font-family="Arial" font-size="14.00" fill="#666666">[uuid]</text>
<polygon fill="none" stroke="#000000" points="566,-632.5 566,-662.5 813,-662.5 813,-632.5 566,-632.5"/>
<text text-anchor="start" x="573" y="-643.9" font-family="Arial" font-size="14.00" fill="#000000">tenant_id </text>
<text text-anchor="start" x="634.474" y="-643.9" font-family="Arial" font-size="14.00" fill="#666666">[uuid]</text>
</g>
<!-- public.user_roles&#45;&gt;public.roles -->
<g id="edge2" class="edge">
<title>public.user_roles:role_id&#45;&gt;public.roles:id</title>
<path fill="none" stroke="#000000" d="M555.8698,-675.897C530.8951,-666.6767 547.7149,-619.7726 566,-590 584.5158,-559.8517 618.4842,-584.1483 637,-554 659.4455,-517.4533 679.8889,-457.5 637,-457.5"/>
<polygon fill="#000000" stroke="#000000" points="556.1229,-675.9369 565.2966,-681.9447 561.0614,-676.7185 566,-677.5 566,-677.5 566,-677.5 561.0614,-676.7185 566.7034,-673.0553 556.1229,-675.9369 556.1229,-675.9369"/>
<text text-anchor="start" x="572.8345" y="-687.5" font-family="Arial" font-size="10.00" fill="#000000">FOREIGN KEY (role_id) REFERENCES roles(id) ON DELETE CASCADE</text>
</g>
</g>
</svg>
