<?xml version="1.0" encoding="UTF-8" standalone="no"?>
<!DOCTYPE svg PUBLIC "-//W3C//DTD SVG 1.1//EN"
 "http://www.w3.org/Graphics/SVG/1.1/DTD/svg11.dtd">
<!-- Generated by graphviz version 2.40.1 (20161225.0304)
 -->
<!-- Title: public.users Pages: 1 -->
<svg width="1168pt" height="682pt"
 viewBox="0.00 0.00 1167.50 682.00" xmlns="http://www.w3.org/2000/svg" xmlns:xlink="http://www.w3.org/1999/xlink">
<g id="graph0" class="graph" transform="scale(1 1) rotate(0) translate(4 678)">
<title>public.users</title>
<polygon fill="#ffffff" stroke="transparent" points="-4,4 -4,-678 1163.5,-678 1163.5,4 -4,4"/>
<!-- public.users -->
<g id="node1" class="node">
<title>public.users</title>
<polygon fill="#efefef" stroke="transparent" points="420.5,-592.5 420.5,-627.5 693.5,-627.5 693.5,-592.5 420.5,-592.5"/>
<polygon fill="none" stroke="#000000" points="420.5,-592.5 420.5,-627.5 693.5,-627.5 693.5,-592.5 420.5,-592.5"/>
<text text-anchor="start" x="460.3662" y="-605.3" font-family="Arial Bold" font-size="18.00" fill="#000000">public.users</text>
<text text-anchor="start" x="556.38" y="-605.3" font-family="Arial" font-size="14.00" fill="#000000"> </text>
<text text-anchor="start" x="560.2706" y="-605.3" font-family="Arial" font-size="14.00" fill="#666666">[BASE TABLE]</text>
<polygon fill="none" stroke="#000000" points="420.5,-562.5 420.5,-592.5 693.5,-592.5 693.5,-562.5 420.5,-562.5"/>
<text text-anchor="start" x="427.5" y="-573.9" font-family="Arial" font-size="14.00" fill="#000000">id </text>
<text text-anchor="start" x="442.2798" y="-573.9" font-family="Arial" font-size="14.00" fill="#666666">[uuid]</text>
<polygon fill="none" stroke="#000000" points="420.5,-532.5 420.5,-562.5 693.5,-562.5 693.5,-532.5 420.5,-532.5"/>
<text text-anchor="start" x="427.5" y="-543.9" font-family="Arial" font-size="14.00" fill="#000000">tenant_id </text>
<text text-anchor="start" x="488.974" y="-543.9" font-family="Arial" font-size="14.00" fill="#666666">[uuid]</text>
<polygon fill="none" stroke="#000000" points="420.5,-502.5 420.5,-532.5 693.5,-532.5 693.5,-502.5 420.5,-502.5"/>
<text text-anchor="start" x="427.5" y="-513.9" font-family="Arial" font-size="14.00" fill="#000000">department_id </text>
<text text-anchor="start" x="520.8604" y="-513.9" font-family="Arial" font-size="14.00" fill="#666666">[uuid]</text>
<polygon fill="none" stroke="#000000" points="420.5,-472.5 420.5,-502.5 693.5,-502.5 693.5,-472.5 420.5,-472.5"/>
<text text-anchor="start" x="427.5" y="-483.9" font-family="Arial" font-size="14.00" fill="#000000">employment_type_id </text>
<text text-anchor="start" x="560.5322" y="-483.9" font-family="Arial" font-size="14.00" fill="#666666">[uuid]</text>
<polygon fill="none" stroke="#000000" points="420.5,-442.5 420.5,-472.5 693.5,-472.5 693.5,-442.5 420.5,-442.5"/>
<text text-anchor="start" x="427.5" y="-453.9" font-family="Arial" font-size="14.00" fill="#000000">name </text>
<text text-anchor="start" x="466.399" y="-453.9" font-family="Arial" font-size="14.00" fill="#666666">[text]</text>
<polygon fill="none" stroke="#000000" points="420.5,-412.5 420.5,-442.5 693.5,-442.5 693.5,-412.5 420.5,-412.5"/>
<text text-anchor="start" x="427.5" y="-423.9" font-family="Arial" font-size="14.00" fill="#000000">email </text>
<text text-anchor="start" x="464.8296" y="-423.9" font-family="Arial" font-size="14.00" fill="#666666">[text]</text>
<polygon fill="none" stroke="#000000" points="420.5,-382.5 420.5,-412.5 693.5,-412.5 693.5,-382.5 420.5,-382.5"/>
<text text-anchor="start" x="427.5" y="-393.9" font-family="Arial" font-size="14.00" fill="#000000">created_at </text>
<text text-anchor="start" x="497.528" y="-393.9" font-family="Arial" font-size="14.00" fill="#666666">[timestamp without time zone]</text>
<polygon fill="none" stroke="#000000" points="420.5,-352.5 420.5,-382.5 693.5,-382.5 693.5,-352.5 420.5,-352.5"/>
<text text-anchor="start" x="427.4636" y="-363.9" font-family="Arial" font-size="14.00" fill="#000000">updated_at </text>
<text text-anchor="start" x="501.3962" y="-363.9" font-family="Arial" font-size="14.00" fill="#666666">[timestamp without time zone]</text>
<polygon fill="none" stroke="#000000" stroke-width="3" points="418.5,-351.5 418.5,-629.5 694.5,-629.5 694.5,-351.5 418.5,-351.5"/>
</g>
<!-- public.tenants -->
<g id="node2" class="node">
<title>public.tenants</title>
<polygon fill="#efefef" stroke="transparent" points="43.5,-177.5 43.5,-212.5 316.5,-212.5 316.5,-177.5 43.5,-177.5"/>
<polygon fill="none" stroke="#000000" points="43.5,-177.5 43.5,-212.5 316.5,-212.5 316.5,-177.5 43.5,-177.5"/>
<text text-anchor="start" x="75.8539" y="-190.3" font-family="Arial Bold" font-size="18.00" fill="#000000">public.tenants</text>
<text text-anchor="start" x="186.8923" y="-190.3" font-family="Arial" font-size="14.00" fill="#000000"> </text>
<text text-anchor="start" x="190.7829" y="-190.3" font-family="Arial" font-size="14.00" fill="#666666">[BASE TABLE]</text>
<polygon fill="none" stroke="#000000" points="43.5,-147.5 43.5,-177.5 316.5,-177.5 316.5,-147.5 43.5,-147.5"/>
<text text-anchor="start" x="50.5" y="-158.9" font-family="Arial" font-size="14.00" fill="#000000">id </text>
<text text-anchor="start" x="65.2798" y="-158.9" font-family="Arial" font-size="14.00" fill="#666666">[uuid]</text>
<polygon fill="none" stroke="#000000" points="43.5,-117.5 43.5,-147.5 316.5,-147.5 316.5,-117.5 43.5,-117.5"/>
<text text-anchor="start" x="50.5" y="-128.9" font-family="Arial" font-size="14.00" fill="#000000">name </text>
<text text-anchor="start" x="89.399" y="-128.9" font-family="Arial" font-size="14.00" fill="#666666">[text]</text>
<polygon fill="none" stroke="#000000" points="43.5,-87.5 43.5,-117.5 316.5,-117.5 316.5,-87.5 43.5,-87.5"/>
<text text-anchor="start" x="50.5" y="-98.9" font-family="Arial" font-size="14.00" fill="#000000">created_at </text>
<text text-anchor="start" x="120.528" y="-98.9" font-family="Arial" font-size="14.00" fill="#666666">[timestamp without time zone]</text>
<polygon fill="none" stroke="#000000" points="43.5,-57.5 43.5,-87.5 316.5,-87.5 316.5,-57.5 43.5,-57.5"/>
<text text-anchor="start" x="50.4636" y="-68.9" font-family="Arial" font-size="14.00" fill="#000000">updated_at </text>
<text text-anchor="start" x="124.3962" y="-68.9" font-family="Arial" font-size="14.00" fill="#666666">[timestamp without time zone]</text>
</g>
<!-- public.users&#45;&gt;public.tenants -->
<g id="edge1" class="edge">
<title>public.users:tenant_id&#45;&gt;public.tenants:id</title>
<path fill="none" stroke="#000000" d="M410.3899,-545.6101C337.6139,-516.5656 401.4872,-162.5 316.5,-162.5"/>
<polygon fill="#000000" stroke="#000000" points="410.6703,-545.6624 419.6731,-551.9234 415.5851,-546.5812 420.5,-547.5 420.5,-547.5 420.5,-547.5 415.5851,-546.5812 421.3269,-543.0766 410.6703,-545.6624 410.6703,-545.6624"/>
<text text-anchor="start" x="63.2065" y="-557.5" font-family="Arial" font-size="10.00" fill="#000000">FOREIGN KEY (tenant_id) REFERENCES tenants(id) ON DELETE CASCADE</text>
</g>
<!-- public.departments -->
<g id="node3" class="node">
<title>public.departments</title>
<polygon fill="#efefef" stroke="transparent" points="420.5,-192.5 420.5,-227.5 693.5,-227.5 693.5,-192.5 420.5,-192.5"/>
<polygon fill="none" stroke="#000000" points="420.5,-192.5 420.5,-227.5 693.5,-227.5 693.5,-192.5 420.5,-192.5"/>
<text text-anchor="start" x="432.3555" y="-205.3" font-family="Arial Bold" font-size="18.00" fill="#000000">public.departments</text>
<text text-anchor="start" x="584.3907" y="-205.3" font-family="Arial" font-size="14.00" fill="#000000"> </text>
<text text-anchor="start" x="588.2813" y="-205.3" font-family="Arial" font-size="14.00" fill="#666666">[BASE TABLE]</text>
<polygon fill="none" stroke="#000000" points="420.5,-162.5 420.5,-192.5 693.5,-192.5 693.5,-162.5 420.5,-162.5"/>
<text text-anchor="start" x="427.5" y="-173.9" font-family="Arial" font-size="14.00" fill="#000000">id </text>
<text text-anchor="start" x="442.2798" y="-173.9" font-family="Arial" font-size="14.00" fill="#666666">[uuid]</text>
<polygon fill="none" stroke="#000000" points="420.5,-132.5 420.5,-162.5 693.5,-162.5 693.5,-132.5 420.5,-132.5"/>
<text text-anchor="start" x="427.5" y="-143.9" font-family="Arial" font-size="14.00" fill="#000000">tenant_id </text>
<text text-anchor="start" x="488.974" y="-143.9" font-family="Arial" font-size="14.00" fill="#666666">[uuid]</text>
<polygon fill="none" stroke="#000000" points="420.5,-102.5 420.5,-132.5 693.5,-132.5 693.5,-102.5 420.5,-102.5"/>
<text text-anchor="start" x="427.5" y="-113.9" font-family="Arial" font-size="14.00" fill="#000000">name </text>
<text text-anchor="start" x="466.399" y="-113.9" font-family="Arial" font-size="14.00" fill="#666666">[text]</text>
<polygon fill="none" stroke="#000000" points="420.5,-72.5 420.5,-102.5 693.5,-102.5 693.5,-72.5 420.5,-72.5"/>
<text text-anchor="start" x="427.5" y="-83.9" font-family="Arial" font-size="14.00" fill="#000000">created_at </text>
<text text-anchor="start" x="497.528" y="-83.9" font-family="Arial" font-size="14.00" fill="#666666">[timestamp without time zone]</text>
<polygon fill="none" stroke="#000000" points="420.5,-42.5 420.5,-72.5 693.5,-72.5 693.5,-42.5 420.5,-42.5"/>
<text text-anchor="start" x="427.4636" y="-53.9" font-family="Arial" font-size="14.00" fill="#000000">updated_at </text>
<text text-anchor="start" x="501.3962" y="-53.9" font-family="Arial" font-size="14.00" fill="#666666">[timestamp without time zone]</text>
</g>
<!-- public.users&#45;&gt;public.departments -->
<g id="edge2" class="edge">
<title>public.users:department_id&#45;&gt;public.departments:id</title>
<path fill="none" stroke="#000000" d="M410.373,-515.3288C345.1105,-486.3721 348.4861,-177.5 420.5,-177.5"/>
<polygon fill="#000000" stroke="#000000" points="410.7222,-515.4036 419.5566,-521.9 415.6111,-516.4518 420.5,-517.5 420.5,-517.5 420.5,-517.5 415.6111,-516.4518 421.4434,-513.1 410.7222,-515.4036 410.7222,-515.4036"/>
<text text-anchor="start" x="17.4305" y="-527.5" font-family="Arial" font-size="10.00" fill="#000000">FOREIGN KEY (department_id) REFERENCES departments(id) ON DELETE CASCADE</text>
</g>
<!-- public.employment_types -->
<g id="node4" class="node">
<title>public.employment_types</title>
<polygon fill="#efefef" stroke="transparent" points="797.5,-192.5 797.5,-227.5 1111.5,-227.5 1111.5,-192.5 797.5,-192.5"/>
<polygon fill="none" stroke="#000000" points="797.5,-192.5 797.5,-227.5 1111.5,-227.5 1111.5,-192.5 797.5,-192.5"/>
<text text-anchor="start" x="804.3522" y="-205.3" font-family="Arial Bold" font-size="18.00" fill="#000000">public.employment_types</text>
<text text-anchor="start" x="1007.394" y="-205.3" font-family="Arial" font-size="14.00" fill="#000000"> </text>
<text text-anchor="start" x="1011.2846" y="-205.3" font-family="Arial" font-size="14.00" fill="#666666">[BASE TABLE]</text>
<polygon fill="none" stroke="#000000" points="797.5,-162.5 797.5,-192.5 1111.5,-192.5 1111.5,-162.5 797.5,-162.5"/>
<text text-anchor="start" x="804.5" y="-173.9" font-family="Arial" font-size="14.00" fill="#000000">id </text>
<text text-anchor="start" x="819.2798" y="-173.9" font-family="Arial" font-size="14.00" fill="#666666">[uuid]</text>
<polygon fill="none" stroke="#000000" points="797.5,-132.5 797.5,-162.5 1111.5,-162.5 1111.5,-132.5 797.5,-132.5"/>
<text text-anchor="start" x="804.5" y="-143.9" font-family="Arial" font-size="14.00" fill="#000000">tenant_id </text>
<text text-anchor="start" x="865.974" y="-143.9" font-family="Arial" font-size="14.00" fill="#666666">[uuid]</text>
<polygon fill="none" stroke="#000000" points="797.5,-102.5 797.5,-132.5 1111.5,-132.5 1111.5,-102.5 797.5,-102.5"/>
<text text-anchor="start" x="804.5" y="-113.9" font-family="Arial" font-size="14.00" fill="#000000">name </text>
<text text-anchor="start" x="843.399" y="-113.9" font-family="Arial" font-size="14.00" fill="#666666">[text]</text>
<polygon fill="none" stroke="#000000" points="797.5,-72.5 797.5,-102.5 1111.5,-102.5 1111.5,-72.5 797.5,-72.5"/>
<text text-anchor="start" x="804.5" y="-83.9" font-family="Arial" font-size="14.00" fill="#000000">created_at </text>
<text text-anchor="start" x="874.528" y="-83.9" font-family="Arial" font-size="14.00" fill="#666666">[timestamp without time zone]</text>
<polygon fill="none" stroke="#000000" points="797.5,-42.5 797.5,-72.5 1111.5,-72.5 1111.5,-42.5 797.5,-42.5"/>
<text text-anchor="start" x="804.5" y="-53.9" font-family="Arial" font-size="14.00" fill="#000000">updated_at </text>
<text text-anchor="start" x="878.4326" y="-53.9" font-family="Arial" font-size="14.00" fill="#666666">[timestamp without time zone]</text>
</g>
<!-- public.users&#45;&gt;public.employment_types -->
<g id="edge3" class="edge">
<title>public.users:employment_type_id&#45;&gt;public.employment_types:id</title>
<path fill="none" stroke="#000000" d="M703.3551,-485.3549C762.3984,-457.9657 728.3857,-177.5 797.5,-177.5"/>
<polygon fill="#000000" stroke="#000000" points="703.2712,-485.3731 692.5429,-483.103 698.3856,-486.4365 693.5,-487.5 693.5,-487.5 693.5,-487.5 698.3856,-486.4365 694.4571,-491.897 703.2712,-485.3731 703.2712,-485.3731"/>
<text text-anchor="start" x="700.0935" y="-497.5" font-family="Arial" font-size="10.00" fill="#000000">FOREIGN KEY (employment_type_id) REFERENCES employment_types(id) ON DELETE CASCADE</text>
</g>
</g>
</svg>
