<?xml version="1.0" encoding="UTF-8" standalone="no"?>
<!DOCTYPE svg PUBLIC "-//W3C//DTD SVG 1.1//EN"
 "http://www.w3.org/Graphics/SVG/1.1/DTD/svg11.dtd">
<!-- Generated by graphviz version 2.40.1 (20161225.0304)
 -->
<!-- Title: public.role_permissions Pages: 1 -->
<svg width="1077pt" height="562pt"
 viewBox="0.00 0.00 1076.50 562.00" xmlns="http://www.w3.org/2000/svg" xmlns:xlink="http://www.w3.org/1999/xlink">
<g id="graph0" class="graph" transform="scale(1 1) rotate(0) translate(4 558)">
<title>public.role_permissions</title>
<polygon fill="#ffffff" stroke="transparent" points="-4,4 -4,-558 1072.5,-558 1072.5,4 -4,4"/>
<!-- public.role_permissions -->
<g id="node1" class="node">
<title>public.role_permissions</title>
<polygon fill="#efefef" stroke="transparent" points="407.5,-472.5 407.5,-507.5 706.5,-507.5 706.5,-472.5 407.5,-472.5"/>
<polygon fill="none" stroke="#000000" points="407.5,-472.5 407.5,-507.5 706.5,-507.5 706.5,-472.5 407.5,-472.5"/>
<text text-anchor="start" x="414.3672" y="-485.3" font-family="Arial Bold" font-size="18.00" fill="#000000">public.role_permissions</text>
<text text-anchor="start" x="602.379" y="-485.3" font-family="Arial" font-size="14.00" fill="#000000"> </text>
<text text-anchor="start" x="606.2696" y="-485.3" font-family="Arial" font-size="14.00" fill="#666666">[BASE TABLE]</text>
<polygon fill="none" stroke="#000000" points="407.5,-442.5 407.5,-472.5 706.5,-472.5 706.5,-442.5 407.5,-442.5"/>
<text text-anchor="start" x="414.5" y="-453.9" font-family="Arial" font-size="14.00" fill="#000000">id </text>
<text text-anchor="start" x="429.2798" y="-453.9" font-family="Arial" font-size="14.00" fill="#666666">[uuid]</text>
<polygon fill="none" stroke="#000000" points="407.5,-412.5 407.5,-442.5 706.5,-442.5 706.5,-412.5 407.5,-412.5"/>
<text text-anchor="start" x="414.5" y="-423.9" font-family="Arial" font-size="14.00" fill="#000000">role_id </text>
<text text-anchor="start" x="460.3948" y="-423.9" font-family="Arial" font-size="14.00" fill="#666666">[uuid]</text>
<polygon fill="none" stroke="#000000" points="407.5,-382.5 407.5,-412.5 706.5,-412.5 706.5,-382.5 407.5,-382.5"/>
<text text-anchor="start" x="414.5" y="-393.9" font-family="Arial" font-size="14.00" fill="#000000">resource_id </text>
<text text-anchor="start" x="491.514" y="-393.9" font-family="Arial" font-size="14.00" fill="#666666">[uuid]</text>
<polygon fill="none" stroke="#000000" points="407.5,-352.5 407.5,-382.5 706.5,-382.5 706.5,-352.5 407.5,-352.5"/>
<text text-anchor="start" x="414.5" y="-363.9" font-family="Arial" font-size="14.00" fill="#000000">action_id </text>
<text text-anchor="start" x="474.4074" y="-363.9" font-family="Arial" font-size="14.00" fill="#666666">[uuid]</text>
<polygon fill="none" stroke="#000000" stroke-width="3" points="405.5,-351.5 405.5,-509.5 707.5,-509.5 707.5,-351.5 405.5,-351.5"/>
</g>
<!-- public.roles -->
<g id="node2" class="node">
<title>public.roles</title>
<polygon fill="#efefef" stroke="transparent" points="43.5,-192.5 43.5,-227.5 316.5,-227.5 316.5,-192.5 43.5,-192.5"/>
<polygon fill="none" stroke="#000000" points="43.5,-192.5 43.5,-227.5 316.5,-227.5 316.5,-192.5 43.5,-192.5"/>
<text text-anchor="start" x="85.8691" y="-205.3" font-family="Arial Bold" font-size="18.00" fill="#000000">public.roles</text>
<text text-anchor="start" x="176.8771" y="-205.3" font-family="Arial" font-size="14.00" fill="#000000"> </text>
<text text-anchor="start" x="180.7677" y="-205.3" font-family="Arial" font-size="14.00" fill="#666666">[BASE TABLE]</text>
<polygon fill="none" stroke="#000000" points="43.5,-162.5 43.5,-192.5 316.5,-192.5 316.5,-162.5 43.5,-162.5"/>
<text text-anchor="start" x="50.5" y="-173.9" font-family="Arial" font-size="14.00" fill="#000000">id </text>
<text text-anchor="start" x="65.2798" y="-173.9" font-family="Arial" font-size="14.00" fill="#666666">[uuid]</text>
<polygon fill="none" stroke="#000000" points="43.5,-132.5 43.5,-162.5 316.5,-162.5 316.5,-132.5 43.5,-132.5"/>
<text text-anchor="start" x="50.5" y="-143.9" font-family="Arial" font-size="14.00" fill="#000000">tenant_id </text>
<text text-anchor="start" x="111.974" y="-143.9" font-family="Arial" font-size="14.00" fill="#666666">[uuid]</text>
<polygon fill="none" stroke="#000000" points="43.5,-102.5 43.5,-132.5 316.5,-132.5 316.5,-102.5 43.5,-102.5"/>
<text text-anchor="start" x="50.5" y="-113.9" font-family="Arial" font-size="14.00" fill="#000000">name </text>
<text text-anchor="start" x="89.399" y="-113.9" font-family="Arial" font-size="14.00" fill="#666666">[text]</text>
<polygon fill="none" stroke="#000000" points="43.5,-72.5 43.5,-102.5 316.5,-102.5 316.5,-72.5 43.5,-72.5"/>
<text text-anchor="start" x="50.5" y="-83.9" font-family="Arial" font-size="14.00" fill="#000000">created_at </text>
<text text-anchor="start" x="120.528" y="-83.9" font-family="Arial" font-size="14.00" fill="#666666">[timestamp without time zone]</text>
<polygon fill="none" stroke="#000000" points="43.5,-42.5 43.5,-72.5 316.5,-72.5 316.5,-42.5 43.5,-42.5"/>
<text text-anchor="start" x="50.4636" y="-53.9" font-family="Arial" font-size="14.00" fill="#000000">updated_at </text>
<text text-anchor="start" x="124.3962" y="-53.9" font-family="Arial" font-size="14.00" fill="#666666">[timestamp without time zone]</text>
</g>
<!-- public.role_permissions&#45;&gt;public.roles -->
<g id="edge1" class="edge">
<title>public.role_permissions:role_id&#45;&gt;public.roles:id</title>
<path fill="none" stroke="#000000" d="M397.4716,-426.8265C297.8239,-412.5924 431.1635,-177.5 316.5,-177.5"/>
<polygon fill="#000000" stroke="#000000" points="397.5225,-426.8298 407.1984,-431.9899 402.5112,-427.1649 407.5,-427.5 407.5,-427.5 407.5,-427.5 402.5112,-427.1649 407.8016,-423.0101 397.5225,-426.8298 397.5225,-426.8298"/>
<text text-anchor="start" x="72.3345" y="-437.5" font-family="Arial" font-size="10.00" fill="#000000">FOREIGN KEY (role_id) REFERENCES roles(id) ON DELETE CASCADE</text>
</g>
<!-- public.resources -->
<g id="node3" class="node">
<title>public.resources</title>
<polygon fill="#efefef" stroke="transparent" points="420.5,-192.5 420.5,-227.5 693.5,-227.5 693.5,-192.5 420.5,-192.5"/>
<polygon fill="none" stroke="#000000" points="420.5,-192.5 420.5,-227.5 693.5,-227.5 693.5,-192.5 420.5,-192.5"/>
<text text-anchor="start" x="442.8639" y="-205.3" font-family="Arial Bold" font-size="18.00" fill="#000000">public.resources</text>
<text text-anchor="start" x="573.8823" y="-205.3" font-family="Arial" font-size="14.00" fill="#000000"> </text>
<text text-anchor="start" x="577.7729" y="-205.3" font-family="Arial" font-size="14.00" fill="#666666">[BASE TABLE]</text>
<polygon fill="none" stroke="#000000" points="420.5,-162.5 420.5,-192.5 693.5,-192.5 693.5,-162.5 420.5,-162.5"/>
<text text-anchor="start" x="427.5" y="-173.9" font-family="Arial" font-size="14.00" fill="#000000">id </text>
<text text-anchor="start" x="442.2798" y="-173.9" font-family="Arial" font-size="14.00" fill="#666666">[uuid]</text>
<polygon fill="none" stroke="#000000" points="420.5,-132.5 420.5,-162.5 693.5,-162.5 693.5,-132.5 420.5,-132.5"/>
<text text-anchor="start" x="427.5" y="-143.9" font-family="Arial" font-size="14.00" fill="#000000">tenant_id </text>
<text text-anchor="start" x="488.974" y="-143.9" font-family="Arial" font-size="14.00" fill="#666666">[uuid]</text>
<polygon fill="none" stroke="#000000" points="420.5,-102.5 420.5,-132.5 693.5,-132.5 693.5,-102.5 420.5,-102.5"/>
<text text-anchor="start" x="427.5" y="-113.9" font-family="Arial" font-size="14.00" fill="#000000">name </text>
<text text-anchor="start" x="466.399" y="-113.9" font-family="Arial" font-size="14.00" fill="#666666">[text]</text>
<polygon fill="none" stroke="#000000" points="420.5,-72.5 420.5,-102.5 693.5,-102.5 693.5,-72.5 420.5,-72.5"/>
<text text-anchor="start" x="427.5" y="-83.9" font-family="Arial" font-size="14.00" fill="#000000">created_at </text>
<text text-anchor="start" x="497.528" y="-83.9" font-family="Arial" font-size="14.00" fill="#666666">[timestamp without time zone]</text>
<polygon fill="none" stroke="#000000" points="420.5,-42.5 420.5,-72.5 693.5,-72.5 693.5,-42.5 420.5,-42.5"/>
<text text-anchor="start" x="427.4636" y="-53.9" font-family="Arial" font-size="14.00" fill="#000000">updated_at </text>
<text text-anchor="start" x="501.3962" y="-53.9" font-family="Arial" font-size="14.00" fill="#666666">[timestamp without time zone]</text>
</g>
<!-- public.role_permissions&#45;&gt;public.resources -->
<g id="edge2" class="edge">
<title>public.role_permissions:resource_id&#45;&gt;public.resources:id</title>
<path fill="none" stroke="#000000" d="M397.6091,-394.0443C360.6537,-366.0556 375.1606,-177.5 420.5,-177.5"/>
<polygon fill="#000000" stroke="#000000" points="398.0596,-394.2017 406.0157,-401.7482 402.7798,-395.8508 407.5,-397.5 407.5,-397.5 407.5,-397.5 402.7798,-395.8508 408.9843,-393.2518 398.0596,-394.2017 398.0596,-394.2017"/>
<text text-anchor="start" x="28.1065" y="-407.5" font-family="Arial" font-size="10.00" fill="#000000">FOREIGN KEY (resource_id) REFERENCES resources(id) ON DELETE CASCADE</text>
</g>
<!-- public.actions -->
<g id="node4" class="node">
<title>public.actions</title>
<polygon fill="#efefef" stroke="transparent" points="797.5,-147.5 797.5,-182.5 1017.5,-182.5 1017.5,-147.5 797.5,-147.5"/>
<polygon fill="none" stroke="#000000" points="797.5,-147.5 797.5,-182.5 1017.5,-182.5 1017.5,-147.5 797.5,-147.5"/>
<text text-anchor="start" x="804.361" y="-160.3" font-family="Arial Bold" font-size="18.00" fill="#000000">public.actions</text>
<text text-anchor="start" x="913.3852" y="-160.3" font-family="Arial" font-size="14.00" fill="#000000"> </text>
<text text-anchor="start" x="917.2758" y="-160.3" font-family="Arial" font-size="14.00" fill="#666666">[BASE TABLE]</text>
<polygon fill="none" stroke="#000000" points="797.5,-117.5 797.5,-147.5 1017.5,-147.5 1017.5,-117.5 797.5,-117.5"/>
<text text-anchor="start" x="804.5" y="-128.9" font-family="Arial" font-size="14.00" fill="#000000">id </text>
<text text-anchor="start" x="819.2798" y="-128.9" font-family="Arial" font-size="14.00" fill="#666666">[uuid]</text>
<polygon fill="none" stroke="#000000" points="797.5,-87.5 797.5,-117.5 1017.5,-117.5 1017.5,-87.5 797.5,-87.5"/>
<text text-anchor="start" x="804.5" y="-98.9" font-family="Arial" font-size="14.00" fill="#000000">name </text>
<text text-anchor="start" x="843.399" y="-98.9" font-family="Arial" font-size="14.00" fill="#666666">[text]</text>
</g>
<!-- public.role_permissions&#45;&gt;public.actions -->
<g id="edge3" class="edge">
<title>public.role_permissions:action_id&#45;&gt;public.actions:id</title>
<path fill="none" stroke="#000000" d="M716.5813,-366.7836C810.1837,-352.5976 689.1077,-132.5 797.5,-132.5"/>
<polygon fill="#000000" stroke="#000000" points="716.4748,-366.791 706.181,-363.0113 711.4874,-367.1455 706.5,-367.5 706.5,-367.5 706.5,-367.5 711.4874,-367.1455 706.819,-371.9887 716.4748,-366.791 716.4748,-366.791"/>
<text text-anchor="start" x="713.3255" y="-377.5" font-family="Arial" font-size="10.00" fill="#000000">FOREIGN KEY (action_id) REFERENCES actions(id) ON DELETE CASCADE</text>
</g>
</g>
</svg>
