<?xml version="1.0" encoding="UTF-8" standalone="no"?>
<!DOCTYPE svg PUBLIC "-//W3C//DTD SVG 1.1//EN"
 "http://www.w3.org/Graphics/SVG/1.1/DTD/svg11.dtd">
<!-- Generated by graphviz version 2.40.1 (20161225.0304)
 -->
<!-- Title: public.user_roles Pages: 1 -->
<svg width="961pt" height="562pt"
 viewBox="0.00 0.00 961.00 562.00" xmlns="http://www.w3.org/2000/svg" xmlns:xlink="http://www.w3.org/1999/xlink">
<g id="graph0" class="graph" transform="scale(1 1) rotate(0) translate(4 558)">
<title>public.user_roles</title>
<polygon fill="#ffffff" stroke="transparent" points="-4,4 -4,-558 957,-558 957,4 -4,4"/>
<!-- public.user_roles -->
<g id="node1" class="node">
<title>public.user_roles</title>
<polygon fill="#efefef" stroke="transparent" points="342,-472.5 342,-507.5 589,-507.5 589,-472.5 342,-472.5"/>
<polygon fill="none" stroke="#000000" points="342,-472.5 342,-507.5 589,-507.5 589,-472.5 342,-472.5"/>
<text text-anchor="start" x="348.8637" y="-485.3" font-family="Arial Bold" font-size="18.00" fill="#000000">public.user_roles</text>
<text text-anchor="start" x="484.8825" y="-485.3" font-family="Arial" font-size="14.00" fill="#000000"> </text>
<text text-anchor="start" x="488.7731" y="-485.3" font-family="Arial" font-size="14.00" fill="#666666">[BASE TABLE]</text>
<polygon fill="none" stroke="#000000" points="342,-442.5 342,-472.5 589,-472.5 589,-442.5 342,-442.5"/>
<text text-anchor="start" x="349" y="-453.9" font-family="Arial" font-size="14.00" fill="#000000">id </text>
<text text-anchor="start" x="363.7798" y="-453.9" font-family="Arial" font-size="14.00" fill="#666666">[uuid]</text>
<polygon fill="none" stroke="#000000" points="342,-412.5 342,-442.5 589,-442.5 589,-412.5 342,-412.5"/>
<text text-anchor="start" x="349" y="-423.9" font-family="Arial" font-size="14.00" fill="#000000">user_id </text>
<text text-anchor="start" x="398.7882" y="-423.9" font-family="Arial" font-size="14.00" fill="#666666">[uuid]</text>
<polygon fill="none" stroke="#000000" points="342,-382.5 342,-412.5 589,-412.5 589,-382.5 342,-382.5"/>
<text text-anchor="start" x="349" y="-393.9" font-family="Arial" font-size="14.00" fill="#000000">role_id </text>
<text text-anchor="start" x="394.8948" y="-393.9" font-family="Arial" font-size="14.00" fill="#666666">[uuid]</text>
<polygon fill="none" stroke="#000000" points="342,-352.5 342,-382.5 589,-382.5 589,-352.5 342,-352.5"/>
<text text-anchor="start" x="349" y="-363.9" font-family="Arial" font-size="14.00" fill="#000000">tenant_id </text>
<text text-anchor="start" x="410.474" y="-363.9" font-family="Arial" font-size="14.00" fill="#666666">[uuid]</text>
<polygon fill="none" stroke="#000000" stroke-width="3" points="340,-351.5 340,-509.5 590,-509.5 590,-351.5 340,-351.5"/>
</g>
<!-- public.roles -->
<g id="node2" class="node">
<title>public.roles</title>
<polygon fill="#efefef" stroke="transparent" points="141,-192.5 141,-227.5 414,-227.5 414,-192.5 141,-192.5"/>
<polygon fill="none" stroke="#000000" points="141,-192.5 141,-227.5 414,-227.5 414,-192.5 141,-192.5"/>
<text text-anchor="start" x="183.3691" y="-205.3" font-family="Arial Bold" font-size="18.00" fill="#000000">public.roles</text>
<text text-anchor="start" x="274.3771" y="-205.3" font-family="Arial" font-size="14.00" fill="#000000"> </text>
<text text-anchor="start" x="278.2677" y="-205.3" font-family="Arial" font-size="14.00" fill="#666666">[BASE TABLE]</text>
<polygon fill="none" stroke="#000000" points="141,-162.5 141,-192.5 414,-192.5 414,-162.5 141,-162.5"/>
<text text-anchor="start" x="148" y="-173.9" font-family="Arial" font-size="14.00" fill="#000000">id </text>
<text text-anchor="start" x="162.7798" y="-173.9" font-family="Arial" font-size="14.00" fill="#666666">[uuid]</text>
<polygon fill="none" stroke="#000000" points="141,-132.5 141,-162.5 414,-162.5 414,-132.5 141,-132.5"/>
<text text-anchor="start" x="148" y="-143.9" font-family="Arial" font-size="14.00" fill="#000000">tenant_id </text>
<text text-anchor="start" x="209.474" y="-143.9" font-family="Arial" font-size="14.00" fill="#666666">[uuid]</text>
<polygon fill="none" stroke="#000000" points="141,-102.5 141,-132.5 414,-132.5 414,-102.5 141,-102.5"/>
<text text-anchor="start" x="148" y="-113.9" font-family="Arial" font-size="14.00" fill="#000000">name </text>
<text text-anchor="start" x="186.899" y="-113.9" font-family="Arial" font-size="14.00" fill="#666666">[text]</text>
<polygon fill="none" stroke="#000000" points="141,-72.5 141,-102.5 414,-102.5 414,-72.5 141,-72.5"/>
<text text-anchor="start" x="148" y="-83.9" font-family="Arial" font-size="14.00" fill="#000000">created_at </text>
<text text-anchor="start" x="218.028" y="-83.9" font-family="Arial" font-size="14.00" fill="#666666">[timestamp without time zone]</text>
<polygon fill="none" stroke="#000000" points="141,-42.5 141,-72.5 414,-72.5 414,-42.5 141,-42.5"/>
<text text-anchor="start" x="147.9636" y="-53.9" font-family="Arial" font-size="14.00" fill="#000000">updated_at </text>
<text text-anchor="start" x="221.8962" y="-53.9" font-family="Arial" font-size="14.00" fill="#666666">[timestamp without time zone]</text>
</g>
<!-- public.user_roles&#45;&gt;public.roles -->
<g id="edge1" class="edge">
<title>public.user_roles:role_id&#45;&gt;public.roles:id</title>
<path fill="none" stroke="#000000" d="M331.8594,-395.9626C305.5233,-386.7173 322.919,-337.8738 342,-307 360.8091,-276.5662 395.1909,-301.4338 414,-271 435.847,-235.6507 455.5556,-177.5 414,-177.5"/>
<polygon fill="#000000" stroke="#000000" points="332.113,-396.001 341.3255,-401.9492 337.0565,-396.7505 342,-397.5 342,-397.5 342,-397.5 337.0565,-396.7505 342.6745,-393.0508 332.113,-396.001 332.113,-396.001"/>
<text text-anchor="start" x="6.8345" y="-407.5" font-family="Arial" font-size="10.00" fill="#000000">FOREIGN KEY (role_id) REFERENCES roles(id) ON DELETE CASCADE</text>
</g>
<!-- public.tenants -->
<g id="node3" class="node">
<title>public.tenants</title>
<polygon fill="#efefef" stroke="transparent" points="518,-177.5 518,-212.5 791,-212.5 791,-177.5 518,-177.5"/>
<polygon fill="none" stroke="#000000" points="518,-177.5 518,-212.5 791,-212.5 791,-177.5 518,-177.5"/>
<text text-anchor="start" x="550.3539" y="-190.3" font-family="Arial Bold" font-size="18.00" fill="#000000">public.tenants</text>
<text text-anchor="start" x="661.3923" y="-190.3" font-family="Arial" font-size="14.00" fill="#000000"> </text>
<text text-anchor="start" x="665.2829" y="-190.3" font-family="Arial" font-size="14.00" fill="#666666">[BASE TABLE]</text>
<polygon fill="none" stroke="#000000" points="518,-147.5 518,-177.5 791,-177.5 791,-147.5 518,-147.5"/>
<text text-anchor="start" x="525" y="-158.9" font-family="Arial" font-size="14.00" fill="#000000">id </text>
<text text-anchor="start" x="539.7798" y="-158.9" font-family="Arial" font-size="14.00" fill="#666666">[uuid]</text>
<polygon fill="none" stroke="#000000" points="518,-117.5 518,-147.5 791,-147.5 791,-117.5 518,-117.5"/>
<text text-anchor="start" x="525" y="-128.9" font-family="Arial" font-size="14.00" fill="#000000">name </text>
<text text-anchor="start" x="563.899" y="-128.9" font-family="Arial" font-size="14.00" fill="#666666">[text]</text>
<polygon fill="none" stroke="#000000" points="518,-87.5 518,-117.5 791,-117.5 791,-87.5 518,-87.5"/>
<text text-anchor="start" x="525" y="-98.9" font-family="Arial" font-size="14.00" fill="#000000">created_at </text>
<text text-anchor="start" x="595.028" y="-98.9" font-family="Arial" font-size="14.00" fill="#666666">[timestamp without time zone]</text>
<polygon fill="none" stroke="#000000" points="518,-57.5 518,-87.5 791,-87.5 791,-57.5 518,-57.5"/>
<text text-anchor="start" x="524.9636" y="-68.9" font-family="Arial" font-size="14.00" fill="#000000">updated_at </text>
<text text-anchor="start" x="598.8962" y="-68.9" font-family="Arial" font-size="14.00" fill="#666666">[timestamp without time zone]</text>
</g>
<!-- public.user_roles&#45;&gt;public.tenants -->
<g id="edge2" class="edge">
<title>public.user_roles:tenant_id&#45;&gt;public.tenants:id</title>
<path fill="none" stroke="#000000" d="M598.7315,-365.0089C611.3784,-356.3792 599.3545,-327.1868 589,-307 571.2677,-272.4298 535.7323,-290.5702 518,-256 499.0341,-219.0249 476.4444,-162.5 518,-162.5"/>
<polygon fill="#000000" stroke="#000000" points="598.6876,-365.0201 587.884,-363.1406 593.8438,-366.26 589,-367.5 589,-367.5 589,-367.5 593.8438,-366.26 590.116,-371.8594 598.6876,-365.0201 598.6876,-365.0201"/>
<text text-anchor="start" x="595.7065" y="-377.5" font-family="Arial" font-size="10.00" fill="#000000">FOREIGN KEY (tenant_id) REFERENCES tenants(id) ON DELETE CASCADE</text>
</g>
</g>
</svg>
