<?xml version="1.0" encoding="UTF-8" standalone="no"?>
<!DOCTYPE svg PUBLIC "-//W3C//DTD SVG 1.1//EN"
 "http://www.w3.org/Graphics/SVG/1.1/DTD/svg11.dtd">
<!-- Generated by graphviz version 2.40.1 (20161225.0304)
 -->
<!-- Title: public.actions Pages: 1 -->
<svg width="564pt" height="472pt"
 viewBox="0.00 0.00 563.50 472.00" xmlns="http://www.w3.org/2000/svg" xmlns:xlink="http://www.w3.org/1999/xlink">
<g id="graph0" class="graph" transform="scale(1 1) rotate(0) translate(4 468)">
<title>public.actions</title>
<polygon fill="#ffffff" stroke="transparent" points="-4,4 -4,-468 559.5,-468 559.5,4 -4,4"/>
<!-- public.actions -->
<g id="node1" class="node">
<title>public.actions</title>
<polygon fill="#efefef" stroke="transparent" points="83.5,-105.5 83.5,-140.5 303.5,-140.5 303.5,-105.5 83.5,-105.5"/>
<polygon fill="none" stroke="#000000" points="83.5,-105.5 83.5,-140.5 303.5,-140.5 303.5,-105.5 83.5,-105.5"/>
<text text-anchor="start" x="90.361" y="-118.3" font-family="Arial Bold" font-size="18.00" fill="#000000">public.actions</text>
<text text-anchor="start" x="199.3852" y="-118.3" font-family="Arial" font-size="14.00" fill="#000000"> </text>
<text text-anchor="start" x="203.2758" y="-118.3" font-family="Arial" font-size="14.00" fill="#666666">[BASE TABLE]</text>
<polygon fill="none" stroke="#000000" points="83.5,-75.5 83.5,-105.5 303.5,-105.5 303.5,-75.5 83.5,-75.5"/>
<text text-anchor="start" x="90.5" y="-86.9" font-family="Arial" font-size="14.00" fill="#000000">id </text>
<text text-anchor="start" x="105.2798" y="-86.9" font-family="Arial" font-size="14.00" fill="#666666">[uuid]</text>
<polygon fill="none" stroke="#000000" points="83.5,-45.5 83.5,-75.5 303.5,-75.5 303.5,-45.5 83.5,-45.5"/>
<text text-anchor="start" x="90.5" y="-56.9" font-family="Arial" font-size="14.00" fill="#000000">name </text>
<text text-anchor="start" x="129.399" y="-56.9" font-family="Arial" font-size="14.00" fill="#666666">[text]</text>
<polygon fill="none" stroke="#000000" stroke-width="3" points="82,-44.5 82,-142.5 305,-142.5 305,-44.5 82,-44.5"/>
</g>
<!-- public.role_permissions -->
<g id="node2" class="node">
<title>public.role_permissions</title>
<polygon fill="#efefef" stroke="transparent" points="43.5,-385.5 43.5,-420.5 342.5,-420.5 342.5,-385.5 43.5,-385.5"/>
<polygon fill="none" stroke="#000000" points="43.5,-385.5 43.5,-420.5 342.5,-420.5 342.5,-385.5 43.5,-385.5"/>
<text text-anchor="start" x="50.3672" y="-398.3" font-family="Arial Bold" font-size="18.00" fill="#000000">public.role_permissions</text>
<text text-anchor="start" x="238.379" y="-398.3" font-family="Arial" font-size="14.00" fill="#000000"> </text>
<text text-anchor="start" x="242.2696" y="-398.3" font-family="Arial" font-size="14.00" fill="#666666">[BASE TABLE]</text>
<polygon fill="none" stroke="#000000" points="43.5,-355.5 43.5,-385.5 342.5,-385.5 342.5,-355.5 43.5,-355.5"/>
<text text-anchor="start" x="50.5" y="-366.9" font-family="Arial" font-size="14.00" fill="#000000">id </text>
<text text-anchor="start" x="65.2798" y="-366.9" font-family="Arial" font-size="14.00" fill="#666666">[uuid]</text>
<polygon fill="none" stroke="#000000" points="43.5,-325.5 43.5,-355.5 342.5,-355.5 342.5,-325.5 43.5,-325.5"/>
<text text-anchor="start" x="50.5" y="-336.9" font-family="Arial" font-size="14.00" fill="#000000">role_id </text>
<text text-anchor="start" x="96.3948" y="-336.9" font-family="Arial" font-size="14.00" fill="#666666">[uuid]</text>
<polygon fill="none" stroke="#000000" points="43.5,-295.5 43.5,-325.5 342.5,-325.5 342.5,-295.5 43.5,-295.5"/>
<text text-anchor="start" x="50.5" y="-306.9" font-family="Arial" font-size="14.00" fill="#000000">resource_id </text>
<text text-anchor="start" x="127.514" y="-306.9" font-family="Arial" font-size="14.00" fill="#666666">[uuid]</text>
<polygon fill="none" stroke="#000000" points="43.5,-265.5 43.5,-295.5 342.5,-295.5 342.5,-265.5 43.5,-265.5"/>
<text text-anchor="start" x="50.5" y="-276.9" font-family="Arial" font-size="14.00" fill="#000000">action_id </text>
<text text-anchor="start" x="110.4074" y="-276.9" font-family="Arial" font-size="14.00" fill="#666666">[uuid]</text>
</g>
<!-- public.role_permissions&#45;&gt;public.actions -->
<g id="edge1" class="edge">
<title>public.role_permissions:action_id&#45;&gt;public.actions:id</title>
<path fill="none" stroke="#000000" d="M192.5667,-255.3073C183.4017,-209.4636 109.276,-237.0612 83.5,-187 63.8666,-148.8688 40.6111,-90.5 83.5,-90.5"/>
<polygon fill="#000000" stroke="#000000" points="192.5881,-255.5417 189.0187,-265.9104 193.044,-260.5208 193.5,-265.5 193.5,-265.5 193.5,-265.5 193.044,-260.5208 197.9813,-265.0896 192.5881,-255.5417 192.5881,-255.5417"/>
<text text-anchor="start" x="200.3255" y="-275.5" font-family="Arial" font-size="10.00" fill="#000000">FOREIGN KEY (action_id) REFERENCES actions(id) ON DELETE CASCADE</text>
</g>
</g>
</svg>
