<?xml version="1.0" encoding="UTF-8" standalone="no"?>
<!DOCTYPE svg PUBLIC "-//W3C//DTD SVG 1.1//EN"
 "http://www.w3.org/Graphics/SVG/1.1/DTD/svg11.dtd">
<!-- Generated by graphviz version 2.40.1 (20161225.0304)
 -->
<!-- Title: public.actions Pages: 1 -->
<svg width="836pt" height="592pt"
 viewBox="0.00 0.00 836.00 592.00" xmlns="http://www.w3.org/2000/svg" xmlns:xlink="http://www.w3.org/1999/xlink">
<g id="graph0" class="graph" transform="scale(1 1) rotate(0) translate(4 588)">
<title>public.actions</title>
<polygon fill="#ffffff" stroke="transparent" points="-4,4 -4,-588 832,-588 832,4 -4,4"/>
<!-- public.actions -->
<g id="node1" class="node">
<title>public.actions</title>
<polygon fill="#efefef" stroke="transparent" points="298,-105.5 298,-140.5 518,-140.5 518,-105.5 298,-105.5"/>
<polygon fill="none" stroke="#000000" points="298,-105.5 298,-140.5 518,-140.5 518,-105.5 298,-105.5"/>
<text text-anchor="start" x="304.861" y="-118.3" font-family="Arial Bold" font-size="18.00" fill="#000000">public.actions</text>
<text text-anchor="start" x="413.8852" y="-118.3" font-family="Arial" font-size="14.00" fill="#000000"> </text>
<text text-anchor="start" x="417.7758" y="-118.3" font-family="Arial" font-size="14.00" fill="#666666">[BASE TABLE]</text>
<polygon fill="none" stroke="#000000" points="298,-75.5 298,-105.5 518,-105.5 518,-75.5 298,-75.5"/>
<text text-anchor="start" x="305" y="-86.9" font-family="Arial" font-size="14.00" fill="#000000">id </text>
<text text-anchor="start" x="319.7798" y="-86.9" font-family="Arial" font-size="14.00" fill="#666666">[uuid]</text>
<polygon fill="none" stroke="#000000" points="298,-45.5 298,-75.5 518,-75.5 518,-45.5 298,-45.5"/>
<text text-anchor="start" x="305" y="-56.9" font-family="Arial" font-size="14.00" fill="#000000">name </text>
<text text-anchor="start" x="343.899" y="-56.9" font-family="Arial" font-size="14.00" fill="#666666">[text]</text>
<polygon fill="none" stroke="#000000" stroke-width="3" points="296.5,-44.5 296.5,-142.5 519.5,-142.5 519.5,-44.5 296.5,-44.5"/>
</g>
<!-- public.role_permissions -->
<g id="node2" class="node">
<title>public.role_permissions</title>
<polygon fill="#efefef" stroke="transparent" points="63,-445.5 63,-480.5 362,-480.5 362,-445.5 63,-445.5"/>
<polygon fill="none" stroke="#000000" points="63,-445.5 63,-480.5 362,-480.5 362,-445.5 63,-445.5"/>
<text text-anchor="start" x="69.8672" y="-458.3" font-family="Arial Bold" font-size="18.00" fill="#000000">public.role_permissions</text>
<text text-anchor="start" x="257.879" y="-458.3" font-family="Arial" font-size="14.00" fill="#000000"> </text>
<text text-anchor="start" x="261.7696" y="-458.3" font-family="Arial" font-size="14.00" fill="#666666">[BASE TABLE]</text>
<polygon fill="none" stroke="#000000" points="63,-415.5 63,-445.5 362,-445.5 362,-415.5 63,-415.5"/>
<text text-anchor="start" x="70" y="-426.9" font-family="Arial" font-size="14.00" fill="#000000">id </text>
<text text-anchor="start" x="84.7798" y="-426.9" font-family="Arial" font-size="14.00" fill="#666666">[uuid]</text>
<polygon fill="none" stroke="#000000" points="63,-385.5 63,-415.5 362,-415.5 362,-385.5 63,-385.5"/>
<text text-anchor="start" x="70" y="-396.9" font-family="Arial" font-size="14.00" fill="#000000">role_id </text>
<text text-anchor="start" x="115.8948" y="-396.9" font-family="Arial" font-size="14.00" fill="#666666">[uuid]</text>
<polygon fill="none" stroke="#000000" points="63,-355.5 63,-385.5 362,-385.5 362,-355.5 63,-355.5"/>
<text text-anchor="start" x="70" y="-366.9" font-family="Arial" font-size="14.00" fill="#000000">resource_id </text>
<text text-anchor="start" x="147.014" y="-366.9" font-family="Arial" font-size="14.00" fill="#666666">[uuid]</text>
<polygon fill="none" stroke="#000000" points="63,-325.5 63,-355.5 362,-355.5 362,-325.5 63,-325.5"/>
<text text-anchor="start" x="70" y="-336.9" font-family="Arial" font-size="14.00" fill="#000000">action_id </text>
<text text-anchor="start" x="129.9074" y="-336.9" font-family="Arial" font-size="14.00" fill="#666666">[uuid]</text>
</g>
<!-- public.role_permissions&#45;&gt;public.actions -->
<g id="edge1" class="edge">
<title>public.role_permissions:action_id&#45;&gt;public.actions:id</title>
<path fill="none" stroke="#000000" d="M371.8585,-337.541C381.3798,-328.903 368.0749,-303.064 362,-283 347.1402,-233.9213 312.8598,-236.0787 298,-187 285.5715,-145.9514 255.1111,-90.5 298,-90.5"/>
<polygon fill="#000000" stroke="#000000" points="371.5779,-337.6252 360.7063,-336.1899 366.7889,-339.0626 362,-340.5 362,-340.5 362,-340.5 366.7889,-339.0626 363.2937,-344.8101 371.5779,-337.6252 371.5779,-337.6252"/>
<text text-anchor="start" x="6.8255" y="-350.5" font-family="Arial" font-size="10.00" fill="#000000">FOREIGN KEY (action_id) REFERENCES actions(id) ON DELETE CASCADE</text>
</g>
<!-- public.abac_policies -->
<g id="node3" class="node">
<title>public.abac_policies</title>
<polygon fill="#efefef" stroke="transparent" points="466,-505.5 466,-540.5 739,-540.5 739,-505.5 466,-505.5"/>
<polygon fill="none" stroke="#000000" points="466,-505.5 466,-540.5 739,-540.5 739,-505.5 466,-505.5"/>
<text text-anchor="start" x="473.3555" y="-518.3" font-family="Arial Bold" font-size="18.00" fill="#000000">public.abac_policies</text>
<text text-anchor="start" x="634.3907" y="-518.3" font-family="Arial" font-size="14.00" fill="#000000"> </text>
<text text-anchor="start" x="638.2813" y="-518.3" font-family="Arial" font-size="14.00" fill="#666666">[BASE TABLE]</text>
<polygon fill="none" stroke="#000000" points="466,-475.5 466,-505.5 739,-505.5 739,-475.5 466,-475.5"/>
<text text-anchor="start" x="473" y="-486.9" font-family="Arial" font-size="14.00" fill="#000000">id </text>
<text text-anchor="start" x="487.7798" y="-486.9" font-family="Arial" font-size="14.00" fill="#666666">[uuid]</text>
<polygon fill="none" stroke="#000000" points="466,-445.5 466,-475.5 739,-475.5 739,-445.5 466,-445.5"/>
<text text-anchor="start" x="473" y="-456.9" font-family="Arial" font-size="14.00" fill="#000000">tenant_id </text>
<text text-anchor="start" x="534.474" y="-456.9" font-family="Arial" font-size="14.00" fill="#666666">[uuid]</text>
<polygon fill="none" stroke="#000000" points="466,-415.5 466,-445.5 739,-445.5 739,-415.5 466,-415.5"/>
<text text-anchor="start" x="473" y="-426.9" font-family="Arial" font-size="14.00" fill="#000000">resource_id </text>
<text text-anchor="start" x="550.014" y="-426.9" font-family="Arial" font-size="14.00" fill="#666666">[uuid]</text>
<polygon fill="none" stroke="#000000" points="466,-385.5 466,-415.5 739,-415.5 739,-385.5 466,-385.5"/>
<text text-anchor="start" x="473" y="-396.9" font-family="Arial" font-size="14.00" fill="#000000">action_id </text>
<text text-anchor="start" x="532.9074" y="-396.9" font-family="Arial" font-size="14.00" fill="#666666">[uuid]</text>
<polygon fill="none" stroke="#000000" points="466,-355.5 466,-385.5 739,-385.5 739,-355.5 466,-355.5"/>
<text text-anchor="start" x="473" y="-366.9" font-family="Arial" font-size="14.00" fill="#000000">attribute_id </text>
<text text-anchor="start" x="546.1318" y="-366.9" font-family="Arial" font-size="14.00" fill="#666666">[uuid]</text>
<polygon fill="none" stroke="#000000" points="466,-325.5 466,-355.5 739,-355.5 739,-325.5 466,-325.5"/>
<text text-anchor="start" x="473" y="-336.9" font-family="Arial" font-size="14.00" fill="#000000">condition </text>
<text text-anchor="start" x="532.9074" y="-336.9" font-family="Arial" font-size="14.00" fill="#666666">[jsonb]</text>
<polygon fill="none" stroke="#000000" points="466,-295.5 466,-325.5 739,-325.5 739,-295.5 466,-295.5"/>
<text text-anchor="start" x="473" y="-306.9" font-family="Arial" font-size="14.00" fill="#000000">created_at </text>
<text text-anchor="start" x="543.028" y="-306.9" font-family="Arial" font-size="14.00" fill="#666666">[timestamp without time zone]</text>
<polygon fill="none" stroke="#000000" points="466,-265.5 466,-295.5 739,-295.5 739,-265.5 466,-265.5"/>
<text text-anchor="start" x="472.9636" y="-276.9" font-family="Arial" font-size="14.00" fill="#000000">updated_at </text>
<text text-anchor="start" x="546.8962" y="-276.9" font-family="Arial" font-size="14.00" fill="#666666">[timestamp without time zone]</text>
</g>
<!-- public.abac_policies&#45;&gt;public.actions -->
<g id="edge2" class="edge">
<title>public.abac_policies:action_id&#45;&gt;public.actions:id</title>
<path fill="none" stroke="#000000" d="M455.6919,-399.8056C391.062,-390.4934 431.1034,-289.6026 466,-223 479.0456,-198.1015 504.9544,-211.8985 518,-187 537.905,-149.0099 560.8889,-90.5 518,-90.5"/>
<polygon fill="#000000" stroke="#000000" points="456.0226,-399.8277 465.6975,-404.9898 461.0113,-400.1639 466,-400.5 466,-400.5 466,-400.5 461.0113,-400.1639 466.3025,-396.0102 456.0226,-399.8277 456.0226,-399.8277"/>
<text text-anchor="start" x="472.8255" y="-410.5" font-family="Arial" font-size="10.00" fill="#000000">FOREIGN KEY (action_id) REFERENCES actions(id) ON DELETE CASCADE</text>
</g>
</g>
</svg>
