<?xml version="1.0" encoding="UTF-8" standalone="no"?>
<!DOCTYPE svg PUBLIC "-//W3C//DTD SVG 1.1//EN"
 "http://www.w3.org/Graphics/SVG/1.1/DTD/svg11.dtd">
<!-- Generated by graphviz version 2.40.1 (20161225.0304)
 -->
<!-- Title: public.resources Pages: 1 -->
<svg width="953pt" height="959pt"
 viewBox="0.00 0.00 953.00 959.00" xmlns="http://www.w3.org/2000/svg" xmlns:xlink="http://www.w3.org/1999/xlink">
<g id="graph0" class="graph" transform="scale(1 1) rotate(0) translate(4 955)">
<title>public.resources</title>
<polygon fill="#ffffff" stroke="transparent" points="-4,4 -4,-955 949,-955 949,4 -4,4"/>
<!-- public.resources -->
<g id="node1" class="node">
<title>public.resources</title>
<polygon fill="#efefef" stroke="transparent" points="364,-472.5 364,-507.5 637,-507.5 637,-472.5 364,-472.5"/>
<polygon fill="none" stroke="#000000" points="364,-472.5 364,-507.5 637,-507.5 637,-472.5 364,-472.5"/>
<text text-anchor="start" x="386.3639" y="-485.3" font-family="Arial Bold" font-size="18.00" fill="#000000">public.resources</text>
<text text-anchor="start" x="517.3823" y="-485.3" font-family="Arial" font-size="14.00" fill="#000000"> </text>
<text text-anchor="start" x="521.2729" y="-485.3" font-family="Arial" font-size="14.00" fill="#666666">[BASE TABLE]</text>
<polygon fill="none" stroke="#000000" points="364,-442.5 364,-472.5 637,-472.5 637,-442.5 364,-442.5"/>
<text text-anchor="start" x="371" y="-453.9" font-family="Arial" font-size="14.00" fill="#000000">id </text>
<text text-anchor="start" x="385.7798" y="-453.9" font-family="Arial" font-size="14.00" fill="#666666">[uuid]</text>
<polygon fill="none" stroke="#000000" points="364,-412.5 364,-442.5 637,-442.5 637,-412.5 364,-412.5"/>
<text text-anchor="start" x="371" y="-423.9" font-family="Arial" font-size="14.00" fill="#000000">tenant_id </text>
<text text-anchor="start" x="432.474" y="-423.9" font-family="Arial" font-size="14.00" fill="#666666">[uuid]</text>
<polygon fill="none" stroke="#000000" points="364,-382.5 364,-412.5 637,-412.5 637,-382.5 364,-382.5"/>
<text text-anchor="start" x="371" y="-393.9" font-family="Arial" font-size="14.00" fill="#000000">name </text>
<text text-anchor="start" x="409.899" y="-393.9" font-family="Arial" font-size="14.00" fill="#666666">[text]</text>
<polygon fill="none" stroke="#000000" points="364,-352.5 364,-382.5 637,-382.5 637,-352.5 364,-352.5"/>
<text text-anchor="start" x="371" y="-363.9" font-family="Arial" font-size="14.00" fill="#000000">created_at </text>
<text text-anchor="start" x="441.028" y="-363.9" font-family="Arial" font-size="14.00" fill="#666666">[timestamp without time zone]</text>
<polygon fill="none" stroke="#000000" points="364,-322.5 364,-352.5 637,-352.5 637,-322.5 364,-322.5"/>
<text text-anchor="start" x="370.9636" y="-333.9" font-family="Arial" font-size="14.00" fill="#000000">updated_at </text>
<text text-anchor="start" x="444.8962" y="-333.9" font-family="Arial" font-size="14.00" fill="#666666">[timestamp without time zone]</text>
<polygon fill="none" stroke="#000000" stroke-width="3" points="362,-321.5 362,-509.5 638,-509.5 638,-321.5 362,-321.5"/>
</g>
<!-- public.tenants -->
<g id="node4" class="node">
<title>public.tenants</title>
<polygon fill="#efefef" stroke="transparent" points="364,-162.5 364,-197.5 637,-197.5 637,-162.5 364,-162.5"/>
<polygon fill="none" stroke="#000000" points="364,-162.5 364,-197.5 637,-197.5 637,-162.5 364,-162.5"/>
<text text-anchor="start" x="396.3539" y="-175.3" font-family="Arial Bold" font-size="18.00" fill="#000000">public.tenants</text>
<text text-anchor="start" x="507.3923" y="-175.3" font-family="Arial" font-size="14.00" fill="#000000"> </text>
<text text-anchor="start" x="511.2829" y="-175.3" font-family="Arial" font-size="14.00" fill="#666666">[BASE TABLE]</text>
<polygon fill="none" stroke="#000000" points="364,-132.5 364,-162.5 637,-162.5 637,-132.5 364,-132.5"/>
<text text-anchor="start" x="371" y="-143.9" font-family="Arial" font-size="14.00" fill="#000000">id </text>
<text text-anchor="start" x="385.7798" y="-143.9" font-family="Arial" font-size="14.00" fill="#666666">[uuid]</text>
<polygon fill="none" stroke="#000000" points="364,-102.5 364,-132.5 637,-132.5 637,-102.5 364,-102.5"/>
<text text-anchor="start" x="371" y="-113.9" font-family="Arial" font-size="14.00" fill="#000000">name </text>
<text text-anchor="start" x="409.899" y="-113.9" font-family="Arial" font-size="14.00" fill="#666666">[text]</text>
<polygon fill="none" stroke="#000000" points="364,-72.5 364,-102.5 637,-102.5 637,-72.5 364,-72.5"/>
<text text-anchor="start" x="371" y="-83.9" font-family="Arial" font-size="14.00" fill="#000000">created_at </text>
<text text-anchor="start" x="441.028" y="-83.9" font-family="Arial" font-size="14.00" fill="#666666">[timestamp without time zone]</text>
<polygon fill="none" stroke="#000000" points="364,-42.5 364,-72.5 637,-72.5 637,-42.5 364,-42.5"/>
<text text-anchor="start" x="370.9636" y="-53.9" font-family="Arial" font-size="14.00" fill="#000000">updated_at </text>
<text text-anchor="start" x="444.8962" y="-53.9" font-family="Arial" font-size="14.00" fill="#666666">[timestamp without time zone]</text>
</g>
<!-- public.resources&#45;&gt;public.tenants -->
<g id="edge3" class="edge">
<title>public.resources:tenant_id&#45;&gt;public.tenants:id</title>
<path fill="none" stroke="#000000" d="M353.7265,-426.839C239.6554,-411.8652 243.0799,-147.5 364,-147.5"/>
<polygon fill="#000000" stroke="#000000" points="354.0206,-426.8578 363.711,-431.9907 359.0103,-427.1789 364,-427.5 364,-427.5 364,-427.5 359.0103,-427.1789 364.289,-423.0093 354.0206,-426.8578 354.0206,-426.8578"/>
<text text-anchor="start" x="6.7065" y="-437.5" font-family="Arial" font-size="10.00" fill="#000000">FOREIGN KEY (tenant_id) REFERENCES tenants(id) ON DELETE CASCADE</text>
</g>
<!-- public.role_permissions -->
<g id="node2" class="node">
<title>public.role_permissions</title>
<polygon fill="#efefef" stroke="transparent" points="156,-812.5 156,-847.5 455,-847.5 455,-812.5 156,-812.5"/>
<polygon fill="none" stroke="#000000" points="156,-812.5 156,-847.5 455,-847.5 455,-812.5 156,-812.5"/>
<text text-anchor="start" x="162.8672" y="-825.3" font-family="Arial Bold" font-size="18.00" fill="#000000">public.role_permissions</text>
<text text-anchor="start" x="350.879" y="-825.3" font-family="Arial" font-size="14.00" fill="#000000"> </text>
<text text-anchor="start" x="354.7696" y="-825.3" font-family="Arial" font-size="14.00" fill="#666666">[BASE TABLE]</text>
<polygon fill="none" stroke="#000000" points="156,-782.5 156,-812.5 455,-812.5 455,-782.5 156,-782.5"/>
<text text-anchor="start" x="163" y="-793.9" font-family="Arial" font-size="14.00" fill="#000000">id </text>
<text text-anchor="start" x="177.7798" y="-793.9" font-family="Arial" font-size="14.00" fill="#666666">[uuid]</text>
<polygon fill="none" stroke="#000000" points="156,-752.5 156,-782.5 455,-782.5 455,-752.5 156,-752.5"/>
<text text-anchor="start" x="163" y="-763.9" font-family="Arial" font-size="14.00" fill="#000000">role_id </text>
<text text-anchor="start" x="208.8948" y="-763.9" font-family="Arial" font-size="14.00" fill="#666666">[uuid]</text>
<polygon fill="none" stroke="#000000" points="156,-722.5 156,-752.5 455,-752.5 455,-722.5 156,-722.5"/>
<text text-anchor="start" x="163" y="-733.9" font-family="Arial" font-size="14.00" fill="#000000">resource_id </text>
<text text-anchor="start" x="240.014" y="-733.9" font-family="Arial" font-size="14.00" fill="#666666">[uuid]</text>
<polygon fill="none" stroke="#000000" points="156,-692.5 156,-722.5 455,-722.5 455,-692.5 156,-692.5"/>
<text text-anchor="start" x="163" y="-703.9" font-family="Arial" font-size="14.00" fill="#000000">action_id </text>
<text text-anchor="start" x="222.9074" y="-703.9" font-family="Arial" font-size="14.00" fill="#666666">[uuid]</text>
</g>
<!-- public.role_permissions&#45;&gt;public.resources -->
<g id="edge1" class="edge">
<title>public.role_permissions:resource_id&#45;&gt;public.resources:id</title>
<path fill="none" stroke="#000000" d="M464.9647,-735.98C489.0188,-727.2216 467.938,-682.4555 455,-650 433.2302,-595.3898 385.7698,-608.6102 364,-554 348.1182,-514.16 321.1111,-457.5 364,-457.5"/>
<polygon fill="#000000" stroke="#000000" points="464.8857,-735.992 454.3214,-733.0515 459.9428,-736.746 455,-737.5 455,-737.5 455,-737.5 459.9428,-736.746 455.6786,-741.9485 464.8857,-735.992 464.8857,-735.992"/>
<text text-anchor="start" x="75.6065" y="-747.5" font-family="Arial" font-size="10.00" fill="#000000">FOREIGN KEY (resource_id) REFERENCES resources(id) ON DELETE CASCADE</text>
</g>
<!-- public.abac_policies -->
<g id="node3" class="node">
<title>public.abac_policies</title>
<polygon fill="#efefef" stroke="transparent" points="559,-872.5 559,-907.5 832,-907.5 832,-872.5 559,-872.5"/>
<polygon fill="none" stroke="#000000" points="559,-872.5 559,-907.5 832,-907.5 832,-872.5 559,-872.5"/>
<text text-anchor="start" x="566.3555" y="-885.3" font-family="Arial Bold" font-size="18.00" fill="#000000">public.abac_policies</text>
<text text-anchor="start" x="727.3907" y="-885.3" font-family="Arial" font-size="14.00" fill="#000000"> </text>
<text text-anchor="start" x="731.2813" y="-885.3" font-family="Arial" font-size="14.00" fill="#666666">[BASE TABLE]</text>
<polygon fill="none" stroke="#000000" points="559,-842.5 559,-872.5 832,-872.5 832,-842.5 559,-842.5"/>
<text text-anchor="start" x="566" y="-853.9" font-family="Arial" font-size="14.00" fill="#000000">id </text>
<text text-anchor="start" x="580.7798" y="-853.9" font-family="Arial" font-size="14.00" fill="#666666">[uuid]</text>
<polygon fill="none" stroke="#000000" points="559,-812.5 559,-842.5 832,-842.5 832,-812.5 559,-812.5"/>
<text text-anchor="start" x="566" y="-823.9" font-family="Arial" font-size="14.00" fill="#000000">tenant_id </text>
<text text-anchor="start" x="627.474" y="-823.9" font-family="Arial" font-size="14.00" fill="#666666">[uuid]</text>
<polygon fill="none" stroke="#000000" points="559,-782.5 559,-812.5 832,-812.5 832,-782.5 559,-782.5"/>
<text text-anchor="start" x="566" y="-793.9" font-family="Arial" font-size="14.00" fill="#000000">resource_id </text>
<text text-anchor="start" x="643.014" y="-793.9" font-family="Arial" font-size="14.00" fill="#666666">[uuid]</text>
<polygon fill="none" stroke="#000000" points="559,-752.5 559,-782.5 832,-782.5 832,-752.5 559,-752.5"/>
<text text-anchor="start" x="566" y="-763.9" font-family="Arial" font-size="14.00" fill="#000000">action_id </text>
<text text-anchor="start" x="625.9074" y="-763.9" font-family="Arial" font-size="14.00" fill="#666666">[uuid]</text>
<polygon fill="none" stroke="#000000" points="559,-722.5 559,-752.5 832,-752.5 832,-722.5 559,-722.5"/>
<text text-anchor="start" x="566" y="-733.9" font-family="Arial" font-size="14.00" fill="#000000">attribute_id </text>
<text text-anchor="start" x="639.1318" y="-733.9" font-family="Arial" font-size="14.00" fill="#666666">[uuid]</text>
<polygon fill="none" stroke="#000000" points="559,-692.5 559,-722.5 832,-722.5 832,-692.5 559,-692.5"/>
<text text-anchor="start" x="566" y="-703.9" font-family="Arial" font-size="14.00" fill="#000000">condition </text>
<text text-anchor="start" x="625.9074" y="-703.9" font-family="Arial" font-size="14.00" fill="#666666">[jsonb]</text>
<polygon fill="none" stroke="#000000" points="559,-662.5 559,-692.5 832,-692.5 832,-662.5 559,-662.5"/>
<text text-anchor="start" x="566" y="-673.9" font-family="Arial" font-size="14.00" fill="#000000">created_at </text>
<text text-anchor="start" x="636.028" y="-673.9" font-family="Arial" font-size="14.00" fill="#666666">[timestamp without time zone]</text>
<polygon fill="none" stroke="#000000" points="559,-632.5 559,-662.5 832,-662.5 832,-632.5 559,-632.5"/>
<text text-anchor="start" x="565.9636" y="-643.9" font-family="Arial" font-size="14.00" fill="#000000">updated_at </text>
<text text-anchor="start" x="639.8962" y="-643.9" font-family="Arial" font-size="14.00" fill="#666666">[timestamp without time zone]</text>
</g>
<!-- public.abac_policies&#45;&gt;public.resources -->
<g id="edge2" class="edge">
<title>public.abac_policies:resource_id&#45;&gt;public.resources:id</title>
<path fill="none" stroke="#000000" d="M549.3959,-794.5541C516.2326,-771.9394 536.0898,-625.8066 559,-590 579.5777,-557.8389 616.4223,-586.1611 637,-554 660.1151,-517.8732 679.8889,-457.5 637,-457.5"/>
<polygon fill="#000000" stroke="#000000" points="549.4396,-794.5674 557.6803,-801.8022 554.2198,-796.0337 559,-797.5 559,-797.5 559,-797.5 554.2198,-796.0337 560.3197,-793.1978 549.4396,-794.5674 549.4396,-794.5674"/>
<text text-anchor="start" x="565.6065" y="-807.5" font-family="Arial" font-size="10.00" fill="#000000">FOREIGN KEY (resource_id) REFERENCES resources(id) ON DELETE CASCADE</text>
</g>
</g>
</svg>
