<?xml version="1.0" encoding="UTF-8" standalone="no"?>
<!DOCTYPE svg PUBLIC "-//W3C//DTD SVG 1.1//EN"
 "http://www.w3.org/Graphics/SVG/1.1/DTD/svg11.dtd">
<!-- Generated by graphviz version 2.40.1 (20161225.0304)
 -->
<!-- Title: public.departments Pages: 1 -->
<svg width="737pt" height="959pt"
 viewBox="0.00 0.00 736.50 959.00" xmlns="http://www.w3.org/2000/svg" xmlns:xlink="http://www.w3.org/1999/xlink">
<g id="graph0" class="graph" transform="scale(1 1) rotate(0) translate(4 955)">
<title>public.departments</title>
<polygon fill="#ffffff" stroke="transparent" points="-4,4 -4,-955 732.5,-955 732.5,4 -4,4"/>
<!-- public.departments -->
<g id="node1" class="node">
<title>public.departments</title>
<polygon fill="#efefef" stroke="transparent" points="410,-472.5 410,-507.5 683,-507.5 683,-472.5 410,-472.5"/>
<polygon fill="none" stroke="#000000" points="410,-472.5 410,-507.5 683,-507.5 683,-472.5 410,-472.5"/>
<text text-anchor="start" x="421.8555" y="-485.3" font-family="Arial Bold" font-size="18.00" fill="#000000">public.departments</text>
<text text-anchor="start" x="573.8907" y="-485.3" font-family="Arial" font-size="14.00" fill="#000000"> </text>
<text text-anchor="start" x="577.7813" y="-485.3" font-family="Arial" font-size="14.00" fill="#666666">[BASE TABLE]</text>
<polygon fill="none" stroke="#000000" points="410,-442.5 410,-472.5 683,-472.5 683,-442.5 410,-442.5"/>
<text text-anchor="start" x="417" y="-453.9" font-family="Arial" font-size="14.00" fill="#000000">id </text>
<text text-anchor="start" x="431.7798" y="-453.9" font-family="Arial" font-size="14.00" fill="#666666">[uuid]</text>
<polygon fill="none" stroke="#000000" points="410,-412.5 410,-442.5 683,-442.5 683,-412.5 410,-412.5"/>
<text text-anchor="start" x="417" y="-423.9" font-family="Arial" font-size="14.00" fill="#000000">tenant_id </text>
<text text-anchor="start" x="478.474" y="-423.9" font-family="Arial" font-size="14.00" fill="#666666">[uuid]</text>
<polygon fill="none" stroke="#000000" points="410,-382.5 410,-412.5 683,-412.5 683,-382.5 410,-382.5"/>
<text text-anchor="start" x="417" y="-393.9" font-family="Arial" font-size="14.00" fill="#000000">name </text>
<text text-anchor="start" x="455.899" y="-393.9" font-family="Arial" font-size="14.00" fill="#666666">[text]</text>
<polygon fill="none" stroke="#000000" points="410,-352.5 410,-382.5 683,-382.5 683,-352.5 410,-352.5"/>
<text text-anchor="start" x="417" y="-363.9" font-family="Arial" font-size="14.00" fill="#000000">created_at </text>
<text text-anchor="start" x="487.028" y="-363.9" font-family="Arial" font-size="14.00" fill="#666666">[timestamp without time zone]</text>
<polygon fill="none" stroke="#000000" points="410,-322.5 410,-352.5 683,-352.5 683,-322.5 410,-322.5"/>
<text text-anchor="start" x="416.9636" y="-333.9" font-family="Arial" font-size="14.00" fill="#000000">updated_at </text>
<text text-anchor="start" x="490.8962" y="-333.9" font-family="Arial" font-size="14.00" fill="#666666">[timestamp without time zone]</text>
<polygon fill="none" stroke="#000000" stroke-width="3" points="408,-321.5 408,-509.5 684,-509.5 684,-321.5 408,-321.5"/>
</g>
<!-- public.tenants -->
<g id="node3" class="node">
<title>public.tenants</title>
<polygon fill="#efefef" stroke="transparent" points="410,-162.5 410,-197.5 683,-197.5 683,-162.5 410,-162.5"/>
<polygon fill="none" stroke="#000000" points="410,-162.5 410,-197.5 683,-197.5 683,-162.5 410,-162.5"/>
<text text-anchor="start" x="442.3539" y="-175.3" font-family="Arial Bold" font-size="18.00" fill="#000000">public.tenants</text>
<text text-anchor="start" x="553.3923" y="-175.3" font-family="Arial" font-size="14.00" fill="#000000"> </text>
<text text-anchor="start" x="557.2829" y="-175.3" font-family="Arial" font-size="14.00" fill="#666666">[BASE TABLE]</text>
<polygon fill="none" stroke="#000000" points="410,-132.5 410,-162.5 683,-162.5 683,-132.5 410,-132.5"/>
<text text-anchor="start" x="417" y="-143.9" font-family="Arial" font-size="14.00" fill="#000000">id </text>
<text text-anchor="start" x="431.7798" y="-143.9" font-family="Arial" font-size="14.00" fill="#666666">[uuid]</text>
<polygon fill="none" stroke="#000000" points="410,-102.5 410,-132.5 683,-132.5 683,-102.5 410,-102.5"/>
<text text-anchor="start" x="417" y="-113.9" font-family="Arial" font-size="14.00" fill="#000000">name </text>
<text text-anchor="start" x="455.899" y="-113.9" font-family="Arial" font-size="14.00" fill="#666666">[text]</text>
<polygon fill="none" stroke="#000000" points="410,-72.5 410,-102.5 683,-102.5 683,-72.5 410,-72.5"/>
<text text-anchor="start" x="417" y="-83.9" font-family="Arial" font-size="14.00" fill="#000000">created_at </text>
<text text-anchor="start" x="487.028" y="-83.9" font-family="Arial" font-size="14.00" fill="#666666">[timestamp without time zone]</text>
<polygon fill="none" stroke="#000000" points="410,-42.5 410,-72.5 683,-72.5 683,-42.5 410,-42.5"/>
<text text-anchor="start" x="416.9636" y="-53.9" font-family="Arial" font-size="14.00" fill="#000000">updated_at </text>
<text text-anchor="start" x="490.8962" y="-53.9" font-family="Arial" font-size="14.00" fill="#666666">[timestamp without time zone]</text>
</g>
<!-- public.departments&#45;&gt;public.tenants -->
<g id="edge2" class="edge">
<title>public.departments:tenant_id&#45;&gt;public.tenants:id</title>
<path fill="none" stroke="#000000" d="M400.0259,-424.9069C347.9774,-396.6795 351.3021,-147.5 410,-147.5"/>
<polygon fill="#000000" stroke="#000000" points="400.3217,-424.9837 408.8677,-431.8552 405.1609,-426.2419 410,-427.5 410,-427.5 410,-427.5 405.1609,-426.2419 411.1323,-423.1448 400.3217,-424.9837 400.3217,-424.9837"/>
<text text-anchor="start" x="52.7065" y="-437.5" font-family="Arial" font-size="10.00" fill="#000000">FOREIGN KEY (tenant_id) REFERENCES tenants(id) ON DELETE CASCADE</text>
</g>
<!-- public.users -->
<g id="node2" class="node">
<title>public.users</title>
<polygon fill="#efefef" stroke="transparent" points="410,-872.5 410,-907.5 683,-907.5 683,-872.5 410,-872.5"/>
<polygon fill="none" stroke="#000000" points="410,-872.5 410,-907.5 683,-907.5 683,-872.5 410,-872.5"/>
<text text-anchor="start" x="449.8662" y="-885.3" font-family="Arial Bold" font-size="18.00" fill="#000000">public.users</text>
<text text-anchor="start" x="545.88" y="-885.3" font-family="Arial" font-size="14.00" fill="#000000"> </text>
<text text-anchor="start" x="549.7706" y="-885.3" font-family="Arial" font-size="14.00" fill="#666666">[BASE TABLE]</text>
<polygon fill="none" stroke="#000000" points="410,-842.5 410,-872.5 683,-872.5 683,-842.5 410,-842.5"/>
<text text-anchor="start" x="417" y="-853.9" font-family="Arial" font-size="14.00" fill="#000000">id </text>
<text text-anchor="start" x="431.7798" y="-853.9" font-family="Arial" font-size="14.00" fill="#666666">[uuid]</text>
<polygon fill="none" stroke="#000000" points="410,-812.5 410,-842.5 683,-842.5 683,-812.5 410,-812.5"/>
<text text-anchor="start" x="417" y="-823.9" font-family="Arial" font-size="14.00" fill="#000000">tenant_id </text>
<text text-anchor="start" x="478.474" y="-823.9" font-family="Arial" font-size="14.00" fill="#666666">[uuid]</text>
<polygon fill="none" stroke="#000000" points="410,-782.5 410,-812.5 683,-812.5 683,-782.5 410,-782.5"/>
<text text-anchor="start" x="417" y="-793.9" font-family="Arial" font-size="14.00" fill="#000000">department_id </text>
<text text-anchor="start" x="510.3604" y="-793.9" font-family="Arial" font-size="14.00" fill="#666666">[uuid]</text>
<polygon fill="none" stroke="#000000" points="410,-752.5 410,-782.5 683,-782.5 683,-752.5 410,-752.5"/>
<text text-anchor="start" x="417" y="-763.9" font-family="Arial" font-size="14.00" fill="#000000">employment_type_id </text>
<text text-anchor="start" x="550.0322" y="-763.9" font-family="Arial" font-size="14.00" fill="#666666">[uuid]</text>
<polygon fill="none" stroke="#000000" points="410,-722.5 410,-752.5 683,-752.5 683,-722.5 410,-722.5"/>
<text text-anchor="start" x="417" y="-733.9" font-family="Arial" font-size="14.00" fill="#000000">name </text>
<text text-anchor="start" x="455.899" y="-733.9" font-family="Arial" font-size="14.00" fill="#666666">[text]</text>
<polygon fill="none" stroke="#000000" points="410,-692.5 410,-722.5 683,-722.5 683,-692.5 410,-692.5"/>
<text text-anchor="start" x="417" y="-703.9" font-family="Arial" font-size="14.00" fill="#000000">email </text>
<text text-anchor="start" x="454.3296" y="-703.9" font-family="Arial" font-size="14.00" fill="#666666">[text]</text>
<polygon fill="none" stroke="#000000" points="410,-662.5 410,-692.5 683,-692.5 683,-662.5 410,-662.5"/>
<text text-anchor="start" x="417" y="-673.9" font-family="Arial" font-size="14.00" fill="#000000">created_at </text>
<text text-anchor="start" x="487.028" y="-673.9" font-family="Arial" font-size="14.00" fill="#666666">[timestamp without time zone]</text>
<polygon fill="none" stroke="#000000" points="410,-632.5 410,-662.5 683,-662.5 683,-632.5 410,-632.5"/>
<text text-anchor="start" x="416.9636" y="-643.9" font-family="Arial" font-size="14.00" fill="#000000">updated_at </text>
<text text-anchor="start" x="490.8962" y="-643.9" font-family="Arial" font-size="14.00" fill="#666666">[timestamp without time zone]</text>
</g>
<!-- public.users&#45;&gt;public.departments -->
<g id="edge1" class="edge">
<title>public.users:department_id&#45;&gt;public.departments:id</title>
<path fill="none" stroke="#000000" d="M399.873,-795.3288C334.6105,-766.3721 337.9861,-457.5 410,-457.5"/>
<polygon fill="#000000" stroke="#000000" points="400.2222,-795.4036 409.0566,-801.9 405.1111,-796.4518 410,-797.5 410,-797.5 410,-797.5 405.1111,-796.4518 410.9434,-793.1 400.2222,-795.4036 400.2222,-795.4036"/>
<text text-anchor="start" x="6.9305" y="-807.5" font-family="Arial" font-size="10.00" fill="#000000">FOREIGN KEY (department_id) REFERENCES departments(id) ON DELETE CASCADE</text>
</g>
</g>
</svg>
