<?xml version="1.0" encoding="UTF-8" standalone="no"?>
<!DOCTYPE svg PUBLIC "-//W3C//DTD SVG 1.1//EN"
 "http://www.w3.org/Graphics/SVG/1.1/DTD/svg11.dtd">
<!-- Generated by graphviz version 2.40.1 (20161225.0304)
 -->
<!-- Title: public.attributes Pages: 1 -->
<svg width="708pt" height="959pt"
 viewBox="0.00 0.00 707.50 959.00" xmlns="http://www.w3.org/2000/svg" xmlns:xlink="http://www.w3.org/1999/xlink">
<g id="graph0" class="graph" transform="scale(1 1) rotate(0) translate(4 955)">
<title>public.attributes</title>
<polygon fill="#ffffff" stroke="transparent" points="-4,4 -4,-955 703.5,-955 703.5,4 -4,4"/>
<!-- public.attributes -->
<g id="node1" class="node">
<title>public.attributes</title>
<polygon fill="#efefef" stroke="transparent" points="381,-472.5 381,-507.5 654,-507.5 654,-472.5 381,-472.5"/>
<polygon fill="none" stroke="#000000" points="381,-472.5 381,-507.5 654,-507.5 654,-472.5 381,-472.5"/>
<text text-anchor="start" x="405.8596" y="-485.3" font-family="Arial Bold" font-size="18.00" fill="#000000">public.attributes</text>
<text text-anchor="start" x="531.8866" y="-485.3" font-family="Arial" font-size="14.00" fill="#000000"> </text>
<text text-anchor="start" x="535.7772" y="-485.3" font-family="Arial" font-size="14.00" fill="#666666">[BASE TABLE]</text>
<polygon fill="none" stroke="#000000" points="381,-442.5 381,-472.5 654,-472.5 654,-442.5 381,-442.5"/>
<text text-anchor="start" x="388" y="-453.9" font-family="Arial" font-size="14.00" fill="#000000">id </text>
<text text-anchor="start" x="402.7798" y="-453.9" font-family="Arial" font-size="14.00" fill="#666666">[uuid]</text>
<polygon fill="none" stroke="#000000" points="381,-412.5 381,-442.5 654,-442.5 654,-412.5 381,-412.5"/>
<text text-anchor="start" x="388" y="-423.9" font-family="Arial" font-size="14.00" fill="#000000">tenant_id </text>
<text text-anchor="start" x="449.474" y="-423.9" font-family="Arial" font-size="14.00" fill="#666666">[uuid]</text>
<polygon fill="none" stroke="#000000" points="381,-382.5 381,-412.5 654,-412.5 654,-382.5 381,-382.5"/>
<text text-anchor="start" x="388" y="-393.9" font-family="Arial" font-size="14.00" fill="#000000">name </text>
<text text-anchor="start" x="426.899" y="-393.9" font-family="Arial" font-size="14.00" fill="#666666">[text]</text>
<polygon fill="none" stroke="#000000" points="381,-352.5 381,-382.5 654,-382.5 654,-352.5 381,-352.5"/>
<text text-anchor="start" x="388" y="-363.9" font-family="Arial" font-size="14.00" fill="#000000">created_at </text>
<text text-anchor="start" x="458.028" y="-363.9" font-family="Arial" font-size="14.00" fill="#666666">[timestamp without time zone]</text>
<polygon fill="none" stroke="#000000" points="381,-322.5 381,-352.5 654,-352.5 654,-322.5 381,-322.5"/>
<text text-anchor="start" x="387.9636" y="-333.9" font-family="Arial" font-size="14.00" fill="#000000">updated_at </text>
<text text-anchor="start" x="461.8962" y="-333.9" font-family="Arial" font-size="14.00" fill="#666666">[timestamp without time zone]</text>
<polygon fill="none" stroke="#000000" stroke-width="3" points="379,-321.5 379,-509.5 655,-509.5 655,-321.5 379,-321.5"/>
</g>
<!-- public.tenants -->
<g id="node3" class="node">
<title>public.tenants</title>
<polygon fill="#efefef" stroke="transparent" points="381,-162.5 381,-197.5 654,-197.5 654,-162.5 381,-162.5"/>
<polygon fill="none" stroke="#000000" points="381,-162.5 381,-197.5 654,-197.5 654,-162.5 381,-162.5"/>
<text text-anchor="start" x="413.3539" y="-175.3" font-family="Arial Bold" font-size="18.00" fill="#000000">public.tenants</text>
<text text-anchor="start" x="524.3923" y="-175.3" font-family="Arial" font-size="14.00" fill="#000000"> </text>
<text text-anchor="start" x="528.2829" y="-175.3" font-family="Arial" font-size="14.00" fill="#666666">[BASE TABLE]</text>
<polygon fill="none" stroke="#000000" points="381,-132.5 381,-162.5 654,-162.5 654,-132.5 381,-132.5"/>
<text text-anchor="start" x="388" y="-143.9" font-family="Arial" font-size="14.00" fill="#000000">id </text>
<text text-anchor="start" x="402.7798" y="-143.9" font-family="Arial" font-size="14.00" fill="#666666">[uuid]</text>
<polygon fill="none" stroke="#000000" points="381,-102.5 381,-132.5 654,-132.5 654,-102.5 381,-102.5"/>
<text text-anchor="start" x="388" y="-113.9" font-family="Arial" font-size="14.00" fill="#000000">name </text>
<text text-anchor="start" x="426.899" y="-113.9" font-family="Arial" font-size="14.00" fill="#666666">[text]</text>
<polygon fill="none" stroke="#000000" points="381,-72.5 381,-102.5 654,-102.5 654,-72.5 381,-72.5"/>
<text text-anchor="start" x="388" y="-83.9" font-family="Arial" font-size="14.00" fill="#000000">created_at </text>
<text text-anchor="start" x="458.028" y="-83.9" font-family="Arial" font-size="14.00" fill="#666666">[timestamp without time zone]</text>
<polygon fill="none" stroke="#000000" points="381,-42.5 381,-72.5 654,-72.5 654,-42.5 381,-42.5"/>
<text text-anchor="start" x="387.9636" y="-53.9" font-family="Arial" font-size="14.00" fill="#000000">updated_at </text>
<text text-anchor="start" x="461.8962" y="-53.9" font-family="Arial" font-size="14.00" fill="#666666">[timestamp without time zone]</text>
</g>
<!-- public.attributes&#45;&gt;public.tenants -->
<g id="edge2" class="edge">
<title>public.attributes:tenant_id&#45;&gt;public.tenants:id</title>
<path fill="none" stroke="#000000" d="M371.0259,-424.9069C318.9774,-396.6795 322.3021,-147.5 381,-147.5"/>
<polygon fill="#000000" stroke="#000000" points="371.3217,-424.9837 379.8677,-431.8552 376.1609,-426.2419 381,-427.5 381,-427.5 381,-427.5 376.1609,-426.2419 382.1323,-423.1448 371.3217,-424.9837 371.3217,-424.9837"/>
<text text-anchor="start" x="23.7065" y="-437.5" font-family="Arial" font-size="10.00" fill="#000000">FOREIGN KEY (tenant_id) REFERENCES tenants(id) ON DELETE CASCADE</text>
</g>
<!-- public.abac_policies -->
<g id="node2" class="node">
<title>public.abac_policies</title>
<polygon fill="#efefef" stroke="transparent" points="381,-872.5 381,-907.5 654,-907.5 654,-872.5 381,-872.5"/>
<polygon fill="none" stroke="#000000" points="381,-872.5 381,-907.5 654,-907.5 654,-872.5 381,-872.5"/>
<text text-anchor="start" x="388.3555" y="-885.3" font-family="Arial Bold" font-size="18.00" fill="#000000">public.abac_policies</text>
<text text-anchor="start" x="549.3907" y="-885.3" font-family="Arial" font-size="14.00" fill="#000000"> </text>
<text text-anchor="start" x="553.2813" y="-885.3" font-family="Arial" font-size="14.00" fill="#666666">[BASE TABLE]</text>
<polygon fill="none" stroke="#000000" points="381,-842.5 381,-872.5 654,-872.5 654,-842.5 381,-842.5"/>
<text text-anchor="start" x="388" y="-853.9" font-family="Arial" font-size="14.00" fill="#000000">id </text>
<text text-anchor="start" x="402.7798" y="-853.9" font-family="Arial" font-size="14.00" fill="#666666">[uuid]</text>
<polygon fill="none" stroke="#000000" points="381,-812.5 381,-842.5 654,-842.5 654,-812.5 381,-812.5"/>
<text text-anchor="start" x="388" y="-823.9" font-family="Arial" font-size="14.00" fill="#000000">tenant_id </text>
<text text-anchor="start" x="449.474" y="-823.9" font-family="Arial" font-size="14.00" fill="#666666">[uuid]</text>
<polygon fill="none" stroke="#000000" points="381,-782.5 381,-812.5 654,-812.5 654,-782.5 381,-782.5"/>
<text text-anchor="start" x="388" y="-793.9" font-family="Arial" font-size="14.00" fill="#000000">resource_id </text>
<text text-anchor="start" x="465.014" y="-793.9" font-family="Arial" font-size="14.00" fill="#666666">[uuid]</text>
<polygon fill="none" stroke="#000000" points="381,-752.5 381,-782.5 654,-782.5 654,-752.5 381,-752.5"/>
<text text-anchor="start" x="388" y="-763.9" font-family="Arial" font-size="14.00" fill="#000000">action_id </text>
<text text-anchor="start" x="447.9074" y="-763.9" font-family="Arial" font-size="14.00" fill="#666666">[uuid]</text>
<polygon fill="none" stroke="#000000" points="381,-722.5 381,-752.5 654,-752.5 654,-722.5 381,-722.5"/>
<text text-anchor="start" x="388" y="-733.9" font-family="Arial" font-size="14.00" fill="#000000">attribute_id </text>
<text text-anchor="start" x="461.1318" y="-733.9" font-family="Arial" font-size="14.00" fill="#666666">[uuid]</text>
<polygon fill="none" stroke="#000000" points="381,-692.5 381,-722.5 654,-722.5 654,-692.5 381,-692.5"/>
<text text-anchor="start" x="388" y="-703.9" font-family="Arial" font-size="14.00" fill="#000000">condition </text>
<text text-anchor="start" x="447.9074" y="-703.9" font-family="Arial" font-size="14.00" fill="#666666">[jsonb]</text>
<polygon fill="none" stroke="#000000" points="381,-662.5 381,-692.5 654,-692.5 654,-662.5 381,-662.5"/>
<text text-anchor="start" x="388" y="-673.9" font-family="Arial" font-size="14.00" fill="#000000">created_at </text>
<text text-anchor="start" x="458.028" y="-673.9" font-family="Arial" font-size="14.00" fill="#666666">[timestamp without time zone]</text>
<polygon fill="none" stroke="#000000" points="381,-632.5 381,-662.5 654,-662.5 654,-632.5 381,-632.5"/>
<text text-anchor="start" x="387.9636" y="-643.9" font-family="Arial" font-size="14.00" fill="#000000">updated_at </text>
<text text-anchor="start" x="461.8962" y="-643.9" font-family="Arial" font-size="14.00" fill="#666666">[timestamp without time zone]</text>
</g>
<!-- public.abac_policies&#45;&gt;public.attributes -->
<g id="edge1" class="edge">
<title>public.abac_policies:attribute_id&#45;&gt;public.attributes:id</title>
<path fill="none" stroke="#000000" d="M371.0259,-734.9069C318.9774,-706.6795 322.3021,-457.5 381,-457.5"/>
<polygon fill="#000000" stroke="#000000" points="371.3217,-734.9837 379.8677,-741.8552 376.1609,-736.2419 381,-737.5 381,-737.5 381,-737.5 376.1609,-736.2419 382.1323,-733.1448 371.3217,-734.9837 371.3217,-734.9837"/>
<text text-anchor="start" x="7.3795" y="-747.5" font-family="Arial" font-size="10.00" fill="#000000">FOREIGN KEY (attribute_id) REFERENCES attributes(id) ON DELETE CASCADE</text>
</g>
</g>
</svg>
