<?xml version="1.0" encoding="UTF-8" standalone="no"?>
<!DOCTYPE svg PUBLIC "-//W3C//DTD SVG 1.1//EN"
 "http://www.w3.org/Graphics/SVG/1.1/DTD/svg11.dtd">
<!-- Generated by graphviz version 2.40.1 (20161225.0304)
 -->
<!-- Title: public.tenants Pages: 1 -->
<svg width="3495pt" height="652pt"
 viewBox="0.00 0.00 3495.00 652.00" xmlns="http://www.w3.org/2000/svg" xmlns:xlink="http://www.w3.org/1999/xlink">
<g id="graph0" class="graph" transform="scale(1 1) rotate(0) translate(4 648)">
<title>public.tenants</title>
<polygon fill="#ffffff" stroke="transparent" points="-4,4 -4,-648 3491,-648 3491,4 -4,4"/>
<!-- public.tenants -->
<g id="node1" class="node">
<title>public.tenants</title>
<polygon fill="#efefef" stroke="transparent" points="1641,-165.5 1641,-200.5 1914,-200.5 1914,-165.5 1641,-165.5"/>
<polygon fill="none" stroke="#000000" points="1641,-165.5 1641,-200.5 1914,-200.5 1914,-165.5 1641,-165.5"/>
<text text-anchor="start" x="1673.3539" y="-178.3" font-family="Arial Bold" font-size="18.00" fill="#000000">public.tenants</text>
<text text-anchor="start" x="1784.3923" y="-178.3" font-family="Arial" font-size="14.00" fill="#000000"> </text>
<text text-anchor="start" x="1788.2829" y="-178.3" font-family="Arial" font-size="14.00" fill="#666666">[BASE TABLE]</text>
<polygon fill="none" stroke="#000000" points="1641,-135.5 1641,-165.5 1914,-165.5 1914,-135.5 1641,-135.5"/>
<text text-anchor="start" x="1648" y="-146.9" font-family="Arial" font-size="14.00" fill="#000000">id </text>
<text text-anchor="start" x="1662.7798" y="-146.9" font-family="Arial" font-size="14.00" fill="#666666">[uuid]</text>
<polygon fill="none" stroke="#000000" points="1641,-105.5 1641,-135.5 1914,-135.5 1914,-105.5 1641,-105.5"/>
<text text-anchor="start" x="1648" y="-116.9" font-family="Arial" font-size="14.00" fill="#000000">name </text>
<text text-anchor="start" x="1686.899" y="-116.9" font-family="Arial" font-size="14.00" fill="#666666">[text]</text>
<polygon fill="none" stroke="#000000" points="1641,-75.5 1641,-105.5 1914,-105.5 1914,-75.5 1641,-75.5"/>
<text text-anchor="start" x="1648" y="-86.9" font-family="Arial" font-size="14.00" fill="#000000">created_at </text>
<text text-anchor="start" x="1718.028" y="-86.9" font-family="Arial" font-size="14.00" fill="#666666">[timestamp without time zone]</text>
<polygon fill="none" stroke="#000000" points="1641,-45.5 1641,-75.5 1914,-75.5 1914,-45.5 1641,-45.5"/>
<text text-anchor="start" x="1647.9636" y="-56.9" font-family="Arial" font-size="14.00" fill="#000000">updated_at </text>
<text text-anchor="start" x="1721.8962" y="-56.9" font-family="Arial" font-size="14.00" fill="#666666">[timestamp without time zone]</text>
<polygon fill="none" stroke="#000000" stroke-width="3" points="1639,-44.5 1639,-202.5 1915,-202.5 1915,-44.5 1639,-44.5"/>
</g>
<!-- public.departments -->
<g id="node2" class="node">
<title>public.departments</title>
<polygon fill="#efefef" stroke="transparent" points="91,-520.5 91,-555.5 364,-555.5 364,-520.5 91,-520.5"/>
<polygon fill="none" stroke="#000000" points="91,-520.5 91,-555.5 364,-555.5 364,-520.5 91,-520.5"/>
<text text-anchor="start" x="102.8555" y="-533.3" font-family="Arial Bold" font-size="18.00" fill="#000000">public.departments</text>
<text text-anchor="start" x="254.8907" y="-533.3" font-family="Arial" font-size="14.00" fill="#000000"> </text>
<text text-anchor="start" x="258.7813" y="-533.3" font-family="Arial" font-size="14.00" fill="#666666">[BASE TABLE]</text>
<polygon fill="none" stroke="#000000" points="91,-490.5 91,-520.5 364,-520.5 364,-490.5 91,-490.5"/>
<text text-anchor="start" x="98" y="-501.9" font-family="Arial" font-size="14.00" fill="#000000">id </text>
<text text-anchor="start" x="112.7798" y="-501.9" font-family="Arial" font-size="14.00" fill="#666666">[uuid]</text>
<polygon fill="none" stroke="#000000" points="91,-460.5 91,-490.5 364,-490.5 364,-460.5 91,-460.5"/>
<text text-anchor="start" x="98" y="-471.9" font-family="Arial" font-size="14.00" fill="#000000">tenant_id </text>
<text text-anchor="start" x="159.474" y="-471.9" font-family="Arial" font-size="14.00" fill="#666666">[uuid]</text>
<polygon fill="none" stroke="#000000" points="91,-430.5 91,-460.5 364,-460.5 364,-430.5 91,-430.5"/>
<text text-anchor="start" x="98" y="-441.9" font-family="Arial" font-size="14.00" fill="#000000">name </text>
<text text-anchor="start" x="136.899" y="-441.9" font-family="Arial" font-size="14.00" fill="#666666">[text]</text>
<polygon fill="none" stroke="#000000" points="91,-400.5 91,-430.5 364,-430.5 364,-400.5 91,-400.5"/>
<text text-anchor="start" x="98" y="-411.9" font-family="Arial" font-size="14.00" fill="#000000">created_at </text>
<text text-anchor="start" x="168.028" y="-411.9" font-family="Arial" font-size="14.00" fill="#666666">[timestamp without time zone]</text>
<polygon fill="none" stroke="#000000" points="91,-370.5 91,-400.5 364,-400.5 364,-370.5 91,-370.5"/>
<text text-anchor="start" x="97.9636" y="-381.9" font-family="Arial" font-size="14.00" fill="#000000">updated_at </text>
<text text-anchor="start" x="171.8962" y="-381.9" font-family="Arial" font-size="14.00" fill="#666666">[timestamp without time zone]</text>
</g>
<!-- public.departments&#45;&gt;public.tenants -->
<g id="edge1" class="edge">
<title>public.departments:tenant_id&#45;&gt;public.tenants:id</title>
<path fill="none" stroke="#000000" d="M374.386,-474.7696C444.0025,-464.0488 351.5341,-338.1143 416,-283 520.0593,-194.0357 1504.095,-150.5 1641,-150.5"/>
<polygon fill="#000000" stroke="#000000" points="373.9754,-474.7984 363.6843,-471.0111 368.9877,-475.1492 364,-475.5 364,-475.5 364,-475.5 368.9877,-475.1492 364.3157,-479.9889 373.9754,-474.7984 373.9754,-474.7984"/>
<text text-anchor="start" x="6.7065" y="-485.5" font-family="Arial" font-size="10.00" fill="#000000">FOREIGN KEY (tenant_id) REFERENCES tenants(id) ON DELETE CASCADE</text>
</g>
<!-- public.employment_types -->
<g id="node3" class="node">
<title>public.employment_types</title>
<polygon fill="#efefef" stroke="transparent" points="468,-520.5 468,-555.5 782,-555.5 782,-520.5 468,-520.5"/>
<polygon fill="none" stroke="#000000" points="468,-520.5 468,-555.5 782,-555.5 782,-520.5 468,-520.5"/>
<text text-anchor="start" x="474.8522" y="-533.3" font-family="Arial Bold" font-size="18.00" fill="#000000">public.employment_types</text>
<text text-anchor="start" x="677.894" y="-533.3" font-family="Arial" font-size="14.00" fill="#000000"> </text>
<text text-anchor="start" x="681.7846" y="-533.3" font-family="Arial" font-size="14.00" fill="#666666">[BASE TABLE]</text>
<polygon fill="none" stroke="#000000" points="468,-490.5 468,-520.5 782,-520.5 782,-490.5 468,-490.5"/>
<text text-anchor="start" x="475" y="-501.9" font-family="Arial" font-size="14.00" fill="#000000">id </text>
<text text-anchor="start" x="489.7798" y="-501.9" font-family="Arial" font-size="14.00" fill="#666666">[uuid]</text>
<polygon fill="none" stroke="#000000" points="468,-460.5 468,-490.5 782,-490.5 782,-460.5 468,-460.5"/>
<text text-anchor="start" x="475" y="-471.9" font-family="Arial" font-size="14.00" fill="#000000">tenant_id </text>
<text text-anchor="start" x="536.474" y="-471.9" font-family="Arial" font-size="14.00" fill="#666666">[uuid]</text>
<polygon fill="none" stroke="#000000" points="468,-430.5 468,-460.5 782,-460.5 782,-430.5 468,-430.5"/>
<text text-anchor="start" x="475" y="-441.9" font-family="Arial" font-size="14.00" fill="#000000">name </text>
<text text-anchor="start" x="513.899" y="-441.9" font-family="Arial" font-size="14.00" fill="#666666">[text]</text>
<polygon fill="none" stroke="#000000" points="468,-400.5 468,-430.5 782,-430.5 782,-400.5 468,-400.5"/>
<text text-anchor="start" x="475" y="-411.9" font-family="Arial" font-size="14.00" fill="#000000">created_at </text>
<text text-anchor="start" x="545.028" y="-411.9" font-family="Arial" font-size="14.00" fill="#666666">[timestamp without time zone]</text>
<polygon fill="none" stroke="#000000" points="468,-370.5 468,-400.5 782,-400.5 782,-370.5 468,-370.5"/>
<text text-anchor="start" x="475" y="-381.9" font-family="Arial" font-size="14.00" fill="#000000">updated_at </text>
<text text-anchor="start" x="548.9326" y="-381.9" font-family="Arial" font-size="14.00" fill="#666666">[timestamp without time zone]</text>
</g>
<!-- public.employment_types&#45;&gt;public.tenants -->
<g id="edge2" class="edge">
<title>public.employment_types:tenant_id&#45;&gt;public.tenants:id</title>
<path fill="none" stroke="#000000" d="M792.3945,-474.7793C862.1348,-464.1994 771.0737,-339.8658 834,-283 968.8345,-161.1514 1459.2655,-150.5 1641,-150.5"/>
<polygon fill="#000000" stroke="#000000" points="791.976,-474.8082 781.6887,-471.0108 786.988,-475.1541 782,-475.5 782,-475.5 782,-475.5 786.988,-475.1541 782.3113,-479.9892 791.976,-474.8082 791.976,-474.8082"/>
<text text-anchor="start" x="606.7065" y="-459.5" font-family="Arial" font-size="10.00" fill="#000000">FOREIGN KEY (tenant_id) REFERENCES tenants(id) ON DELETE CASCADE</text>
</g>
<!-- public.resources -->
<g id="node4" class="node">
<title>public.resources</title>
<polygon fill="#efefef" stroke="transparent" points="887,-520.5 887,-555.5 1160,-555.5 1160,-520.5 887,-520.5"/>
<polygon fill="none" stroke="#000000" points="887,-520.5 887,-555.5 1160,-555.5 1160,-520.5 887,-520.5"/>
<text text-anchor="start" x="909.3639" y="-533.3" font-family="Arial Bold" font-size="18.00" fill="#000000">public.resources</text>
<text text-anchor="start" x="1040.3823" y="-533.3" font-family="Arial" font-size="14.00" fill="#000000"> </text>
<text text-anchor="start" x="1044.2729" y="-533.3" font-family="Arial" font-size="14.00" fill="#666666">[BASE TABLE]</text>
<polygon fill="none" stroke="#000000" points="887,-490.5 887,-520.5 1160,-520.5 1160,-490.5 887,-490.5"/>
<text text-anchor="start" x="894" y="-501.9" font-family="Arial" font-size="14.00" fill="#000000">id </text>
<text text-anchor="start" x="908.7798" y="-501.9" font-family="Arial" font-size="14.00" fill="#666666">[uuid]</text>
<polygon fill="none" stroke="#000000" points="887,-460.5 887,-490.5 1160,-490.5 1160,-460.5 887,-460.5"/>
<text text-anchor="start" x="894" y="-471.9" font-family="Arial" font-size="14.00" fill="#000000">tenant_id </text>
<text text-anchor="start" x="955.474" y="-471.9" font-family="Arial" font-size="14.00" fill="#666666">[uuid]</text>
<polygon fill="none" stroke="#000000" points="887,-430.5 887,-460.5 1160,-460.5 1160,-430.5 887,-430.5"/>
<text text-anchor="start" x="894" y="-441.9" font-family="Arial" font-size="14.00" fill="#000000">name </text>
<text text-anchor="start" x="932.899" y="-441.9" font-family="Arial" font-size="14.00" fill="#666666">[text]</text>
<polygon fill="none" stroke="#000000" points="887,-400.5 887,-430.5 1160,-430.5 1160,-400.5 887,-400.5"/>
<text text-anchor="start" x="894" y="-411.9" font-family="Arial" font-size="14.00" fill="#000000">created_at </text>
<text text-anchor="start" x="964.028" y="-411.9" font-family="Arial" font-size="14.00" fill="#666666">[timestamp without time zone]</text>
<polygon fill="none" stroke="#000000" points="887,-370.5 887,-400.5 1160,-400.5 1160,-370.5 887,-370.5"/>
<text text-anchor="start" x="893.9636" y="-381.9" font-family="Arial" font-size="14.00" fill="#000000">updated_at </text>
<text text-anchor="start" x="967.8962" y="-381.9" font-family="Arial" font-size="14.00" fill="#666666">[timestamp without time zone]</text>
</g>
<!-- public.resources&#45;&gt;public.tenants -->
<g id="edge3" class="edge">
<title>public.resources:tenant_id&#45;&gt;public.tenants:id</title>
<path fill="none" stroke="#000000" d="M1170.3991,-474.8026C1240.3098,-464.5614 1152.3125,-344.0785 1211,-283 1280.2777,-210.8998 1541.0108,-150.5 1641,-150.5"/>
<polygon fill="#000000" stroke="#000000" points="1169.9776,-474.8308 1159.6989,-471.0101 1164.9888,-475.1654 1160,-475.5 1160,-475.5 1160,-475.5 1164.9888,-475.1654 1160.3011,-479.9899 1169.9776,-474.8308 1169.9776,-474.8308"/>
<text text-anchor="start" x="984.7065" y="-459.5" font-family="Arial" font-size="10.00" fill="#000000">FOREIGN KEY (tenant_id) REFERENCES tenants(id) ON DELETE CASCADE</text>
</g>
<!-- public.roles -->
<g id="node5" class="node">
<title>public.roles</title>
<polygon fill="#efefef" stroke="transparent" points="1264,-520.5 1264,-555.5 1537,-555.5 1537,-520.5 1264,-520.5"/>
<polygon fill="none" stroke="#000000" points="1264,-520.5 1264,-555.5 1537,-555.5 1537,-520.5 1264,-520.5"/>
<text text-anchor="start" x="1306.3691" y="-533.3" font-family="Arial Bold" font-size="18.00" fill="#000000">public.roles</text>
<text text-anchor="start" x="1397.3771" y="-533.3" font-family="Arial" font-size="14.00" fill="#000000"> </text>
<text text-anchor="start" x="1401.2677" y="-533.3" font-family="Arial" font-size="14.00" fill="#666666">[BASE TABLE]</text>
<polygon fill="none" stroke="#000000" points="1264,-490.5 1264,-520.5 1537,-520.5 1537,-490.5 1264,-490.5"/>
<text text-anchor="start" x="1271" y="-501.9" font-family="Arial" font-size="14.00" fill="#000000">id </text>
<text text-anchor="start" x="1285.7798" y="-501.9" font-family="Arial" font-size="14.00" fill="#666666">[uuid]</text>
<polygon fill="none" stroke="#000000" points="1264,-460.5 1264,-490.5 1537,-490.5 1537,-460.5 1264,-460.5"/>
<text text-anchor="start" x="1271" y="-471.9" font-family="Arial" font-size="14.00" fill="#000000">tenant_id </text>
<text text-anchor="start" x="1332.474" y="-471.9" font-family="Arial" font-size="14.00" fill="#666666">[uuid]</text>
<polygon fill="none" stroke="#000000" points="1264,-430.5 1264,-460.5 1537,-460.5 1537,-430.5 1264,-430.5"/>
<text text-anchor="start" x="1271" y="-441.9" font-family="Arial" font-size="14.00" fill="#000000">name </text>
<text text-anchor="start" x="1309.899" y="-441.9" font-family="Arial" font-size="14.00" fill="#666666">[text]</text>
<polygon fill="none" stroke="#000000" points="1264,-400.5 1264,-430.5 1537,-430.5 1537,-400.5 1264,-400.5"/>
<text text-anchor="start" x="1271" y="-411.9" font-family="Arial" font-size="14.00" fill="#000000">created_at </text>
<text text-anchor="start" x="1341.028" y="-411.9" font-family="Arial" font-size="14.00" fill="#666666">[timestamp without time zone]</text>
<polygon fill="none" stroke="#000000" points="1264,-370.5 1264,-400.5 1537,-400.5 1537,-370.5 1264,-370.5"/>
<text text-anchor="start" x="1270.9636" y="-381.9" font-family="Arial" font-size="14.00" fill="#000000">updated_at </text>
<text text-anchor="start" x="1344.8962" y="-381.9" font-family="Arial" font-size="14.00" fill="#666666">[timestamp without time zone]</text>
</g>
<!-- public.roles&#45;&gt;public.tenants -->
<g id="edge4" class="edge">
<title>public.roles:tenant_id&#45;&gt;public.tenants:id</title>
<path fill="none" stroke="#000000" d="M1547.1312,-474.9617C1620.3051,-466.6425 1561.321,-363.5751 1588,-283 1607.9362,-222.7894 1577.5747,-150.5 1641,-150.5"/>
<polygon fill="#000000" stroke="#000000" points="1546.9859,-474.9693 1536.7612,-471.0063 1541.993,-475.2347 1537,-475.5 1537,-475.5 1537,-475.5 1541.993,-475.2347 1537.2388,-479.9937 1546.9859,-474.9693 1546.9859,-474.9693"/>
<text text-anchor="start" x="1543.7065" y="-485.5" font-family="Arial" font-size="10.00" fill="#000000">FOREIGN KEY (tenant_id) REFERENCES tenants(id) ON DELETE CASCADE</text>
</g>
<!-- public.attributes -->
<g id="node6" class="node">
<title>public.attributes</title>
<polygon fill="#efefef" stroke="transparent" points="1641,-520.5 1641,-555.5 1914,-555.5 1914,-520.5 1641,-520.5"/>
<polygon fill="none" stroke="#000000" points="1641,-520.5 1641,-555.5 1914,-555.5 1914,-520.5 1641,-520.5"/>
<text text-anchor="start" x="1665.8596" y="-533.3" font-family="Arial Bold" font-size="18.00" fill="#000000">public.attributes</text>
<text text-anchor="start" x="1791.8866" y="-533.3" font-family="Arial" font-size="14.00" fill="#000000"> </text>
<text text-anchor="start" x="1795.7772" y="-533.3" font-family="Arial" font-size="14.00" fill="#666666">[BASE TABLE]</text>
<polygon fill="none" stroke="#000000" points="1641,-490.5 1641,-520.5 1914,-520.5 1914,-490.5 1641,-490.5"/>
<text text-anchor="start" x="1648" y="-501.9" font-family="Arial" font-size="14.00" fill="#000000">id </text>
<text text-anchor="start" x="1662.7798" y="-501.9" font-family="Arial" font-size="14.00" fill="#666666">[uuid]</text>
<polygon fill="none" stroke="#000000" points="1641,-460.5 1641,-490.5 1914,-490.5 1914,-460.5 1641,-460.5"/>
<text text-anchor="start" x="1648" y="-471.9" font-family="Arial" font-size="14.00" fill="#000000">tenant_id </text>
<text text-anchor="start" x="1709.474" y="-471.9" font-family="Arial" font-size="14.00" fill="#666666">[uuid]</text>
<polygon fill="none" stroke="#000000" points="1641,-430.5 1641,-460.5 1914,-460.5 1914,-430.5 1641,-430.5"/>
<text text-anchor="start" x="1648" y="-441.9" font-family="Arial" font-size="14.00" fill="#000000">name </text>
<text text-anchor="start" x="1686.899" y="-441.9" font-family="Arial" font-size="14.00" fill="#666666">[text]</text>
<polygon fill="none" stroke="#000000" points="1641,-400.5 1641,-430.5 1914,-430.5 1914,-400.5 1641,-400.5"/>
<text text-anchor="start" x="1648" y="-411.9" font-family="Arial" font-size="14.00" fill="#000000">created_at </text>
<text text-anchor="start" x="1718.028" y="-411.9" font-family="Arial" font-size="14.00" fill="#666666">[timestamp without time zone]</text>
<polygon fill="none" stroke="#000000" points="1641,-370.5 1641,-400.5 1914,-400.5 1914,-370.5 1641,-370.5"/>
<text text-anchor="start" x="1647.9636" y="-381.9" font-family="Arial" font-size="14.00" fill="#000000">updated_at </text>
<text text-anchor="start" x="1721.8962" y="-381.9" font-family="Arial" font-size="14.00" fill="#666666">[timestamp without time zone]</text>
</g>
<!-- public.attributes&#45;&gt;public.tenants -->
<g id="edge5" class="edge">
<title>public.attributes:tenant_id&#45;&gt;public.tenants:id</title>
<path fill="none" stroke="#000000" d="M1632.8423,-469.2979C1605.1319,-424.3667 1607.8511,-150.5 1641,-150.5"/>
<polygon fill="#000000" stroke="#000000" points="1633.0394,-469.4478 1638.2765,-479.0823 1637.0197,-472.4739 1641,-475.5 1641,-475.5 1641,-475.5 1637.0197,-472.4739 1643.7235,-471.9177 1633.0394,-469.4478 1633.0394,-469.4478"/>
<text text-anchor="start" x="1374.7065" y="-459.5" font-family="Arial" font-size="10.00" fill="#000000">FOREIGN KEY (tenant_id) REFERENCES tenants(id) ON DELETE CASCADE</text>
</g>
<!-- public.users -->
<g id="node7" class="node">
<title>public.users</title>
<polygon fill="#efefef" stroke="transparent" points="2018,-565.5 2018,-600.5 2291,-600.5 2291,-565.5 2018,-565.5"/>
<polygon fill="none" stroke="#000000" points="2018,-565.5 2018,-600.5 2291,-600.5 2291,-565.5 2018,-565.5"/>
<text text-anchor="start" x="2057.8662" y="-578.3" font-family="Arial Bold" font-size="18.00" fill="#000000">public.users</text>
<text text-anchor="start" x="2153.88" y="-578.3" font-family="Arial" font-size="14.00" fill="#000000"> </text>
<text text-anchor="start" x="2157.7706" y="-578.3" font-family="Arial" font-size="14.00" fill="#666666">[BASE TABLE]</text>
<polygon fill="none" stroke="#000000" points="2018,-535.5 2018,-565.5 2291,-565.5 2291,-535.5 2018,-535.5"/>
<text text-anchor="start" x="2025" y="-546.9" font-family="Arial" font-size="14.00" fill="#000000">id </text>
<text text-anchor="start" x="2039.7798" y="-546.9" font-family="Arial" font-size="14.00" fill="#666666">[uuid]</text>
<polygon fill="none" stroke="#000000" points="2018,-505.5 2018,-535.5 2291,-535.5 2291,-505.5 2018,-505.5"/>
<text text-anchor="start" x="2025" y="-516.9" font-family="Arial" font-size="14.00" fill="#000000">tenant_id </text>
<text text-anchor="start" x="2086.474" y="-516.9" font-family="Arial" font-size="14.00" fill="#666666">[uuid]</text>
<polygon fill="none" stroke="#000000" points="2018,-475.5 2018,-505.5 2291,-505.5 2291,-475.5 2018,-475.5"/>
<text text-anchor="start" x="2025" y="-486.9" font-family="Arial" font-size="14.00" fill="#000000">department_id </text>
<text text-anchor="start" x="2118.3604" y="-486.9" font-family="Arial" font-size="14.00" fill="#666666">[uuid]</text>
<polygon fill="none" stroke="#000000" points="2018,-445.5 2018,-475.5 2291,-475.5 2291,-445.5 2018,-445.5"/>
<text text-anchor="start" x="2025" y="-456.9" font-family="Arial" font-size="14.00" fill="#000000">employment_type_id </text>
<text text-anchor="start" x="2158.0322" y="-456.9" font-family="Arial" font-size="14.00" fill="#666666">[uuid]</text>
<polygon fill="none" stroke="#000000" points="2018,-415.5 2018,-445.5 2291,-445.5 2291,-415.5 2018,-415.5"/>
<text text-anchor="start" x="2025" y="-426.9" font-family="Arial" font-size="14.00" fill="#000000">name </text>
<text text-anchor="start" x="2063.899" y="-426.9" font-family="Arial" font-size="14.00" fill="#666666">[text]</text>
<polygon fill="none" stroke="#000000" points="2018,-385.5 2018,-415.5 2291,-415.5 2291,-385.5 2018,-385.5"/>
<text text-anchor="start" x="2025" y="-396.9" font-family="Arial" font-size="14.00" fill="#000000">email </text>
<text text-anchor="start" x="2062.3296" y="-396.9" font-family="Arial" font-size="14.00" fill="#666666">[text]</text>
<polygon fill="none" stroke="#000000" points="2018,-355.5 2018,-385.5 2291,-385.5 2291,-355.5 2018,-355.5"/>
<text text-anchor="start" x="2025" y="-366.9" font-family="Arial" font-size="14.00" fill="#000000">created_at </text>
<text text-anchor="start" x="2095.028" y="-366.9" font-family="Arial" font-size="14.00" fill="#666666">[timestamp without time zone]</text>
<polygon fill="none" stroke="#000000" points="2018,-325.5 2018,-355.5 2291,-355.5 2291,-325.5 2018,-325.5"/>
<text text-anchor="start" x="2024.9636" y="-336.9" font-family="Arial" font-size="14.00" fill="#000000">updated_at </text>
<text text-anchor="start" x="2098.8962" y="-336.9" font-family="Arial" font-size="14.00" fill="#666666">[timestamp without time zone]</text>
</g>
<!-- public.users&#45;&gt;public.tenants -->
<g id="edge6" class="edge">
<title>public.users:tenant_id&#45;&gt;public.tenants:id</title>
<path fill="none" stroke="#000000" d="M2008.155,-518.1356C1966.1786,-496.4145 1980.6536,-331.2647 1966,-283 1947.6216,-222.4669 1977.2616,-150.5 1914,-150.5"/>
<polygon fill="#000000" stroke="#000000" points="2008.2765,-518.1647 2016.9491,-524.8756 2013.1382,-519.3324 2018,-520.5 2018,-520.5 2018,-520.5 2013.1382,-519.3324 2019.0509,-516.1244 2008.2765,-518.1647 2008.2765,-518.1647"/>
<text text-anchor="start" x="1660.7065" y="-530.5" font-family="Arial" font-size="10.00" fill="#000000">FOREIGN KEY (tenant_id) REFERENCES tenants(id) ON DELETE CASCADE</text>
</g>
<!-- public.user_roles -->
<g id="node8" class="node">
<title>public.user_roles</title>
<polygon fill="#efefef" stroke="transparent" points="2395,-505.5 2395,-540.5 2642,-540.5 2642,-505.5 2395,-505.5"/>
<polygon fill="none" stroke="#000000" points="2395,-505.5 2395,-540.5 2642,-540.5 2642,-505.5 2395,-505.5"/>
<text text-anchor="start" x="2401.8637" y="-518.3" font-family="Arial Bold" font-size="18.00" fill="#000000">public.user_roles</text>
<text text-anchor="start" x="2537.8825" y="-518.3" font-family="Arial" font-size="14.00" fill="#000000"> </text>
<text text-anchor="start" x="2541.7731" y="-518.3" font-family="Arial" font-size="14.00" fill="#666666">[BASE TABLE]</text>
<polygon fill="none" stroke="#000000" points="2395,-475.5 2395,-505.5 2642,-505.5 2642,-475.5 2395,-475.5"/>
<text text-anchor="start" x="2402" y="-486.9" font-family="Arial" font-size="14.00" fill="#000000">id </text>
<text text-anchor="start" x="2416.7798" y="-486.9" font-family="Arial" font-size="14.00" fill="#666666">[uuid]</text>
<polygon fill="none" stroke="#000000" points="2395,-445.5 2395,-475.5 2642,-475.5 2642,-445.5 2395,-445.5"/>
<text text-anchor="start" x="2402" y="-456.9" font-family="Arial" font-size="14.00" fill="#000000">user_id </text>
<text text-anchor="start" x="2451.7882" y="-456.9" font-family="Arial" font-size="14.00" fill="#666666">[uuid]</text>
<polygon fill="none" stroke="#000000" points="2395,-415.5 2395,-445.5 2642,-445.5 2642,-415.5 2395,-415.5"/>
<text text-anchor="start" x="2402" y="-426.9" font-family="Arial" font-size="14.00" fill="#000000">role_id </text>
<text text-anchor="start" x="2447.8948" y="-426.9" font-family="Arial" font-size="14.00" fill="#666666">[uuid]</text>
<polygon fill="none" stroke="#000000" points="2395,-385.5 2395,-415.5 2642,-415.5 2642,-385.5 2395,-385.5"/>
<text text-anchor="start" x="2402" y="-396.9" font-family="Arial" font-size="14.00" fill="#000000">tenant_id </text>
<text text-anchor="start" x="2463.474" y="-396.9" font-family="Arial" font-size="14.00" fill="#666666">[uuid]</text>
</g>
<!-- public.user_roles&#45;&gt;public.tenants -->
<g id="edge7" class="edge">
<title>public.user_roles:tenant_id&#45;&gt;public.tenants:id</title>
<path fill="none" stroke="#000000" d="M2384.9535,-399.4831C2343.8395,-390.1181 2382.8408,-318.4294 2343,-283 2268.4401,-216.6958 2013.7768,-150.5 1914,-150.5"/>
<polygon fill="#000000" stroke="#000000" points="2385.0508,-399.4928 2394.5468,-404.9771 2390.0254,-399.9964 2395,-400.5 2395,-400.5 2395,-400.5 2390.0254,-399.9964 2395.4532,-396.0229 2385.0508,-399.4928 2385.0508,-399.4928"/>
<text text-anchor="start" x="2037.7065" y="-410.5" font-family="Arial" font-size="10.00" fill="#000000">FOREIGN KEY (tenant_id) REFERENCES tenants(id) ON DELETE CASCADE</text>
</g>
<!-- public.abac_policies -->
<g id="node9" class="node">
<title>public.abac_policies</title>
<polygon fill="#efefef" stroke="transparent" points="2746,-565.5 2746,-600.5 3019,-600.5 3019,-565.5 2746,-565.5"/>
<polygon fill="none" stroke="#000000" points="2746,-565.5 2746,-600.5 3019,-600.5 3019,-565.5 2746,-565.5"/>
<text text-anchor="start" x="2753.3555" y="-578.3" font-family="Arial Bold" font-size="18.00" fill="#000000">public.abac_policies</text>
<text text-anchor="start" x="2914.3907" y="-578.3" font-family="Arial" font-size="14.00" fill="#000000"> </text>
<text text-anchor="start" x="2918.2813" y="-578.3" font-family="Arial" font-size="14.00" fill="#666666">[BASE TABLE]</text>
<polygon fill="none" stroke="#000000" points="2746,-535.5 2746,-565.5 3019,-565.5 3019,-535.5 2746,-535.5"/>
<text text-anchor="start" x="2753" y="-546.9" font-family="Arial" font-size="14.00" fill="#000000">id </text>
<text text-anchor="start" x="2767.7798" y="-546.9" font-family="Arial" font-size="14.00" fill="#666666">[uuid]</text>
<polygon fill="none" stroke="#000000" points="2746,-505.5 2746,-535.5 3019,-535.5 3019,-505.5 2746,-505.5"/>
<text text-anchor="start" x="2753" y="-516.9" font-family="Arial" font-size="14.00" fill="#000000">tenant_id </text>
<text text-anchor="start" x="2814.474" y="-516.9" font-family="Arial" font-size="14.00" fill="#666666">[uuid]</text>
<polygon fill="none" stroke="#000000" points="2746,-475.5 2746,-505.5 3019,-505.5 3019,-475.5 2746,-475.5"/>
<text text-anchor="start" x="2753" y="-486.9" font-family="Arial" font-size="14.00" fill="#000000">resource_id </text>
<text text-anchor="start" x="2830.014" y="-486.9" font-family="Arial" font-size="14.00" fill="#666666">[uuid]</text>
<polygon fill="none" stroke="#000000" points="2746,-445.5 2746,-475.5 3019,-475.5 3019,-445.5 2746,-445.5"/>
<text text-anchor="start" x="2753" y="-456.9" font-family="Arial" font-size="14.00" fill="#000000">action_id </text>
<text text-anchor="start" x="2812.9074" y="-456.9" font-family="Arial" font-size="14.00" fill="#666666">[uuid]</text>
<polygon fill="none" stroke="#000000" points="2746,-415.5 2746,-445.5 3019,-445.5 3019,-415.5 2746,-415.5"/>
<text text-anchor="start" x="2753" y="-426.9" font-family="Arial" font-size="14.00" fill="#000000">attribute_id </text>
<text text-anchor="start" x="2826.1318" y="-426.9" font-family="Arial" font-size="14.00" fill="#666666">[uuid]</text>
<polygon fill="none" stroke="#000000" points="2746,-385.5 2746,-415.5 3019,-415.5 3019,-385.5 2746,-385.5"/>
<text text-anchor="start" x="2753" y="-396.9" font-family="Arial" font-size="14.00" fill="#000000">condition </text>
<text text-anchor="start" x="2812.9074" y="-396.9" font-family="Arial" font-size="14.00" fill="#666666">[jsonb]</text>
<polygon fill="none" stroke="#000000" points="2746,-355.5 2746,-385.5 3019,-385.5 3019,-355.5 2746,-355.5"/>
<text text-anchor="start" x="2753" y="-366.9" font-family="Arial" font-size="14.00" fill="#000000">created_at </text>
<text text-anchor="start" x="2823.028" y="-366.9" font-family="Arial" font-size="14.00" fill="#666666">[timestamp without time zone]</text>
<polygon fill="none" stroke="#000000" points="2746,-325.5 2746,-355.5 3019,-355.5 3019,-325.5 2746,-325.5"/>
<text text-anchor="start" x="2752.9636" y="-336.9" font-family="Arial" font-size="14.00" fill="#000000">updated_at </text>
<text text-anchor="start" x="2826.8962" y="-336.9" font-family="Arial" font-size="14.00" fill="#666666">[timestamp without time zone]</text>
</g>
<!-- public.abac_policies&#45;&gt;public.tenants -->
<g id="edge8" class="edge">
<title>public.abac_policies:tenant_id&#45;&gt;public.tenants:id</title>
<path fill="none" stroke="#000000" d="M2735.7511,-519.939C2646.8729,-509.4661 2769.5193,-355.0306 2694,-283 2566.775,-161.6524 2089.8164,-150.5 1914,-150.5"/>
<polygon fill="#000000" stroke="#000000" points="2736.0149,-519.9534 2745.754,-524.9933 2741.0075,-520.2267 2746,-520.5 2746,-520.5 2746,-520.5 2741.0075,-520.2267 2746.246,-516.0067 2736.0149,-519.9534 2736.0149,-519.9534"/>
<text text-anchor="start" x="2388.7065" y="-530.5" font-family="Arial" font-size="10.00" fill="#000000">FOREIGN KEY (tenant_id) REFERENCES tenants(id) ON DELETE CASCADE</text>
</g>
<!-- public.relationships -->
<g id="node10" class="node">
<title>public.relationships</title>
<polygon fill="#efefef" stroke="transparent" points="3123,-520.5 3123,-555.5 3387,-555.5 3387,-520.5 3123,-520.5"/>
<polygon fill="none" stroke="#000000" points="3123,-520.5 3123,-555.5 3387,-555.5 3387,-520.5 3123,-520.5"/>
<text text-anchor="start" x="3129.8614" y="-533.3" font-family="Arial Bold" font-size="18.00" fill="#000000">public.relationships</text>
<text text-anchor="start" x="3282.8848" y="-533.3" font-family="Arial" font-size="14.00" fill="#000000"> </text>
<text text-anchor="start" x="3286.7754" y="-533.3" font-family="Arial" font-size="14.00" fill="#666666">[BASE TABLE]</text>
<polygon fill="none" stroke="#000000" points="3123,-490.5 3123,-520.5 3387,-520.5 3387,-490.5 3123,-490.5"/>
<text text-anchor="start" x="3130" y="-501.9" font-family="Arial" font-size="14.00" fill="#000000">id </text>
<text text-anchor="start" x="3144.7798" y="-501.9" font-family="Arial" font-size="14.00" fill="#666666">[uuid]</text>
<polygon fill="none" stroke="#000000" points="3123,-460.5 3123,-490.5 3387,-490.5 3387,-460.5 3123,-460.5"/>
<text text-anchor="start" x="3130" y="-471.9" font-family="Arial" font-size="14.00" fill="#000000">subject_id </text>
<text text-anchor="start" x="3196.9074" y="-471.9" font-family="Arial" font-size="14.00" fill="#666666">[uuid]</text>
<polygon fill="none" stroke="#000000" points="3123,-430.5 3123,-460.5 3387,-460.5 3387,-430.5 3123,-430.5"/>
<text text-anchor="start" x="3130" y="-441.9" font-family="Arial" font-size="14.00" fill="#000000">object_id </text>
<text text-anchor="start" x="3189.9074" y="-441.9" font-family="Arial" font-size="14.00" fill="#666666">[uuid]</text>
<polygon fill="none" stroke="#000000" points="3123,-400.5 3123,-430.5 3387,-430.5 3387,-400.5 3123,-400.5"/>
<text text-anchor="start" x="3130" y="-411.9" font-family="Arial" font-size="14.00" fill="#000000">relation </text>
<text text-anchor="start" x="3179.7854" y="-411.9" font-family="Arial" font-size="14.00" fill="#666666">[text]</text>
<polygon fill="none" stroke="#000000" points="3123,-370.5 3123,-400.5 3387,-400.5 3387,-370.5 3123,-370.5"/>
<text text-anchor="start" x="3130" y="-381.9" font-family="Arial" font-size="14.00" fill="#000000">tenant_id </text>
<text text-anchor="start" x="3191.474" y="-381.9" font-family="Arial" font-size="14.00" fill="#666666">[uuid]</text>
</g>
<!-- public.relationships&#45;&gt;public.tenants -->
<g id="edge9" class="edge">
<title>public.relationships:tenant_id&#45;&gt;public.tenants:id</title>
<path fill="none" stroke="#000000" d="M3112.6305,-384.2132C3077.8205,-374.3111 3109.6615,-309.8873 3071,-283 2964.7684,-209.1209 2043.3958,-150.5 1914,-150.5"/>
<polygon fill="#000000" stroke="#000000" points="3113.0761,-384.2685 3122.4458,-389.9657 3118.0381,-384.8842 3123,-385.5 3123,-385.5 3123,-385.5 3118.0381,-384.8842 3123.5542,-381.0343 3113.0761,-384.2685 3113.0761,-384.2685"/>
<text text-anchor="start" x="3129.7065" y="-395.5" font-family="Arial" font-size="10.00" fill="#000000">FOREIGN KEY (tenant_id) REFERENCES tenants(id) ON DELETE CASCADE</text>
</g>
</g>
</svg>
