<?xml version="1.0" encoding="UTF-8" standalone="no"?>
<!DOCTYPE svg PUBLIC "-//W3C//DTD SVG 1.1//EN"
 "http://www.w3.org/Graphics/SVG/1.1/DTD/svg11.dtd">
<!-- Generated by graphviz version 2.40.1 (20161225.0304)
 -->
<!-- Title: public.abac_policies Pages: 1 -->
<svg width="1446pt" height="682pt"
 viewBox="0.00 0.00 1446.00 682.00" xmlns="http://www.w3.org/2000/svg" xmlns:xlink="http://www.w3.org/1999/xlink">
<g id="graph0" class="graph" transform="scale(1 1) rotate(0) translate(4 678)">
<title>public.abac_policies</title>
<polygon fill="#ffffff" stroke="transparent" points="-4,4 -4,-678 1442,-678 1442,4 -4,4"/>
<!-- public.abac_policies -->
<g id="node1" class="node">
<title>public.abac_policies</title>
<polygon fill="#efefef" stroke="transparent" points="595.5,-592.5 595.5,-627.5 868.5,-627.5 868.5,-592.5 595.5,-592.5"/>
<polygon fill="none" stroke="#000000" points="595.5,-592.5 595.5,-627.5 868.5,-627.5 868.5,-592.5 595.5,-592.5"/>
<text text-anchor="start" x="602.8555" y="-605.3" font-family="Arial Bold" font-size="18.00" fill="#000000">public.abac_policies</text>
<text text-anchor="start" x="763.8907" y="-605.3" font-family="Arial" font-size="14.00" fill="#000000"> </text>
<text text-anchor="start" x="767.7813" y="-605.3" font-family="Arial" font-size="14.00" fill="#666666">[BASE TABLE]</text>
<polygon fill="none" stroke="#000000" points="595.5,-562.5 595.5,-592.5 868.5,-592.5 868.5,-562.5 595.5,-562.5"/>
<text text-anchor="start" x="602.5" y="-573.9" font-family="Arial" font-size="14.00" fill="#000000">id </text>
<text text-anchor="start" x="617.2798" y="-573.9" font-family="Arial" font-size="14.00" fill="#666666">[uuid]</text>
<polygon fill="none" stroke="#000000" points="595.5,-532.5 595.5,-562.5 868.5,-562.5 868.5,-532.5 595.5,-532.5"/>
<text text-anchor="start" x="602.5" y="-543.9" font-family="Arial" font-size="14.00" fill="#000000">tenant_id </text>
<text text-anchor="start" x="663.974" y="-543.9" font-family="Arial" font-size="14.00" fill="#666666">[uuid]</text>
<polygon fill="none" stroke="#000000" points="595.5,-502.5 595.5,-532.5 868.5,-532.5 868.5,-502.5 595.5,-502.5"/>
<text text-anchor="start" x="602.5" y="-513.9" font-family="Arial" font-size="14.00" fill="#000000">resource_id </text>
<text text-anchor="start" x="679.514" y="-513.9" font-family="Arial" font-size="14.00" fill="#666666">[uuid]</text>
<polygon fill="none" stroke="#000000" points="595.5,-472.5 595.5,-502.5 868.5,-502.5 868.5,-472.5 595.5,-472.5"/>
<text text-anchor="start" x="602.5" y="-483.9" font-family="Arial" font-size="14.00" fill="#000000">action_id </text>
<text text-anchor="start" x="662.4074" y="-483.9" font-family="Arial" font-size="14.00" fill="#666666">[uuid]</text>
<polygon fill="none" stroke="#000000" points="595.5,-442.5 595.5,-472.5 868.5,-472.5 868.5,-442.5 595.5,-442.5"/>
<text text-anchor="start" x="602.5" y="-453.9" font-family="Arial" font-size="14.00" fill="#000000">attribute_id </text>
<text text-anchor="start" x="675.6318" y="-453.9" font-family="Arial" font-size="14.00" fill="#666666">[uuid]</text>
<polygon fill="none" stroke="#000000" points="595.5,-412.5 595.5,-442.5 868.5,-442.5 868.5,-412.5 595.5,-412.5"/>
<text text-anchor="start" x="602.5" y="-423.9" font-family="Arial" font-size="14.00" fill="#000000">condition </text>
<text text-anchor="start" x="662.4074" y="-423.9" font-family="Arial" font-size="14.00" fill="#666666">[jsonb]</text>
<polygon fill="none" stroke="#000000" points="595.5,-382.5 595.5,-412.5 868.5,-412.5 868.5,-382.5 595.5,-382.5"/>
<text text-anchor="start" x="602.5" y="-393.9" font-family="Arial" font-size="14.00" fill="#000000">created_at </text>
<text text-anchor="start" x="672.528" y="-393.9" font-family="Arial" font-size="14.00" fill="#666666">[timestamp without time zone]</text>
<polygon fill="none" stroke="#000000" points="595.5,-352.5 595.5,-382.5 868.5,-382.5 868.5,-352.5 595.5,-352.5"/>
<text text-anchor="start" x="602.4636" y="-363.9" font-family="Arial" font-size="14.00" fill="#000000">updated_at </text>
<text text-anchor="start" x="676.3962" y="-363.9" font-family="Arial" font-size="14.00" fill="#666666">[timestamp without time zone]</text>
<polygon fill="none" stroke="#000000" stroke-width="3" points="593.5,-351.5 593.5,-629.5 869.5,-629.5 869.5,-351.5 593.5,-351.5"/>
</g>
<!-- public.tenants -->
<g id="node2" class="node">
<title>public.tenants</title>
<polygon fill="#efefef" stroke="transparent" points="43.5,-177.5 43.5,-212.5 316.5,-212.5 316.5,-177.5 43.5,-177.5"/>
<polygon fill="none" stroke="#000000" points="43.5,-177.5 43.5,-212.5 316.5,-212.5 316.5,-177.5 43.5,-177.5"/>
<text text-anchor="start" x="75.8539" y="-190.3" font-family="Arial Bold" font-size="18.00" fill="#000000">public.tenants</text>
<text text-anchor="start" x="186.8923" y="-190.3" font-family="Arial" font-size="14.00" fill="#000000"> </text>
<text text-anchor="start" x="190.7829" y="-190.3" font-family="Arial" font-size="14.00" fill="#666666">[BASE TABLE]</text>
<polygon fill="none" stroke="#000000" points="43.5,-147.5 43.5,-177.5 316.5,-177.5 316.5,-147.5 43.5,-147.5"/>
<text text-anchor="start" x="50.5" y="-158.9" font-family="Arial" font-size="14.00" fill="#000000">id </text>
<text text-anchor="start" x="65.2798" y="-158.9" font-family="Arial" font-size="14.00" fill="#666666">[uuid]</text>
<polygon fill="none" stroke="#000000" points="43.5,-117.5 43.5,-147.5 316.5,-147.5 316.5,-117.5 43.5,-117.5"/>
<text text-anchor="start" x="50.5" y="-128.9" font-family="Arial" font-size="14.00" fill="#000000">name </text>
<text text-anchor="start" x="89.399" y="-128.9" font-family="Arial" font-size="14.00" fill="#666666">[text]</text>
<polygon fill="none" stroke="#000000" points="43.5,-87.5 43.5,-117.5 316.5,-117.5 316.5,-87.5 43.5,-87.5"/>
<text text-anchor="start" x="50.5" y="-98.9" font-family="Arial" font-size="14.00" fill="#000000">created_at </text>
<text text-anchor="start" x="120.528" y="-98.9" font-family="Arial" font-size="14.00" fill="#666666">[timestamp without time zone]</text>
<polygon fill="none" stroke="#000000" points="43.5,-57.5 43.5,-87.5 316.5,-87.5 316.5,-57.5 43.5,-57.5"/>
<text text-anchor="start" x="50.4636" y="-68.9" font-family="Arial" font-size="14.00" fill="#000000">updated_at </text>
<text text-anchor="start" x="124.3962" y="-68.9" font-family="Arial" font-size="14.00" fill="#666666">[timestamp without time zone]</text>
</g>
<!-- public.abac_policies&#45;&gt;public.tenants -->
<g id="edge1" class="edge">
<title>public.abac_policies:tenant_id&#45;&gt;public.tenants:id</title>
<path fill="none" stroke="#000000" d="M585.4745,-547.3049C436.8816,-541.4049 450.8801,-402.6794 367.5,-271 338.9945,-225.9823 369.7838,-162.5 316.5,-162.5"/>
<polygon fill="#000000" stroke="#000000" points="585.5019,-547.3054 595.4124,-551.9991 590.5009,-547.4027 595.5,-547.5 595.5,-547.5 595.5,-547.5 590.5009,-547.4027 595.5876,-543.0009 585.5019,-547.3054 585.5019,-547.3054"/>
<text text-anchor="start" x="238.2065" y="-557.5" font-family="Arial" font-size="10.00" fill="#000000">FOREIGN KEY (tenant_id) REFERENCES tenants(id) ON DELETE CASCADE</text>
</g>
<!-- public.resources -->
<g id="node3" class="node">
<title>public.resources</title>
<polygon fill="#efefef" stroke="transparent" points="420.5,-192.5 420.5,-227.5 693.5,-227.5 693.5,-192.5 420.5,-192.5"/>
<polygon fill="none" stroke="#000000" points="420.5,-192.5 420.5,-227.5 693.5,-227.5 693.5,-192.5 420.5,-192.5"/>
<text text-anchor="start" x="442.8639" y="-205.3" font-family="Arial Bold" font-size="18.00" fill="#000000">public.resources</text>
<text text-anchor="start" x="573.8823" y="-205.3" font-family="Arial" font-size="14.00" fill="#000000"> </text>
<text text-anchor="start" x="577.7729" y="-205.3" font-family="Arial" font-size="14.00" fill="#666666">[BASE TABLE]</text>
<polygon fill="none" stroke="#000000" points="420.5,-162.5 420.5,-192.5 693.5,-192.5 693.5,-162.5 420.5,-162.5"/>
<text text-anchor="start" x="427.5" y="-173.9" font-family="Arial" font-size="14.00" fill="#000000">id </text>
<text text-anchor="start" x="442.2798" y="-173.9" font-family="Arial" font-size="14.00" fill="#666666">[uuid]</text>
<polygon fill="none" stroke="#000000" points="420.5,-132.5 420.5,-162.5 693.5,-162.5 693.5,-132.5 420.5,-132.5"/>
<text text-anchor="start" x="427.5" y="-143.9" font-family="Arial" font-size="14.00" fill="#000000">tenant_id </text>
<text text-anchor="start" x="488.974" y="-143.9" font-family="Arial" font-size="14.00" fill="#666666">[uuid]</text>
<polygon fill="none" stroke="#000000" points="420.5,-102.5 420.5,-132.5 693.5,-132.5 693.5,-102.5 420.5,-102.5"/>
<text text-anchor="start" x="427.5" y="-113.9" font-family="Arial" font-size="14.00" fill="#000000">name </text>
<text text-anchor="start" x="466.399" y="-113.9" font-family="Arial" font-size="14.00" fill="#666666">[text]</text>
<polygon fill="none" stroke="#000000" points="420.5,-72.5 420.5,-102.5 693.5,-102.5 693.5,-72.5 420.5,-72.5"/>
<text text-anchor="start" x="427.5" y="-83.9" font-family="Arial" font-size="14.00" fill="#000000">created_at </text>
<text text-anchor="start" x="497.528" y="-83.9" font-family="Arial" font-size="14.00" fill="#666666">[timestamp without time zone]</text>
<polygon fill="none" stroke="#000000" points="420.5,-42.5 420.5,-72.5 693.5,-72.5 693.5,-42.5 420.5,-42.5"/>
<text text-anchor="start" x="427.4636" y="-53.9" font-family="Arial" font-size="14.00" fill="#000000">updated_at </text>
<text text-anchor="start" x="501.3962" y="-53.9" font-family="Arial" font-size="14.00" fill="#666666">[timestamp without time zone]</text>
</g>
<!-- public.abac_policies&#45;&gt;public.resources -->
<g id="edge2" class="edge">
<title>public.abac_policies:resource_id&#45;&gt;public.resources:id</title>
<path fill="none" stroke="#000000" d="M585.1407,-516.899C505.0908,-507.1352 544.0446,-380.7193 595.5,-307 622.0581,-268.9506 666.9419,-309.0494 693.5,-271 717.2846,-236.9242 735.0556,-177.5 693.5,-177.5"/>
<polygon fill="#000000" stroke="#000000" points="585.5168,-516.9207 595.2393,-521.9924 590.5084,-517.2103 595.5,-517.5 595.5,-517.5 595.5,-517.5 590.5084,-517.2103 595.7607,-513.0076 585.5168,-516.9207 585.5168,-516.9207"/>
<text text-anchor="start" x="216.1065" y="-527.5" font-family="Arial" font-size="10.00" fill="#000000">FOREIGN KEY (resource_id) REFERENCES resources(id) ON DELETE CASCADE</text>
</g>
<!-- public.actions -->
<g id="node4" class="node">
<title>public.actions</title>
<polygon fill="#efefef" stroke="transparent" points="797.5,-147.5 797.5,-182.5 1017.5,-182.5 1017.5,-147.5 797.5,-147.5"/>
<polygon fill="none" stroke="#000000" points="797.5,-147.5 797.5,-182.5 1017.5,-182.5 1017.5,-147.5 797.5,-147.5"/>
<text text-anchor="start" x="804.361" y="-160.3" font-family="Arial Bold" font-size="18.00" fill="#000000">public.actions</text>
<text text-anchor="start" x="913.3852" y="-160.3" font-family="Arial" font-size="14.00" fill="#000000"> </text>
<text text-anchor="start" x="917.2758" y="-160.3" font-family="Arial" font-size="14.00" fill="#666666">[BASE TABLE]</text>
<polygon fill="none" stroke="#000000" points="797.5,-117.5 797.5,-147.5 1017.5,-147.5 1017.5,-117.5 797.5,-117.5"/>
<text text-anchor="start" x="804.5" y="-128.9" font-family="Arial" font-size="14.00" fill="#000000">id </text>
<text text-anchor="start" x="819.2798" y="-128.9" font-family="Arial" font-size="14.00" fill="#666666">[uuid]</text>
<polygon fill="none" stroke="#000000" points="797.5,-87.5 797.5,-117.5 1017.5,-117.5 1017.5,-87.5 797.5,-87.5"/>
<text text-anchor="start" x="804.5" y="-98.9" font-family="Arial" font-size="14.00" fill="#000000">name </text>
<text text-anchor="start" x="843.399" y="-98.9" font-family="Arial" font-size="14.00" fill="#666666">[text]</text>
</g>
<!-- public.abac_policies&#45;&gt;public.actions -->
<g id="edge3" class="edge">
<title>public.abac_policies:action_id&#45;&gt;public.actions:id</title>
<path fill="none" stroke="#000000" d="M878.767,-487.3465C1109.206,-480.2544 798.9306,-229.8025 797.5,-226 782.8668,-187.1061 755.9444,-132.5 797.5,-132.5"/>
<polygon fill="#000000" stroke="#000000" points="878.4989,-487.3504 868.4327,-483.0005 873.4994,-487.4252 868.5,-487.5 868.5,-487.5 868.5,-487.5 873.4994,-487.4252 868.5673,-491.9995 878.4989,-487.3504 878.4989,-487.3504"/>
<text text-anchor="start" x="875.3255" y="-497.5" font-family="Arial" font-size="10.00" fill="#000000">FOREIGN KEY (action_id) REFERENCES actions(id) ON DELETE CASCADE</text>
</g>
<!-- public.attributes -->
<g id="node5" class="node">
<title>public.attributes</title>
<polygon fill="#efefef" stroke="transparent" points="1122.5,-192.5 1122.5,-227.5 1395.5,-227.5 1395.5,-192.5 1122.5,-192.5"/>
<polygon fill="none" stroke="#000000" points="1122.5,-192.5 1122.5,-227.5 1395.5,-227.5 1395.5,-192.5 1122.5,-192.5"/>
<text text-anchor="start" x="1147.3596" y="-205.3" font-family="Arial Bold" font-size="18.00" fill="#000000">public.attributes</text>
<text text-anchor="start" x="1273.3866" y="-205.3" font-family="Arial" font-size="14.00" fill="#000000"> </text>
<text text-anchor="start" x="1277.2772" y="-205.3" font-family="Arial" font-size="14.00" fill="#666666">[BASE TABLE]</text>
<polygon fill="none" stroke="#000000" points="1122.5,-162.5 1122.5,-192.5 1395.5,-192.5 1395.5,-162.5 1122.5,-162.5"/>
<text text-anchor="start" x="1129.5" y="-173.9" font-family="Arial" font-size="14.00" fill="#000000">id </text>
<text text-anchor="start" x="1144.2798" y="-173.9" font-family="Arial" font-size="14.00" fill="#666666">[uuid]</text>
<polygon fill="none" stroke="#000000" points="1122.5,-132.5 1122.5,-162.5 1395.5,-162.5 1395.5,-132.5 1122.5,-132.5"/>
<text text-anchor="start" x="1129.5" y="-143.9" font-family="Arial" font-size="14.00" fill="#000000">tenant_id </text>
<text text-anchor="start" x="1190.974" y="-143.9" font-family="Arial" font-size="14.00" fill="#666666">[uuid]</text>
<polygon fill="none" stroke="#000000" points="1122.5,-102.5 1122.5,-132.5 1395.5,-132.5 1395.5,-102.5 1122.5,-102.5"/>
<text text-anchor="start" x="1129.5" y="-113.9" font-family="Arial" font-size="14.00" fill="#000000">name </text>
<text text-anchor="start" x="1168.399" y="-113.9" font-family="Arial" font-size="14.00" fill="#666666">[text]</text>
<polygon fill="none" stroke="#000000" points="1122.5,-72.5 1122.5,-102.5 1395.5,-102.5 1395.5,-72.5 1122.5,-72.5"/>
<text text-anchor="start" x="1129.5" y="-83.9" font-family="Arial" font-size="14.00" fill="#000000">created_at </text>
<text text-anchor="start" x="1199.528" y="-83.9" font-family="Arial" font-size="14.00" fill="#666666">[timestamp without time zone]</text>
<polygon fill="none" stroke="#000000" points="1122.5,-42.5 1122.5,-72.5 1395.5,-72.5 1395.5,-42.5 1122.5,-42.5"/>
<text text-anchor="start" x="1129.4636" y="-53.9" font-family="Arial" font-size="14.00" fill="#000000">updated_at </text>
<text text-anchor="start" x="1203.3962" y="-53.9" font-family="Arial" font-size="14.00" fill="#666666">[timestamp without time zone]</text>
</g>
<!-- public.abac_policies&#45;&gt;public.attributes -->
<g id="edge4" class="edge">
<title>public.abac_policies:attribute_id&#45;&gt;public.attributes:id</title>
<path fill="none" stroke="#000000" d="M878.5733,-457.2832C990.6226,-452.3464 996.0373,-363.8708 1069.5,-271 1099.1345,-233.5364 1074.7326,-177.5 1122.5,-177.5"/>
<polygon fill="#000000" stroke="#000000" points="878.4977,-457.2847 868.4031,-453.001 873.4988,-457.3924 868.5,-457.5 868.5,-457.5 868.5,-457.5 873.4988,-457.3924 868.5969,-461.999 878.4977,-457.2847 878.4977,-457.2847"/>
<text text-anchor="start" x="875.8795" y="-467.5" font-family="Arial" font-size="10.00" fill="#000000">FOREIGN KEY (attribute_id) REFERENCES attributes(id) ON DELETE CASCADE</text>
</g>
</g>
</svg>
