<?xml version="1.0" encoding="UTF-8" standalone="no"?>
<!DOCTYPE svg PUBLIC "-//W3C//DTD SVG 1.1//EN"
 "http://www.w3.org/Graphics/SVG/1.1/DTD/svg11.dtd">
<!-- Generated by graphviz version 2.40.1 (20161225.0304)
 -->
<!-- Title: public.relationships Pages: 1 -->
<svg width="551pt" height="562pt"
 viewBox="0.00 0.00 550.50 562.00" xmlns="http://www.w3.org/2000/svg" xmlns:xlink="http://www.w3.org/1999/xlink">
<g id="graph0" class="graph" transform="scale(1 1) rotate(0) translate(4 558)">
<title>public.relationships</title>
<polygon fill="#ffffff" stroke="transparent" points="-4,4 -4,-558 546.5,-558 546.5,4 -4,4"/>
<!-- public.relationships -->
<g id="node1" class="node">
<title>public.relationships</title>
<polygon fill="#efefef" stroke="transparent" points="232,-472.5 232,-507.5 496,-507.5 496,-472.5 232,-472.5"/>
<polygon fill="none" stroke="#000000" points="232,-472.5 232,-507.5 496,-507.5 496,-472.5 232,-472.5"/>
<text text-anchor="start" x="238.8614" y="-485.3" font-family="Arial Bold" font-size="18.00" fill="#000000">public.relationships</text>
<text text-anchor="start" x="391.8848" y="-485.3" font-family="Arial" font-size="14.00" fill="#000000"> </text>
<text text-anchor="start" x="395.7754" y="-485.3" font-family="Arial" font-size="14.00" fill="#666666">[BASE TABLE]</text>
<polygon fill="none" stroke="#000000" points="232,-442.5 232,-472.5 496,-472.5 496,-442.5 232,-442.5"/>
<text text-anchor="start" x="239" y="-453.9" font-family="Arial" font-size="14.00" fill="#000000">id </text>
<text text-anchor="start" x="253.7798" y="-453.9" font-family="Arial" font-size="14.00" fill="#666666">[uuid]</text>
<polygon fill="none" stroke="#000000" points="232,-412.5 232,-442.5 496,-442.5 496,-412.5 232,-412.5"/>
<text text-anchor="start" x="239" y="-423.9" font-family="Arial" font-size="14.00" fill="#000000">subject_id </text>
<text text-anchor="start" x="305.9074" y="-423.9" font-family="Arial" font-size="14.00" fill="#666666">[uuid]</text>
<polygon fill="none" stroke="#000000" points="232,-382.5 232,-412.5 496,-412.5 496,-382.5 232,-382.5"/>
<text text-anchor="start" x="239" y="-393.9" font-family="Arial" font-size="14.00" fill="#000000">object_id </text>
<text text-anchor="start" x="298.9074" y="-393.9" font-family="Arial" font-size="14.00" fill="#666666">[uuid]</text>
<polygon fill="none" stroke="#000000" points="232,-352.5 232,-382.5 496,-382.5 496,-352.5 232,-352.5"/>
<text text-anchor="start" x="239" y="-363.9" font-family="Arial" font-size="14.00" fill="#000000">relation </text>
<text text-anchor="start" x="288.7854" y="-363.9" font-family="Arial" font-size="14.00" fill="#666666">[text]</text>
<polygon fill="none" stroke="#000000" points="232,-322.5 232,-352.5 496,-352.5 496,-322.5 232,-322.5"/>
<text text-anchor="start" x="239" y="-333.9" font-family="Arial" font-size="14.00" fill="#000000">tenant_id </text>
<text text-anchor="start" x="300.474" y="-333.9" font-family="Arial" font-size="14.00" fill="#666666">[uuid]</text>
<polygon fill="none" stroke="#000000" stroke-width="3" points="230.5,-321.5 230.5,-509.5 497.5,-509.5 497.5,-321.5 230.5,-321.5"/>
</g>
<!-- public.tenants -->
<g id="node2" class="node">
<title>public.tenants</title>
<polygon fill="#efefef" stroke="transparent" points="227,-162.5 227,-197.5 500,-197.5 500,-162.5 227,-162.5"/>
<polygon fill="none" stroke="#000000" points="227,-162.5 227,-197.5 500,-197.5 500,-162.5 227,-162.5"/>
<text text-anchor="start" x="259.3539" y="-175.3" font-family="Arial Bold" font-size="18.00" fill="#000000">public.tenants</text>
<text text-anchor="start" x="370.3923" y="-175.3" font-family="Arial" font-size="14.00" fill="#000000"> </text>
<text text-anchor="start" x="374.2829" y="-175.3" font-family="Arial" font-size="14.00" fill="#666666">[BASE TABLE]</text>
<polygon fill="none" stroke="#000000" points="227,-132.5 227,-162.5 500,-162.5 500,-132.5 227,-132.5"/>
<text text-anchor="start" x="234" y="-143.9" font-family="Arial" font-size="14.00" fill="#000000">id </text>
<text text-anchor="start" x="248.7798" y="-143.9" font-family="Arial" font-size="14.00" fill="#666666">[uuid]</text>
<polygon fill="none" stroke="#000000" points="227,-102.5 227,-132.5 500,-132.5 500,-102.5 227,-102.5"/>
<text text-anchor="start" x="234" y="-113.9" font-family="Arial" font-size="14.00" fill="#000000">name </text>
<text text-anchor="start" x="272.899" y="-113.9" font-family="Arial" font-size="14.00" fill="#666666">[text]</text>
<polygon fill="none" stroke="#000000" points="227,-72.5 227,-102.5 500,-102.5 500,-72.5 227,-72.5"/>
<text text-anchor="start" x="234" y="-83.9" font-family="Arial" font-size="14.00" fill="#000000">created_at </text>
<text text-anchor="start" x="304.028" y="-83.9" font-family="Arial" font-size="14.00" fill="#666666">[timestamp without time zone]</text>
<polygon fill="none" stroke="#000000" points="227,-42.5 227,-72.5 500,-72.5 500,-42.5 227,-42.5"/>
<text text-anchor="start" x="233.9636" y="-53.9" font-family="Arial" font-size="14.00" fill="#000000">updated_at </text>
<text text-anchor="start" x="307.8962" y="-53.9" font-family="Arial" font-size="14.00" fill="#666666">[timestamp without time zone]</text>
</g>
<!-- public.relationships&#45;&gt;public.tenants -->
<g id="edge1" class="edge">
<title>public.relationships:tenant_id&#45;&gt;public.tenants:id</title>
<path fill="none" stroke="#000000" d="M364.8202,-312.3252C374.4952,-257.0255 467.0962,-299.0777 500,-241 520.4842,-204.8439 541.5556,-147.5 500,-147.5"/>
<polygon fill="#000000" stroke="#000000" points="364.8036,-312.5323 359.5146,-322.1384 364.4018,-317.5162 364,-322.5 364,-322.5 364,-322.5 364.4018,-317.5162 368.4854,-322.8616 364.8036,-312.5323 364.8036,-312.5323"/>
<text text-anchor="start" x="6.7065" y="-332.5" font-family="Arial" font-size="10.00" fill="#000000">FOREIGN KEY (tenant_id) REFERENCES tenants(id) ON DELETE CASCADE</text>
</g>
</g>
</svg>
