<?xml version="1.0" encoding="UTF-8" standalone="no"?>
<!DOCTYPE svg PUBLIC "-//W3C//DTD SVG 1.1//EN"
 "http://www.w3.org/Graphics/SVG/1.1/DTD/svg11.dtd">
<!-- Generated by graphviz version 2.40.1 (20161225.0304)
 -->
<!-- Title: public.employment_types Pages: 1 -->
<svg width="1131pt" height="959pt"
 viewBox="0.00 0.00 1131.00 959.00" xmlns="http://www.w3.org/2000/svg" xmlns:xlink="http://www.w3.org/1999/xlink">
<g id="graph0" class="graph" transform="scale(1 1) rotate(0) translate(4 955)">
<title>public.employment_types</title>
<polygon fill="#ffffff" stroke="transparent" points="-4,4 -4,-955 1127,-955 1127,4 -4,4"/>
<!-- public.employment_types -->
<g id="node1" class="node">
<title>public.employment_types</title>
<polygon fill="#efefef" stroke="transparent" points="364,-472.5 364,-507.5 678,-507.5 678,-472.5 364,-472.5"/>
<polygon fill="none" stroke="#000000" points="364,-472.5 364,-507.5 678,-507.5 678,-472.5 364,-472.5"/>
<text text-anchor="start" x="370.8522" y="-485.3" font-family="Arial Bold" font-size="18.00" fill="#000000">public.employment_types</text>
<text text-anchor="start" x="573.894" y="-485.3" font-family="Arial" font-size="14.00" fill="#000000"> </text>
<text text-anchor="start" x="577.7846" y="-485.3" font-family="Arial" font-size="14.00" fill="#666666">[BASE TABLE]</text>
<polygon fill="none" stroke="#000000" points="364,-442.5 364,-472.5 678,-472.5 678,-442.5 364,-442.5"/>
<text text-anchor="start" x="371" y="-453.9" font-family="Arial" font-size="14.00" fill="#000000">id </text>
<text text-anchor="start" x="385.7798" y="-453.9" font-family="Arial" font-size="14.00" fill="#666666">[uuid]</text>
<polygon fill="none" stroke="#000000" points="364,-412.5 364,-442.5 678,-442.5 678,-412.5 364,-412.5"/>
<text text-anchor="start" x="371" y="-423.9" font-family="Arial" font-size="14.00" fill="#000000">tenant_id </text>
<text text-anchor="start" x="432.474" y="-423.9" font-family="Arial" font-size="14.00" fill="#666666">[uuid]</text>
<polygon fill="none" stroke="#000000" points="364,-382.5 364,-412.5 678,-412.5 678,-382.5 364,-382.5"/>
<text text-anchor="start" x="371" y="-393.9" font-family="Arial" font-size="14.00" fill="#000000">name </text>
<text text-anchor="start" x="409.899" y="-393.9" font-family="Arial" font-size="14.00" fill="#666666">[text]</text>
<polygon fill="none" stroke="#000000" points="364,-352.5 364,-382.5 678,-382.5 678,-352.5 364,-352.5"/>
<text text-anchor="start" x="371" y="-363.9" font-family="Arial" font-size="14.00" fill="#000000">created_at </text>
<text text-anchor="start" x="441.028" y="-363.9" font-family="Arial" font-size="14.00" fill="#666666">[timestamp without time zone]</text>
<polygon fill="none" stroke="#000000" points="364,-322.5 364,-352.5 678,-352.5 678,-322.5 364,-322.5"/>
<text text-anchor="start" x="371" y="-333.9" font-family="Arial" font-size="14.00" fill="#000000">updated_at </text>
<text text-anchor="start" x="444.9326" y="-333.9" font-family="Arial" font-size="14.00" fill="#666666">[timestamp without time zone]</text>
<polygon fill="none" stroke="#000000" stroke-width="3" points="362.5,-321.5 362.5,-509.5 679.5,-509.5 679.5,-321.5 362.5,-321.5"/>
</g>
<!-- public.tenants -->
<g id="node3" class="node">
<title>public.tenants</title>
<polygon fill="#efefef" stroke="transparent" points="384,-162.5 384,-197.5 657,-197.5 657,-162.5 384,-162.5"/>
<polygon fill="none" stroke="#000000" points="384,-162.5 384,-197.5 657,-197.5 657,-162.5 384,-162.5"/>
<text text-anchor="start" x="416.3539" y="-175.3" font-family="Arial Bold" font-size="18.00" fill="#000000">public.tenants</text>
<text text-anchor="start" x="527.3923" y="-175.3" font-family="Arial" font-size="14.00" fill="#000000"> </text>
<text text-anchor="start" x="531.2829" y="-175.3" font-family="Arial" font-size="14.00" fill="#666666">[BASE TABLE]</text>
<polygon fill="none" stroke="#000000" points="384,-132.5 384,-162.5 657,-162.5 657,-132.5 384,-132.5"/>
<text text-anchor="start" x="391" y="-143.9" font-family="Arial" font-size="14.00" fill="#000000">id </text>
<text text-anchor="start" x="405.7798" y="-143.9" font-family="Arial" font-size="14.00" fill="#666666">[uuid]</text>
<polygon fill="none" stroke="#000000" points="384,-102.5 384,-132.5 657,-132.5 657,-102.5 384,-102.5"/>
<text text-anchor="start" x="391" y="-113.9" font-family="Arial" font-size="14.00" fill="#000000">name </text>
<text text-anchor="start" x="429.899" y="-113.9" font-family="Arial" font-size="14.00" fill="#666666">[text]</text>
<polygon fill="none" stroke="#000000" points="384,-72.5 384,-102.5 657,-102.5 657,-72.5 384,-72.5"/>
<text text-anchor="start" x="391" y="-83.9" font-family="Arial" font-size="14.00" fill="#000000">created_at </text>
<text text-anchor="start" x="461.028" y="-83.9" font-family="Arial" font-size="14.00" fill="#666666">[timestamp without time zone]</text>
<polygon fill="none" stroke="#000000" points="384,-42.5 384,-72.5 657,-72.5 657,-42.5 384,-42.5"/>
<text text-anchor="start" x="390.9636" y="-53.9" font-family="Arial" font-size="14.00" fill="#000000">updated_at </text>
<text text-anchor="start" x="464.8962" y="-53.9" font-family="Arial" font-size="14.00" fill="#666666">[timestamp without time zone]</text>
</g>
<!-- public.employment_types&#45;&gt;public.tenants -->
<g id="edge2" class="edge">
<title>public.employment_types:tenant_id&#45;&gt;public.tenants:id</title>
<path fill="none" stroke="#000000" d="M353.8176,-426.6238C299.6446,-416.669 322.1039,-324.3588 364,-277 450.9327,-178.7324 570.0673,-339.2676 657,-241 684.5343,-209.8756 698.5556,-147.5 657,-147.5"/>
<polygon fill="#000000" stroke="#000000" points="354.0368,-426.6426 363.6142,-431.9834 359.0184,-427.0713 364,-427.5 364,-427.5 364,-427.5 359.0184,-427.0713 364.3858,-423.0166 354.0368,-426.6426 354.0368,-426.6426"/>
<text text-anchor="start" x="6.7065" y="-437.5" font-family="Arial" font-size="10.00" fill="#000000">FOREIGN KEY (tenant_id) REFERENCES tenants(id) ON DELETE CASCADE</text>
</g>
<!-- public.users -->
<g id="node2" class="node">
<title>public.users</title>
<polygon fill="#efefef" stroke="transparent" points="384,-872.5 384,-907.5 657,-907.5 657,-872.5 384,-872.5"/>
<polygon fill="none" stroke="#000000" points="384,-872.5 384,-907.5 657,-907.5 657,-872.5 384,-872.5"/>
<text text-anchor="start" x="423.8662" y="-885.3" font-family="Arial Bold" font-size="18.00" fill="#000000">public.users</text>
<text text-anchor="start" x="519.88" y="-885.3" font-family="Arial" font-size="14.00" fill="#000000"> </text>
<text text-anchor="start" x="523.7706" y="-885.3" font-family="Arial" font-size="14.00" fill="#666666">[BASE TABLE]</text>
<polygon fill="none" stroke="#000000" points="384,-842.5 384,-872.5 657,-872.5 657,-842.5 384,-842.5"/>
<text text-anchor="start" x="391" y="-853.9" font-family="Arial" font-size="14.00" fill="#000000">id </text>
<text text-anchor="start" x="405.7798" y="-853.9" font-family="Arial" font-size="14.00" fill="#666666">[uuid]</text>
<polygon fill="none" stroke="#000000" points="384,-812.5 384,-842.5 657,-842.5 657,-812.5 384,-812.5"/>
<text text-anchor="start" x="391" y="-823.9" font-family="Arial" font-size="14.00" fill="#000000">tenant_id </text>
<text text-anchor="start" x="452.474" y="-823.9" font-family="Arial" font-size="14.00" fill="#666666">[uuid]</text>
<polygon fill="none" stroke="#000000" points="384,-782.5 384,-812.5 657,-812.5 657,-782.5 384,-782.5"/>
<text text-anchor="start" x="391" y="-793.9" font-family="Arial" font-size="14.00" fill="#000000">department_id </text>
<text text-anchor="start" x="484.3604" y="-793.9" font-family="Arial" font-size="14.00" fill="#666666">[uuid]</text>
<polygon fill="none" stroke="#000000" points="384,-752.5 384,-782.5 657,-782.5 657,-752.5 384,-752.5"/>
<text text-anchor="start" x="391" y="-763.9" font-family="Arial" font-size="14.00" fill="#000000">employment_type_id </text>
<text text-anchor="start" x="524.0322" y="-763.9" font-family="Arial" font-size="14.00" fill="#666666">[uuid]</text>
<polygon fill="none" stroke="#000000" points="384,-722.5 384,-752.5 657,-752.5 657,-722.5 384,-722.5"/>
<text text-anchor="start" x="391" y="-733.9" font-family="Arial" font-size="14.00" fill="#000000">name </text>
<text text-anchor="start" x="429.899" y="-733.9" font-family="Arial" font-size="14.00" fill="#666666">[text]</text>
<polygon fill="none" stroke="#000000" points="384,-692.5 384,-722.5 657,-722.5 657,-692.5 384,-692.5"/>
<text text-anchor="start" x="391" y="-703.9" font-family="Arial" font-size="14.00" fill="#000000">email </text>
<text text-anchor="start" x="428.3296" y="-703.9" font-family="Arial" font-size="14.00" fill="#666666">[text]</text>
<polygon fill="none" stroke="#000000" points="384,-662.5 384,-692.5 657,-692.5 657,-662.5 384,-662.5"/>
<text text-anchor="start" x="391" y="-673.9" font-family="Arial" font-size="14.00" fill="#000000">created_at </text>
<text text-anchor="start" x="461.028" y="-673.9" font-family="Arial" font-size="14.00" fill="#666666">[timestamp without time zone]</text>
<polygon fill="none" stroke="#000000" points="384,-632.5 384,-662.5 657,-662.5 657,-632.5 384,-632.5"/>
<text text-anchor="start" x="390.9636" y="-643.9" font-family="Arial" font-size="14.00" fill="#000000">updated_at </text>
<text text-anchor="start" x="464.8962" y="-643.9" font-family="Arial" font-size="14.00" fill="#666666">[timestamp without time zone]</text>
</g>
<!-- public.users&#45;&gt;public.employment_types -->
<g id="edge1" class="edge">
<title>public.users:employment_type_id&#45;&gt;public.employment_types:id</title>
<path fill="none" stroke="#000000" d="M667,-766.7992C733.4457,-756.981 706.9229,-646.4321 657,-590 570.0673,-491.7324 450.9327,-652.2676 364,-554 335.5823,-521.877 321.1111,-457.5 364,-457.5"/>
<polygon fill="#000000" stroke="#000000" points="666.9755,-766.8009 656.6854,-763.011 661.9878,-767.1504 657,-767.5 657,-767.5 657,-767.5 661.9878,-767.1504 657.3146,-771.989 666.9755,-766.8009 666.9755,-766.8009"/>
<text text-anchor="start" x="663.5935" y="-777.5" font-family="Arial" font-size="10.00" fill="#000000">FOREIGN KEY (employment_type_id) REFERENCES employment_types(id) ON DELETE CASCADE</text>
</g>
</g>
</svg>
