<?xml version="1.0" encoding="UTF-8" standalone="no"?>
<!DOCTYPE svg PUBLIC "-//W3C//DTD SVG 1.1//EN"
 "http://www.w3.org/Graphics/SVG/1.1/DTD/svg11.dtd">
<!-- Generated by graphviz version 2.40.1 (20161225.0304)
 -->
<!-- Title: public.resources Pages: 1 -->
<svg width="736pt" height="839pt"
 viewBox="0.00 0.00 735.50 839.00" xmlns="http://www.w3.org/2000/svg" xmlns:xlink="http://www.w3.org/1999/xlink">
<g id="graph0" class="graph" transform="scale(1 1) rotate(0) translate(4 835)">
<title>public.resources</title>
<polygon fill="#ffffff" stroke="transparent" points="-4,4 -4,-835 731.5,-835 731.5,4 -4,4"/>
<!-- public.resources -->
<g id="node1" class="node">
<title>public.resources</title>
<polygon fill="#efefef" stroke="transparent" points="399,-472.5 399,-507.5 672,-507.5 672,-472.5 399,-472.5"/>
<polygon fill="none" stroke="#000000" points="399,-472.5 399,-507.5 672,-507.5 672,-472.5 399,-472.5"/>
<text text-anchor="start" x="421.3639" y="-485.3" font-family="Arial Bold" font-size="18.00" fill="#000000">public.resources</text>
<text text-anchor="start" x="552.3823" y="-485.3" font-family="Arial" font-size="14.00" fill="#000000"> </text>
<text text-anchor="start" x="556.2729" y="-485.3" font-family="Arial" font-size="14.00" fill="#666666">[BASE TABLE]</text>
<polygon fill="none" stroke="#000000" points="399,-442.5 399,-472.5 672,-472.5 672,-442.5 399,-442.5"/>
<text text-anchor="start" x="406" y="-453.9" font-family="Arial" font-size="14.00" fill="#000000">id </text>
<text text-anchor="start" x="420.7798" y="-453.9" font-family="Arial" font-size="14.00" fill="#666666">[uuid]</text>
<polygon fill="none" stroke="#000000" points="399,-412.5 399,-442.5 672,-442.5 672,-412.5 399,-412.5"/>
<text text-anchor="start" x="406" y="-423.9" font-family="Arial" font-size="14.00" fill="#000000">tenant_id </text>
<text text-anchor="start" x="467.474" y="-423.9" font-family="Arial" font-size="14.00" fill="#666666">[uuid]</text>
<polygon fill="none" stroke="#000000" points="399,-382.5 399,-412.5 672,-412.5 672,-382.5 399,-382.5"/>
<text text-anchor="start" x="406" y="-393.9" font-family="Arial" font-size="14.00" fill="#000000">name </text>
<text text-anchor="start" x="444.899" y="-393.9" font-family="Arial" font-size="14.00" fill="#666666">[text]</text>
<polygon fill="none" stroke="#000000" points="399,-352.5 399,-382.5 672,-382.5 672,-352.5 399,-352.5"/>
<text text-anchor="start" x="406" y="-363.9" font-family="Arial" font-size="14.00" fill="#000000">created_at </text>
<text text-anchor="start" x="476.028" y="-363.9" font-family="Arial" font-size="14.00" fill="#666666">[timestamp without time zone]</text>
<polygon fill="none" stroke="#000000" points="399,-322.5 399,-352.5 672,-352.5 672,-322.5 399,-322.5"/>
<text text-anchor="start" x="405.9636" y="-333.9" font-family="Arial" font-size="14.00" fill="#000000">updated_at </text>
<text text-anchor="start" x="479.8962" y="-333.9" font-family="Arial" font-size="14.00" fill="#666666">[timestamp without time zone]</text>
<polygon fill="none" stroke="#000000" stroke-width="3" points="397,-321.5 397,-509.5 673,-509.5 673,-321.5 397,-321.5"/>
</g>
<!-- public.tenants -->
<g id="node3" class="node">
<title>public.tenants</title>
<polygon fill="#efefef" stroke="transparent" points="399,-162.5 399,-197.5 672,-197.5 672,-162.5 399,-162.5"/>
<polygon fill="none" stroke="#000000" points="399,-162.5 399,-197.5 672,-197.5 672,-162.5 399,-162.5"/>
<text text-anchor="start" x="431.3539" y="-175.3" font-family="Arial Bold" font-size="18.00" fill="#000000">public.tenants</text>
<text text-anchor="start" x="542.3923" y="-175.3" font-family="Arial" font-size="14.00" fill="#000000"> </text>
<text text-anchor="start" x="546.2829" y="-175.3" font-family="Arial" font-size="14.00" fill="#666666">[BASE TABLE]</text>
<polygon fill="none" stroke="#000000" points="399,-132.5 399,-162.5 672,-162.5 672,-132.5 399,-132.5"/>
<text text-anchor="start" x="406" y="-143.9" font-family="Arial" font-size="14.00" fill="#000000">id </text>
<text text-anchor="start" x="420.7798" y="-143.9" font-family="Arial" font-size="14.00" fill="#666666">[uuid]</text>
<polygon fill="none" stroke="#000000" points="399,-102.5 399,-132.5 672,-132.5 672,-102.5 399,-102.5"/>
<text text-anchor="start" x="406" y="-113.9" font-family="Arial" font-size="14.00" fill="#000000">name </text>
<text text-anchor="start" x="444.899" y="-113.9" font-family="Arial" font-size="14.00" fill="#666666">[text]</text>
<polygon fill="none" stroke="#000000" points="399,-72.5 399,-102.5 672,-102.5 672,-72.5 399,-72.5"/>
<text text-anchor="start" x="406" y="-83.9" font-family="Arial" font-size="14.00" fill="#000000">created_at </text>
<text text-anchor="start" x="476.028" y="-83.9" font-family="Arial" font-size="14.00" fill="#666666">[timestamp without time zone]</text>
<polygon fill="none" stroke="#000000" points="399,-42.5 399,-72.5 672,-72.5 672,-42.5 399,-42.5"/>
<text text-anchor="start" x="405.9636" y="-53.9" font-family="Arial" font-size="14.00" fill="#000000">updated_at </text>
<text text-anchor="start" x="479.8962" y="-53.9" font-family="Arial" font-size="14.00" fill="#666666">[timestamp without time zone]</text>
</g>
<!-- public.resources&#45;&gt;public.tenants -->
<g id="edge2" class="edge">
<title>public.resources:tenant_id&#45;&gt;public.tenants:id</title>
<path fill="none" stroke="#000000" d="M388.7265,-426.839C274.6554,-411.8652 278.0799,-147.5 399,-147.5"/>
<polygon fill="#000000" stroke="#000000" points="389.0206,-426.8578 398.711,-431.9907 394.0103,-427.1789 399,-427.5 399,-427.5 399,-427.5 394.0103,-427.1789 399.289,-423.0093 389.0206,-426.8578 389.0206,-426.8578"/>
<text text-anchor="start" x="41.7065" y="-437.5" font-family="Arial" font-size="10.00" fill="#000000">FOREIGN KEY (tenant_id) REFERENCES tenants(id) ON DELETE CASCADE</text>
</g>
<!-- public.role_permissions -->
<g id="node2" class="node">
<title>public.role_permissions</title>
<polygon fill="#efefef" stroke="transparent" points="386,-752.5 386,-787.5 685,-787.5 685,-752.5 386,-752.5"/>
<polygon fill="none" stroke="#000000" points="386,-752.5 386,-787.5 685,-787.5 685,-752.5 386,-752.5"/>
<text text-anchor="start" x="392.8672" y="-765.3" font-family="Arial Bold" font-size="18.00" fill="#000000">public.role_permissions</text>
<text text-anchor="start" x="580.879" y="-765.3" font-family="Arial" font-size="14.00" fill="#000000"> </text>
<text text-anchor="start" x="584.7696" y="-765.3" font-family="Arial" font-size="14.00" fill="#666666">[BASE TABLE]</text>
<polygon fill="none" stroke="#000000" points="386,-722.5 386,-752.5 685,-752.5 685,-722.5 386,-722.5"/>
<text text-anchor="start" x="393" y="-733.9" font-family="Arial" font-size="14.00" fill="#000000">id </text>
<text text-anchor="start" x="407.7798" y="-733.9" font-family="Arial" font-size="14.00" fill="#666666">[uuid]</text>
<polygon fill="none" stroke="#000000" points="386,-692.5 386,-722.5 685,-722.5 685,-692.5 386,-692.5"/>
<text text-anchor="start" x="393" y="-703.9" font-family="Arial" font-size="14.00" fill="#000000">role_id </text>
<text text-anchor="start" x="438.8948" y="-703.9" font-family="Arial" font-size="14.00" fill="#666666">[uuid]</text>
<polygon fill="none" stroke="#000000" points="386,-662.5 386,-692.5 685,-692.5 685,-662.5 386,-662.5"/>
<text text-anchor="start" x="393" y="-673.9" font-family="Arial" font-size="14.00" fill="#000000">resource_id </text>
<text text-anchor="start" x="470.014" y="-673.9" font-family="Arial" font-size="14.00" fill="#666666">[uuid]</text>
<polygon fill="none" stroke="#000000" points="386,-632.5 386,-662.5 685,-662.5 685,-632.5 386,-632.5"/>
<text text-anchor="start" x="393" y="-643.9" font-family="Arial" font-size="14.00" fill="#000000">action_id </text>
<text text-anchor="start" x="452.9074" y="-643.9" font-family="Arial" font-size="14.00" fill="#666666">[uuid]</text>
</g>
<!-- public.role_permissions&#45;&gt;public.resources -->
<g id="edge1" class="edge">
<title>public.role_permissions:resource_id&#45;&gt;public.resources:id</title>
<path fill="none" stroke="#000000" d="M375.8159,-676.6591C289.102,-661.8888 304.5908,-457.5 399,-457.5"/>
<polygon fill="#000000" stroke="#000000" points="376.0339,-676.677 385.6296,-681.9847 381.017,-677.0885 386,-677.5 386,-677.5 386,-677.5 381.017,-677.0885 386.3704,-673.0153 376.0339,-676.677 376.0339,-676.677"/>
<text text-anchor="start" x="6.6065" y="-687.5" font-family="Arial" font-size="10.00" fill="#000000">FOREIGN KEY (resource_id) REFERENCES resources(id) ON DELETE CASCADE</text>
</g>
</g>
</svg>
