<?xml version="1.0" encoding="UTF-8" standalone="no"?>
<!DOCTYPE svg PUBLIC "-//W3C//DTD SVG 1.1//EN"
 "http://www.w3.org/Graphics/SVG/1.1/DTD/svg11.dtd">
<!-- Generated by graphviz version 2.40.1 (20161225.0304)
 -->
<!-- Title: public.users Pages: 1 -->
<svg width="691pt" height="592pt"
 viewBox="0.00 0.00 690.50 592.00" xmlns="http://www.w3.org/2000/svg" xmlns:xlink="http://www.w3.org/1999/xlink">
<g id="graph0" class="graph" transform="scale(1 1) rotate(0) translate(4 588)">
<title>public.users</title>
<polygon fill="#ffffff" stroke="transparent" points="-4,4 -4,-588 686.5,-588 686.5,4 -4,4"/>
<!-- public.users -->
<g id="node1" class="node">
<title>public.users</title>
<polygon fill="#efefef" stroke="transparent" points="364,-502.5 364,-537.5 637,-537.5 637,-502.5 364,-502.5"/>
<polygon fill="none" stroke="#000000" points="364,-502.5 364,-537.5 637,-537.5 637,-502.5 364,-502.5"/>
<text text-anchor="start" x="403.8662" y="-515.3" font-family="Arial Bold" font-size="18.00" fill="#000000">public.users</text>
<text text-anchor="start" x="499.88" y="-515.3" font-family="Arial" font-size="14.00" fill="#000000"> </text>
<text text-anchor="start" x="503.7706" y="-515.3" font-family="Arial" font-size="14.00" fill="#666666">[BASE TABLE]</text>
<polygon fill="none" stroke="#000000" points="364,-472.5 364,-502.5 637,-502.5 637,-472.5 364,-472.5"/>
<text text-anchor="start" x="371" y="-483.9" font-family="Arial" font-size="14.00" fill="#000000">id </text>
<text text-anchor="start" x="385.7798" y="-483.9" font-family="Arial" font-size="14.00" fill="#666666">[uuid]</text>
<polygon fill="none" stroke="#000000" points="364,-442.5 364,-472.5 637,-472.5 637,-442.5 364,-442.5"/>
<text text-anchor="start" x="371" y="-453.9" font-family="Arial" font-size="14.00" fill="#000000">tenant_id </text>
<text text-anchor="start" x="432.474" y="-453.9" font-family="Arial" font-size="14.00" fill="#666666">[uuid]</text>
<polygon fill="none" stroke="#000000" points="364,-412.5 364,-442.5 637,-442.5 637,-412.5 364,-412.5"/>
<text text-anchor="start" x="371" y="-423.9" font-family="Arial" font-size="14.00" fill="#000000">name </text>
<text text-anchor="start" x="409.899" y="-423.9" font-family="Arial" font-size="14.00" fill="#666666">[text]</text>
<polygon fill="none" stroke="#000000" points="364,-382.5 364,-412.5 637,-412.5 637,-382.5 364,-382.5"/>
<text text-anchor="start" x="371" y="-393.9" font-family="Arial" font-size="14.00" fill="#000000">email </text>
<text text-anchor="start" x="408.3296" y="-393.9" font-family="Arial" font-size="14.00" fill="#666666">[text]</text>
<polygon fill="none" stroke="#000000" points="364,-352.5 364,-382.5 637,-382.5 637,-352.5 364,-352.5"/>
<text text-anchor="start" x="371" y="-363.9" font-family="Arial" font-size="14.00" fill="#000000">created_at </text>
<text text-anchor="start" x="441.028" y="-363.9" font-family="Arial" font-size="14.00" fill="#666666">[timestamp without time zone]</text>
<polygon fill="none" stroke="#000000" points="364,-322.5 364,-352.5 637,-352.5 637,-322.5 364,-322.5"/>
<text text-anchor="start" x="370.9636" y="-333.9" font-family="Arial" font-size="14.00" fill="#000000">updated_at </text>
<text text-anchor="start" x="444.8962" y="-333.9" font-family="Arial" font-size="14.00" fill="#666666">[timestamp without time zone]</text>
<polygon fill="none" stroke="#000000" stroke-width="3" points="362,-321.5 362,-539.5 638,-539.5 638,-321.5 362,-321.5"/>
</g>
<!-- public.tenants -->
<g id="node2" class="node">
<title>public.tenants</title>
<polygon fill="#efefef" stroke="transparent" points="364,-162.5 364,-197.5 637,-197.5 637,-162.5 364,-162.5"/>
<polygon fill="none" stroke="#000000" points="364,-162.5 364,-197.5 637,-197.5 637,-162.5 364,-162.5"/>
<text text-anchor="start" x="396.3539" y="-175.3" font-family="Arial Bold" font-size="18.00" fill="#000000">public.tenants</text>
<text text-anchor="start" x="507.3923" y="-175.3" font-family="Arial" font-size="14.00" fill="#000000"> </text>
<text text-anchor="start" x="511.2829" y="-175.3" font-family="Arial" font-size="14.00" fill="#666666">[BASE TABLE]</text>
<polygon fill="none" stroke="#000000" points="364,-132.5 364,-162.5 637,-162.5 637,-132.5 364,-132.5"/>
<text text-anchor="start" x="371" y="-143.9" font-family="Arial" font-size="14.00" fill="#000000">id </text>
<text text-anchor="start" x="385.7798" y="-143.9" font-family="Arial" font-size="14.00" fill="#666666">[uuid]</text>
<polygon fill="none" stroke="#000000" points="364,-102.5 364,-132.5 637,-132.5 637,-102.5 364,-102.5"/>
<text text-anchor="start" x="371" y="-113.9" font-family="Arial" font-size="14.00" fill="#000000">name </text>
<text text-anchor="start" x="409.899" y="-113.9" font-family="Arial" font-size="14.00" fill="#666666">[text]</text>
<polygon fill="none" stroke="#000000" points="364,-72.5 364,-102.5 637,-102.5 637,-72.5 364,-72.5"/>
<text text-anchor="start" x="371" y="-83.9" font-family="Arial" font-size="14.00" fill="#000000">created_at </text>
<text text-anchor="start" x="441.028" y="-83.9" font-family="Arial" font-size="14.00" fill="#666666">[timestamp without time zone]</text>
<polygon fill="none" stroke="#000000" points="364,-42.5 364,-72.5 637,-72.5 637,-42.5 364,-42.5"/>
<text text-anchor="start" x="370.9636" y="-53.9" font-family="Arial" font-size="14.00" fill="#000000">updated_at </text>
<text text-anchor="start" x="444.8962" y="-53.9" font-family="Arial" font-size="14.00" fill="#666666">[timestamp without time zone]</text>
</g>
<!-- public.users&#45;&gt;public.tenants -->
<g id="edge1" class="edge">
<title>public.users:tenant_id&#45;&gt;public.tenants:id</title>
<path fill="none" stroke="#000000" d="M354.0381,-455.183C295.2888,-426.815 298.6094,-147.5 364,-147.5"/>
<polygon fill="#000000" stroke="#000000" points="354.26,-455.2345 362.9805,-461.883 359.13,-456.3672 364,-457.5 364,-457.5 364,-457.5 359.13,-456.3672 365.0195,-453.117 354.26,-455.2345 354.26,-455.2345"/>
<text text-anchor="start" x="6.7065" y="-467.5" font-family="Arial" font-size="10.00" fill="#000000">FOREIGN KEY (tenant_id) REFERENCES tenants(id) ON DELETE CASCADE</text>
</g>
</g>
</svg>
