<?xml version="1.0" encoding="UTF-8" standalone="no"?>
<!DOCTYPE svg PUBLIC "-//W3C//DTD SVG 1.1//EN"
 "http://www.w3.org/Graphics/SVG/1.1/DTD/svg11.dtd">
<!-- Generated by graphviz version 2.40.1 (20161225.0304)
 -->
<!-- Title: prp Pages: 1 -->
<svg width="1581pt" height="863pt"
 viewBox="0.00 0.00 1581.00 863.00" xmlns="http://www.w3.org/2000/svg" xmlns:xlink="http://www.w3.org/1999/xlink">
<g id="graph0" class="graph" transform="scale(1 1) rotate(0) translate(4 859)">
<title>prp</title>
<polygon fill="#ffffff" stroke="transparent" points="-4,4 -4,-859 1577,-859 1577,4 -4,4"/>
<!-- public.tenants -->
<g id="node1" class="node">
<title>public.tenants</title>
<polygon fill="#efefef" stroke="transparent" points="896,-162.5 896,-197.5 1169,-197.5 1169,-162.5 896,-162.5"/>
<polygon fill="none" stroke="#000000" points="896,-162.5 896,-197.5 1169,-197.5 1169,-162.5 896,-162.5"/>
<text text-anchor="start" x="928.3539" y="-175.3" font-family="Arial Bold" font-size="18.00" fill="#000000">public.tenants</text>
<text text-anchor="start" x="1039.3923" y="-175.3" font-family="Arial" font-size="14.00" fill="#000000"> </text>
<text text-anchor="start" x="1043.2829" y="-175.3" font-family="Arial" font-size="14.00" fill="#666666">[BASE TABLE]</text>
<polygon fill="none" stroke="#000000" points="896,-132.5 896,-162.5 1169,-162.5 1169,-132.5 896,-132.5"/>
<text text-anchor="start" x="903" y="-143.9" font-family="Arial" font-size="14.00" fill="#000000">id </text>
<text text-anchor="start" x="917.7798" y="-143.9" font-family="Arial" font-size="14.00" fill="#666666">[uuid]</text>
<polygon fill="none" stroke="#000000" points="896,-102.5 896,-132.5 1169,-132.5 1169,-102.5 896,-102.5"/>
<text text-anchor="start" x="903" y="-113.9" font-family="Arial" font-size="14.00" fill="#000000">name </text>
<text text-anchor="start" x="941.899" y="-113.9" font-family="Arial" font-size="14.00" fill="#666666">[text]</text>
<polygon fill="none" stroke="#000000" points="896,-72.5 896,-102.5 1169,-102.5 1169,-72.5 896,-72.5"/>
<text text-anchor="start" x="903" y="-83.9" font-family="Arial" font-size="14.00" fill="#000000">created_at </text>
<text text-anchor="start" x="973.028" y="-83.9" font-family="Arial" font-size="14.00" fill="#666666">[timestamp without time zone]</text>
<polygon fill="none" stroke="#000000" points="896,-42.5 896,-72.5 1169,-72.5 1169,-42.5 896,-42.5"/>
<text text-anchor="start" x="902.9636" y="-53.9" font-family="Arial" font-size="14.00" fill="#000000">updated_at </text>
<text text-anchor="start" x="976.8962" y="-53.9" font-family="Arial" font-size="14.00" fill="#666666">[timestamp without time zone]</text>
</g>
<!-- public.resources -->
<g id="node2" class="node">
<title>public.resources</title>
<polygon fill="#efefef" stroke="transparent" points="91,-484.5 91,-519.5 364,-519.5 364,-484.5 91,-484.5"/>
<polygon fill="none" stroke="#000000" points="91,-484.5 91,-519.5 364,-519.5 364,-484.5 91,-484.5"/>
<text text-anchor="start" x="113.3639" y="-497.3" font-family="Arial Bold" font-size="18.00" fill="#000000">public.resources</text>
<text text-anchor="start" x="244.3823" y="-497.3" font-family="Arial" font-size="14.00" fill="#000000"> </text>
<text text-anchor="start" x="248.2729" y="-497.3" font-family="Arial" font-size="14.00" fill="#666666">[BASE TABLE]</text>
<polygon fill="none" stroke="#000000" points="91,-454.5 91,-484.5 364,-484.5 364,-454.5 91,-454.5"/>
<text text-anchor="start" x="98" y="-465.9" font-family="Arial" font-size="14.00" fill="#000000">id </text>
<text text-anchor="start" x="112.7798" y="-465.9" font-family="Arial" font-size="14.00" fill="#666666">[uuid]</text>
<polygon fill="none" stroke="#000000" points="91,-424.5 91,-454.5 364,-454.5 364,-424.5 91,-424.5"/>
<text text-anchor="start" x="98" y="-435.9" font-family="Arial" font-size="14.00" fill="#000000">tenant_id </text>
<text text-anchor="start" x="159.474" y="-435.9" font-family="Arial" font-size="14.00" fill="#666666">[uuid]</text>
<polygon fill="none" stroke="#000000" points="91,-394.5 91,-424.5 364,-424.5 364,-394.5 91,-394.5"/>
<text text-anchor="start" x="98" y="-405.9" font-family="Arial" font-size="14.00" fill="#000000">name </text>
<text text-anchor="start" x="136.899" y="-405.9" font-family="Arial" font-size="14.00" fill="#666666">[text]</text>
<polygon fill="none" stroke="#000000" points="91,-364.5 91,-394.5 364,-394.5 364,-364.5 91,-364.5"/>
<text text-anchor="start" x="98" y="-375.9" font-family="Arial" font-size="14.00" fill="#000000">created_at </text>
<text text-anchor="start" x="168.028" y="-375.9" font-family="Arial" font-size="14.00" fill="#666666">[timestamp without time zone]</text>
<polygon fill="none" stroke="#000000" points="91,-334.5 91,-364.5 364,-364.5 364,-334.5 91,-334.5"/>
<text text-anchor="start" x="97.9636" y="-345.9" font-family="Arial" font-size="14.00" fill="#000000">updated_at </text>
<text text-anchor="start" x="171.8962" y="-345.9" font-family="Arial" font-size="14.00" fill="#666666">[timestamp without time zone]</text>
</g>
<!-- public.resources&#45;&gt;public.tenants -->
<g id="edge1" class="edge">
<title>public.resources:tenant_id&#45;&gt;public.tenants:id</title>
<path fill="none" stroke="#000000" d="M374.0363,-438.7318C432.4653,-428.8826 363.8343,-326.8104 416,-277 495.9045,-200.7032 785.5195,-147.5 896,-147.5"/>
<polygon fill="#000000" stroke="#000000" points="373.9708,-438.7367 363.6565,-435.0131 368.9854,-439.1184 364,-439.5 364,-439.5 364,-439.5 368.9854,-439.1184 364.3435,-443.9869 373.9708,-438.7367 373.9708,-438.7367"/>
<text text-anchor="start" x="6.7065" y="-449.5" font-family="Arial" font-size="10.00" fill="#000000">FOREIGN KEY (tenant_id) REFERENCES tenants(id) ON DELETE CASCADE</text>
</g>
<!-- public.actions -->
<g id="node3" class="node">
<title>public.actions</title>
<polygon fill="#efefef" stroke="transparent" points="468,-439.5 468,-474.5 688,-474.5 688,-439.5 468,-439.5"/>
<polygon fill="none" stroke="#000000" points="468,-439.5 468,-474.5 688,-474.5 688,-439.5 468,-439.5"/>
<text text-anchor="start" x="474.861" y="-452.3" font-family="Arial Bold" font-size="18.00" fill="#000000">public.actions</text>
<text text-anchor="start" x="583.8852" y="-452.3" font-family="Arial" font-size="14.00" fill="#000000"> </text>
<text text-anchor="start" x="587.7758" y="-452.3" font-family="Arial" font-size="14.00" fill="#666666">[BASE TABLE]</text>
<polygon fill="none" stroke="#000000" points="468,-409.5 468,-439.5 688,-439.5 688,-409.5 468,-409.5"/>
<text text-anchor="start" x="475" y="-420.9" font-family="Arial" font-size="14.00" fill="#000000">id </text>
<text text-anchor="start" x="489.7798" y="-420.9" font-family="Arial" font-size="14.00" fill="#666666">[uuid]</text>
<polygon fill="none" stroke="#000000" points="468,-379.5 468,-409.5 688,-409.5 688,-379.5 468,-379.5"/>
<text text-anchor="start" x="475" y="-390.9" font-family="Arial" font-size="14.00" fill="#000000">name </text>
<text text-anchor="start" x="513.899" y="-390.9" font-family="Arial" font-size="14.00" fill="#666666">[text]</text>
</g>
<!-- public.roles -->
<g id="node4" class="node">
<title>public.roles</title>
<polygon fill="#efefef" stroke="transparent" points="793,-484.5 793,-519.5 1066,-519.5 1066,-484.5 793,-484.5"/>
<polygon fill="none" stroke="#000000" points="793,-484.5 793,-519.5 1066,-519.5 1066,-484.5 793,-484.5"/>
<text text-anchor="start" x="835.3691" y="-497.3" font-family="Arial Bold" font-size="18.00" fill="#000000">public.roles</text>
<text text-anchor="start" x="926.3771" y="-497.3" font-family="Arial" font-size="14.00" fill="#000000"> </text>
<text text-anchor="start" x="930.2677" y="-497.3" font-family="Arial" font-size="14.00" fill="#666666">[BASE TABLE]</text>
<polygon fill="none" stroke="#000000" points="793,-454.5 793,-484.5 1066,-484.5 1066,-454.5 793,-454.5"/>
<text text-anchor="start" x="800" y="-465.9" font-family="Arial" font-size="14.00" fill="#000000">id </text>
<text text-anchor="start" x="814.7798" y="-465.9" font-family="Arial" font-size="14.00" fill="#666666">[uuid]</text>
<polygon fill="none" stroke="#000000" points="793,-424.5 793,-454.5 1066,-454.5 1066,-424.5 793,-424.5"/>
<text text-anchor="start" x="800" y="-435.9" font-family="Arial" font-size="14.00" fill="#000000">tenant_id </text>
<text text-anchor="start" x="861.474" y="-435.9" font-family="Arial" font-size="14.00" fill="#666666">[uuid]</text>
<polygon fill="none" stroke="#000000" points="793,-394.5 793,-424.5 1066,-424.5 1066,-394.5 793,-394.5"/>
<text text-anchor="start" x="800" y="-405.9" font-family="Arial" font-size="14.00" fill="#000000">name </text>
<text text-anchor="start" x="838.899" y="-405.9" font-family="Arial" font-size="14.00" fill="#666666">[text]</text>
<polygon fill="none" stroke="#000000" points="793,-364.5 793,-394.5 1066,-394.5 1066,-364.5 793,-364.5"/>
<text text-anchor="start" x="800" y="-375.9" font-family="Arial" font-size="14.00" fill="#000000">created_at </text>
<text text-anchor="start" x="870.028" y="-375.9" font-family="Arial" font-size="14.00" fill="#666666">[timestamp without time zone]</text>
<polygon fill="none" stroke="#000000" points="793,-334.5 793,-364.5 1066,-364.5 1066,-334.5 793,-334.5"/>
<text text-anchor="start" x="799.9636" y="-345.9" font-family="Arial" font-size="14.00" fill="#000000">updated_at </text>
<text text-anchor="start" x="873.8962" y="-345.9" font-family="Arial" font-size="14.00" fill="#666666">[timestamp without time zone]</text>
</g>
<!-- public.roles&#45;&gt;public.tenants -->
<g id="edge2" class="edge">
<title>public.roles:tenant_id&#45;&gt;public.tenants:id</title>
<path fill="none" stroke="#000000" d="M1076.2685,-438.6115C1128.5215,-428.8848 1102.9156,-341.6158 1066,-292 1018.9127,-228.7133 943.0873,-304.2867 896,-241 871.1942,-207.6603 854.4444,-147.5 896,-147.5"/>
<polygon fill="#000000" stroke="#000000" points="1075.9628,-438.6379 1065.612,-435.0168 1070.9814,-439.0689 1066,-439.5 1066,-439.5 1066,-439.5 1070.9814,-439.0689 1066.388,-443.9832 1075.9628,-438.6379 1075.9628,-438.6379"/>
<text text-anchor="start" x="1072.7065" y="-449.5" font-family="Arial" font-size="10.00" fill="#000000">FOREIGN KEY (tenant_id) REFERENCES tenants(id) ON DELETE CASCADE</text>
</g>
<!-- public.users -->
<g id="node5" class="node">
<title>public.users</title>
<polygon fill="#efefef" stroke="transparent" points="1209,-499.5 1209,-534.5 1482,-534.5 1482,-499.5 1209,-499.5"/>
<polygon fill="none" stroke="#000000" points="1209,-499.5 1209,-534.5 1482,-534.5 1482,-499.5 1209,-499.5"/>
<text text-anchor="start" x="1248.8662" y="-512.3" font-family="Arial Bold" font-size="18.00" fill="#000000">public.users</text>
<text text-anchor="start" x="1344.88" y="-512.3" font-family="Arial" font-size="14.00" fill="#000000"> </text>
<text text-anchor="start" x="1348.7706" y="-512.3" font-family="Arial" font-size="14.00" fill="#666666">[BASE TABLE]</text>
<polygon fill="none" stroke="#000000" points="1209,-469.5 1209,-499.5 1482,-499.5 1482,-469.5 1209,-469.5"/>
<text text-anchor="start" x="1216" y="-480.9" font-family="Arial" font-size="14.00" fill="#000000">id </text>
<text text-anchor="start" x="1230.7798" y="-480.9" font-family="Arial" font-size="14.00" fill="#666666">[uuid]</text>
<polygon fill="none" stroke="#000000" points="1209,-439.5 1209,-469.5 1482,-469.5 1482,-439.5 1209,-439.5"/>
<text text-anchor="start" x="1216" y="-450.9" font-family="Arial" font-size="14.00" fill="#000000">tenant_id </text>
<text text-anchor="start" x="1277.474" y="-450.9" font-family="Arial" font-size="14.00" fill="#666666">[uuid]</text>
<polygon fill="none" stroke="#000000" points="1209,-409.5 1209,-439.5 1482,-439.5 1482,-409.5 1209,-409.5"/>
<text text-anchor="start" x="1216" y="-420.9" font-family="Arial" font-size="14.00" fill="#000000">name </text>
<text text-anchor="start" x="1254.899" y="-420.9" font-family="Arial" font-size="14.00" fill="#666666">[text]</text>
<polygon fill="none" stroke="#000000" points="1209,-379.5 1209,-409.5 1482,-409.5 1482,-379.5 1209,-379.5"/>
<text text-anchor="start" x="1216" y="-390.9" font-family="Arial" font-size="14.00" fill="#000000">email </text>
<text text-anchor="start" x="1253.3296" y="-390.9" font-family="Arial" font-size="14.00" fill="#666666">[text]</text>
<polygon fill="none" stroke="#000000" points="1209,-349.5 1209,-379.5 1482,-379.5 1482,-349.5 1209,-349.5"/>
<text text-anchor="start" x="1216" y="-360.9" font-family="Arial" font-size="14.00" fill="#000000">created_at </text>
<text text-anchor="start" x="1286.028" y="-360.9" font-family="Arial" font-size="14.00" fill="#666666">[timestamp without time zone]</text>
<polygon fill="none" stroke="#000000" points="1209,-319.5 1209,-349.5 1482,-349.5 1482,-319.5 1209,-319.5"/>
<text text-anchor="start" x="1215.9636" y="-330.9" font-family="Arial" font-size="14.00" fill="#000000">updated_at </text>
<text text-anchor="start" x="1289.8962" y="-330.9" font-family="Arial" font-size="14.00" fill="#666666">[timestamp without time zone]</text>
</g>
<!-- public.users&#45;&gt;public.tenants -->
<g id="edge3" class="edge">
<title>public.users:tenant_id&#45;&gt;public.tenants:id</title>
<path fill="none" stroke="#000000" d="M1198.8797,-453.8709C1083.546,-438.524 1302.9697,-147.5 1169,-147.5"/>
<polygon fill="#000000" stroke="#000000" points="1199.0193,-453.8795 1208.7208,-458.9913 1204.0096,-454.1898 1209,-454.5 1209,-454.5 1209,-454.5 1204.0096,-454.1898 1209.2792,-450.0087 1199.0193,-453.8795 1199.0193,-453.8795"/>
<text text-anchor="start" x="1215.7065" y="-464.5" font-family="Arial" font-size="10.00" fill="#000000">FOREIGN KEY (tenant_id) REFERENCES tenants(id) ON DELETE CASCADE</text>
</g>
<!-- public.role_permissions -->
<g id="node6" class="node">
<title>public.role_permissions</title>
<polygon fill="#efefef" stroke="transparent" points="428,-776.5 428,-811.5 727,-811.5 727,-776.5 428,-776.5"/>
<polygon fill="none" stroke="#000000" points="428,-776.5 428,-811.5 727,-811.5 727,-776.5 428,-776.5"/>
<text text-anchor="start" x="434.8672" y="-789.3" font-family="Arial Bold" font-size="18.00" fill="#000000">public.role_permissions</text>
<text text-anchor="start" x="622.879" y="-789.3" font-family="Arial" font-size="14.00" fill="#000000"> </text>
<text text-anchor="start" x="626.7696" y="-789.3" font-family="Arial" font-size="14.00" fill="#666666">[BASE TABLE]</text>
<polygon fill="none" stroke="#000000" points="428,-746.5 428,-776.5 727,-776.5 727,-746.5 428,-746.5"/>
<text text-anchor="start" x="435" y="-757.9" font-family="Arial" font-size="14.00" fill="#000000">id </text>
<text text-anchor="start" x="449.7798" y="-757.9" font-family="Arial" font-size="14.00" fill="#666666">[uuid]</text>
<polygon fill="none" stroke="#000000" points="428,-716.5 428,-746.5 727,-746.5 727,-716.5 428,-716.5"/>
<text text-anchor="start" x="435" y="-727.9" font-family="Arial" font-size="14.00" fill="#000000">role_id </text>
<text text-anchor="start" x="480.8948" y="-727.9" font-family="Arial" font-size="14.00" fill="#666666">[uuid]</text>
<polygon fill="none" stroke="#000000" points="428,-686.5 428,-716.5 727,-716.5 727,-686.5 428,-686.5"/>
<text text-anchor="start" x="435" y="-697.9" font-family="Arial" font-size="14.00" fill="#000000">resource_id </text>
<text text-anchor="start" x="512.014" y="-697.9" font-family="Arial" font-size="14.00" fill="#666666">[uuid]</text>
<polygon fill="none" stroke="#000000" points="428,-656.5 428,-686.5 727,-686.5 727,-656.5 428,-656.5"/>
<text text-anchor="start" x="435" y="-667.9" font-family="Arial" font-size="14.00" fill="#000000">action_id </text>
<text text-anchor="start" x="494.9074" y="-667.9" font-family="Arial" font-size="14.00" fill="#666666">[uuid]</text>
</g>
<!-- public.role_permissions&#45;&gt;public.resources -->
<g id="edge4" class="edge">
<title>public.role_permissions:resource_id&#45;&gt;public.resources:id</title>
<path fill="none" stroke="#000000" d="M417.912,-700.7054C330.9861,-685.9117 467.3066,-469.5 364,-469.5"/>
<polygon fill="#000000" stroke="#000000" points="418.0309,-700.7147 427.6466,-705.9861 423.0154,-701.1073 428,-701.5 428,-701.5 428,-701.5 423.0154,-701.1073 428.3534,-697.0139 418.0309,-700.7147 418.0309,-700.7147"/>
<text text-anchor="start" x="48.6065" y="-711.5" font-family="Arial" font-size="10.00" fill="#000000">FOREIGN KEY (resource_id) REFERENCES resources(id) ON DELETE CASCADE</text>
</g>
<!-- public.role_permissions&#45;&gt;public.actions -->
<g id="edge5" class="edge">
<title>public.role_permissions:action_id&#45;&gt;public.actions:id</title>
<path fill="none" stroke="#000000" d="M577.5037,-646.4525C570.5606,-579.0009 492.7258,-588.8883 468,-518 454.3141,-478.7628 426.4444,-424.5 468,-424.5"/>
<polygon fill="#000000" stroke="#000000" points="577.5066,-646.5122 573.5055,-656.7221 577.7533,-651.5061 578,-656.5 578,-656.5 578,-656.5 577.7533,-651.5061 582.4945,-656.2779 577.5066,-646.5122 577.5066,-646.5122"/>
<text text-anchor="start" x="222.8255" y="-666.5" font-family="Arial" font-size="10.00" fill="#000000">FOREIGN KEY (action_id) REFERENCES actions(id) ON DELETE CASCADE</text>
</g>
<!-- public.role_permissions&#45;&gt;public.roles -->
<g id="edge6" class="edge">
<title>public.role_permissions:role_id&#45;&gt;public.roles:id</title>
<path fill="none" stroke="#000000" d="M737.1132,-730.7942C836.8068,-715.8768 676.553,-469.5 793,-469.5"/>
<polygon fill="#000000" stroke="#000000" points="736.9757,-730.8037 726.6867,-727.0109 731.9879,-731.1518 727,-731.5 727,-731.5 727,-731.5 731.9879,-731.1518 727.3133,-735.9891 736.9757,-730.8037 736.9757,-730.8037"/>
<text text-anchor="start" x="648.3345" y="-715.5" font-family="Arial" font-size="10.00" fill="#000000">FOREIGN KEY (role_id) REFERENCES roles(id) ON DELETE CASCADE</text>
</g>
<!-- public.user_roles -->
<g id="node7" class="node">
<title>public.user_roles</title>
<polygon fill="#efefef" stroke="transparent" points="922,-776.5 922,-811.5 1169,-811.5 1169,-776.5 922,-776.5"/>
<polygon fill="none" stroke="#000000" points="922,-776.5 922,-811.5 1169,-811.5 1169,-776.5 922,-776.5"/>
<text text-anchor="start" x="928.8637" y="-789.3" font-family="Arial Bold" font-size="18.00" fill="#000000">public.user_roles</text>
<text text-anchor="start" x="1064.8825" y="-789.3" font-family="Arial" font-size="14.00" fill="#000000"> </text>
<text text-anchor="start" x="1068.7731" y="-789.3" font-family="Arial" font-size="14.00" fill="#666666">[BASE TABLE]</text>
<polygon fill="none" stroke="#000000" points="922,-746.5 922,-776.5 1169,-776.5 1169,-746.5 922,-746.5"/>
<text text-anchor="start" x="929" y="-757.9" font-family="Arial" font-size="14.00" fill="#000000">id </text>
<text text-anchor="start" x="943.7798" y="-757.9" font-family="Arial" font-size="14.00" fill="#666666">[uuid]</text>
<polygon fill="none" stroke="#000000" points="922,-716.5 922,-746.5 1169,-746.5 1169,-716.5 922,-716.5"/>
<text text-anchor="start" x="929" y="-727.9" font-family="Arial" font-size="14.00" fill="#000000">user_id </text>
<text text-anchor="start" x="978.7882" y="-727.9" font-family="Arial" font-size="14.00" fill="#666666">[uuid]</text>
<polygon fill="none" stroke="#000000" points="922,-686.5 922,-716.5 1169,-716.5 1169,-686.5 922,-686.5"/>
<text text-anchor="start" x="929" y="-697.9" font-family="Arial" font-size="14.00" fill="#000000">role_id </text>
<text text-anchor="start" x="974.8948" y="-697.9" font-family="Arial" font-size="14.00" fill="#666666">[uuid]</text>
<polygon fill="none" stroke="#000000" points="922,-656.5 922,-686.5 1169,-686.5 1169,-656.5 922,-656.5"/>
<text text-anchor="start" x="929" y="-667.9" font-family="Arial" font-size="14.00" fill="#000000">tenant_id </text>
<text text-anchor="start" x="990.474" y="-667.9" font-family="Arial" font-size="14.00" fill="#666666">[uuid]</text>
</g>
<!-- public.user_roles&#45;&gt;public.tenants -->
<g id="edge7" class="edge">
<title>public.user_roles:tenant_id&#45;&gt;public.tenants:id</title>
<path fill="none" stroke="#000000" d="M1178.6202,-668.5978C1187.4955,-660.1134 1172.6142,-634.6496 1169,-614 1166.0672,-597.2435 1158.9328,-594.7565 1156,-578 1132.9362,-446.2254 1132.9362,-408.7746 1156,-277 1158.9328,-260.2435 1166.0672,-257.7565 1169,-241 1176.1643,-200.0667 1210.5556,-147.5 1169,-147.5"/>
<polygon fill="#000000" stroke="#000000" points="1178.5738,-668.6117 1167.7003,-667.1918 1173.7869,-670.0558 1169,-671.5 1169,-671.5 1169,-671.5 1173.7869,-670.0558 1170.2997,-675.8082 1178.5738,-668.6117 1178.5738,-668.6117"/>
<text text-anchor="start" x="1175.7065" y="-681.5" font-family="Arial" font-size="10.00" fill="#000000">FOREIGN KEY (tenant_id) REFERENCES tenants(id) ON DELETE CASCADE</text>
</g>
<!-- public.user_roles&#45;&gt;public.roles -->
<g id="edge8" class="edge">
<title>public.user_roles:role_id&#45;&gt;public.roles:id</title>
<path fill="none" stroke="#000000" d="M911.8117,-699.8586C886.5134,-690.4249 901.8356,-642.5333 922,-614 961.1843,-558.553 1026.8157,-618.447 1066,-563 1089.9829,-529.0635 1107.5556,-469.5 1066,-469.5"/>
<polygon fill="#000000" stroke="#000000" points="912.1273,-699.9094 921.2842,-705.9427 917.0636,-700.7047 922,-701.5 922,-701.5 922,-701.5 917.0636,-700.7047 922.7158,-697.0573 912.1273,-699.9094 912.1273,-699.9094"/>
<text text-anchor="start" x="586.8345" y="-685.5" font-family="Arial" font-size="10.00" fill="#000000">FOREIGN KEY (role_id) REFERENCES roles(id) ON DELETE CASCADE</text>
</g>
</g>
</svg>
