<?xml version="1.0" encoding="UTF-8" standalone="no"?>
<!DOCTYPE svg PUBLIC "-//W3C//DTD SVG 1.1//EN"
 "http://www.w3.org/Graphics/SVG/1.1/DTD/svg11.dtd">
<!-- Generated by graphviz version 2.40.1 (20161225.0304)
 -->
<!-- Title: prp Pages: 1 -->
<svg width="2859pt" height="953pt"
 viewBox="0.00 0.00 2859.00 953.00" xmlns="http://www.w3.org/2000/svg" xmlns:xlink="http://www.w3.org/1999/xlink">
<g id="graph0" class="graph" transform="scale(1 1) rotate(0) translate(4 949)">
<title>prp</title>
<polygon fill="#ffffff" stroke="transparent" points="-4,4 -4,-949 2855,-949 2855,4 -4,4"/>
<!-- public.tenants -->
<g id="node1" class="node">
<title>public.tenants</title>
<polygon fill="#efefef" stroke="transparent" points="914,-162.5 914,-197.5 1187,-197.5 1187,-162.5 914,-162.5"/>
<polygon fill="none" stroke="#000000" points="914,-162.5 914,-197.5 1187,-197.5 1187,-162.5 914,-162.5"/>
<text text-anchor="start" x="946.3539" y="-175.3" font-family="Arial Bold" font-size="18.00" fill="#000000">public.tenants</text>
<text text-anchor="start" x="1057.3923" y="-175.3" font-family="Arial" font-size="14.00" fill="#000000"> </text>
<text text-anchor="start" x="1061.2829" y="-175.3" font-family="Arial" font-size="14.00" fill="#666666">[BASE TABLE]</text>
<polygon fill="none" stroke="#000000" points="914,-132.5 914,-162.5 1187,-162.5 1187,-132.5 914,-132.5"/>
<text text-anchor="start" x="921" y="-143.9" font-family="Arial" font-size="14.00" fill="#000000">id </text>
<text text-anchor="start" x="935.7798" y="-143.9" font-family="Arial" font-size="14.00" fill="#666666">[uuid]</text>
<polygon fill="none" stroke="#000000" points="914,-102.5 914,-132.5 1187,-132.5 1187,-102.5 914,-102.5"/>
<text text-anchor="start" x="921" y="-113.9" font-family="Arial" font-size="14.00" fill="#000000">name </text>
<text text-anchor="start" x="959.899" y="-113.9" font-family="Arial" font-size="14.00" fill="#666666">[text]</text>
<polygon fill="none" stroke="#000000" points="914,-72.5 914,-102.5 1187,-102.5 1187,-72.5 914,-72.5"/>
<text text-anchor="start" x="921" y="-83.9" font-family="Arial" font-size="14.00" fill="#000000">created_at </text>
<text text-anchor="start" x="991.028" y="-83.9" font-family="Arial" font-size="14.00" fill="#666666">[timestamp without time zone]</text>
<polygon fill="none" stroke="#000000" points="914,-42.5 914,-72.5 1187,-72.5 1187,-42.5 914,-42.5"/>
<text text-anchor="start" x="920.9636" y="-53.9" font-family="Arial" font-size="14.00" fill="#000000">updated_at </text>
<text text-anchor="start" x="994.8962" y="-53.9" font-family="Arial" font-size="14.00" fill="#666666">[timestamp without time zone]</text>
</g>
<!-- public.departments -->
<g id="node2" class="node">
<title>public.departments</title>
<polygon fill="#efefef" stroke="transparent" points="466,-469.5 466,-504.5 739,-504.5 739,-469.5 466,-469.5"/>
<polygon fill="none" stroke="#000000" points="466,-469.5 466,-504.5 739,-504.5 739,-469.5 466,-469.5"/>
<text text-anchor="start" x="477.8555" y="-482.3" font-family="Arial Bold" font-size="18.00" fill="#000000">public.departments</text>
<text text-anchor="start" x="629.8907" y="-482.3" font-family="Arial" font-size="14.00" fill="#000000"> </text>
<text text-anchor="start" x="633.7813" y="-482.3" font-family="Arial" font-size="14.00" fill="#666666">[BASE TABLE]</text>
<polygon fill="none" stroke="#000000" points="466,-439.5 466,-469.5 739,-469.5 739,-439.5 466,-439.5"/>
<text text-anchor="start" x="473" y="-450.9" font-family="Arial" font-size="14.00" fill="#000000">id </text>
<text text-anchor="start" x="487.7798" y="-450.9" font-family="Arial" font-size="14.00" fill="#666666">[uuid]</text>
<polygon fill="none" stroke="#000000" points="466,-409.5 466,-439.5 739,-439.5 739,-409.5 466,-409.5"/>
<text text-anchor="start" x="473" y="-420.9" font-family="Arial" font-size="14.00" fill="#000000">tenant_id </text>
<text text-anchor="start" x="534.474" y="-420.9" font-family="Arial" font-size="14.00" fill="#666666">[uuid]</text>
<polygon fill="none" stroke="#000000" points="466,-379.5 466,-409.5 739,-409.5 739,-379.5 466,-379.5"/>
<text text-anchor="start" x="473" y="-390.9" font-family="Arial" font-size="14.00" fill="#000000">name </text>
<text text-anchor="start" x="511.899" y="-390.9" font-family="Arial" font-size="14.00" fill="#666666">[text]</text>
<polygon fill="none" stroke="#000000" points="466,-349.5 466,-379.5 739,-379.5 739,-349.5 466,-349.5"/>
<text text-anchor="start" x="473" y="-360.9" font-family="Arial" font-size="14.00" fill="#000000">created_at </text>
<text text-anchor="start" x="543.028" y="-360.9" font-family="Arial" font-size="14.00" fill="#666666">[timestamp without time zone]</text>
<polygon fill="none" stroke="#000000" points="466,-319.5 466,-349.5 739,-349.5 739,-319.5 466,-319.5"/>
<text text-anchor="start" x="472.9636" y="-330.9" font-family="Arial" font-size="14.00" fill="#000000">updated_at </text>
<text text-anchor="start" x="546.8962" y="-330.9" font-family="Arial" font-size="14.00" fill="#666666">[timestamp without time zone]</text>
</g>
<!-- public.departments&#45;&gt;public.tenants -->
<g id="edge1" class="edge">
<title>public.departments:tenant_id&#45;&gt;public.tenants:id</title>
<path fill="none" stroke="#000000" d="M749.1435,-423.7851C804.2234,-415.3253 760.9835,-333.6211 796,-277 836.9556,-210.7754 836.1343,-147.5 914,-147.5"/>
<polygon fill="#000000" stroke="#000000" points="748.9753,-423.7968 738.6836,-420.0111 743.9876,-424.1484 739,-424.5 739,-424.5 739,-424.5 743.9876,-424.1484 739.3164,-428.9889 748.9753,-423.7968 748.9753,-423.7968"/>
<text text-anchor="start" x="563.7065" y="-408.5" font-family="Arial" font-size="10.00" fill="#000000">FOREIGN KEY (tenant_id) REFERENCES tenants(id) ON DELETE CASCADE</text>
</g>
<!-- public.employment_types -->
<g id="node3" class="node">
<title>public.employment_types</title>
<polygon fill="#efefef" stroke="transparent" points="47,-469.5 47,-504.5 361,-504.5 361,-469.5 47,-469.5"/>
<polygon fill="none" stroke="#000000" points="47,-469.5 47,-504.5 361,-504.5 361,-469.5 47,-469.5"/>
<text text-anchor="start" x="53.8522" y="-482.3" font-family="Arial Bold" font-size="18.00" fill="#000000">public.employment_types</text>
<text text-anchor="start" x="256.894" y="-482.3" font-family="Arial" font-size="14.00" fill="#000000"> </text>
<text text-anchor="start" x="260.7846" y="-482.3" font-family="Arial" font-size="14.00" fill="#666666">[BASE TABLE]</text>
<polygon fill="none" stroke="#000000" points="47,-439.5 47,-469.5 361,-469.5 361,-439.5 47,-439.5"/>
<text text-anchor="start" x="54" y="-450.9" font-family="Arial" font-size="14.00" fill="#000000">id </text>
<text text-anchor="start" x="68.7798" y="-450.9" font-family="Arial" font-size="14.00" fill="#666666">[uuid]</text>
<polygon fill="none" stroke="#000000" points="47,-409.5 47,-439.5 361,-439.5 361,-409.5 47,-409.5"/>
<text text-anchor="start" x="54" y="-420.9" font-family="Arial" font-size="14.00" fill="#000000">tenant_id </text>
<text text-anchor="start" x="115.474" y="-420.9" font-family="Arial" font-size="14.00" fill="#666666">[uuid]</text>
<polygon fill="none" stroke="#000000" points="47,-379.5 47,-409.5 361,-409.5 361,-379.5 47,-379.5"/>
<text text-anchor="start" x="54" y="-390.9" font-family="Arial" font-size="14.00" fill="#000000">name </text>
<text text-anchor="start" x="92.899" y="-390.9" font-family="Arial" font-size="14.00" fill="#666666">[text]</text>
<polygon fill="none" stroke="#000000" points="47,-349.5 47,-379.5 361,-379.5 361,-349.5 47,-349.5"/>
<text text-anchor="start" x="54" y="-360.9" font-family="Arial" font-size="14.00" fill="#000000">created_at </text>
<text text-anchor="start" x="124.028" y="-360.9" font-family="Arial" font-size="14.00" fill="#666666">[timestamp without time zone]</text>
<polygon fill="none" stroke="#000000" points="47,-319.5 47,-349.5 361,-349.5 361,-319.5 47,-319.5"/>
<text text-anchor="start" x="54" y="-330.9" font-family="Arial" font-size="14.00" fill="#000000">updated_at </text>
<text text-anchor="start" x="127.9326" y="-330.9" font-family="Arial" font-size="14.00" fill="#666666">[timestamp without time zone]</text>
</g>
<!-- public.employment_types&#45;&gt;public.tenants -->
<g id="edge2" class="edge">
<title>public.employment_types:tenant_id&#45;&gt;public.tenants:id</title>
<path fill="none" stroke="#000000" d="M371.2059,-423.6234C423.3517,-413.6671 364.5827,-321.4231 413,-277 497.7318,-199.2582 799.0075,-147.5 914,-147.5"/>
<polygon fill="#000000" stroke="#000000" points="370.9633,-423.6442 360.6149,-420.0165 365.9817,-424.0721 361,-424.5 361,-424.5 361,-424.5 365.9817,-424.0721 361.3851,-428.9835 370.9633,-423.6442 370.9633,-423.6442"/>
<text text-anchor="start" x="185.7065" y="-408.5" font-family="Arial" font-size="10.00" fill="#000000">FOREIGN KEY (tenant_id) REFERENCES tenants(id) ON DELETE CASCADE</text>
</g>
<!-- public.resources -->
<g id="node4" class="node">
<title>public.resources</title>
<polygon fill="#efefef" stroke="transparent" points="1990,-469.5 1990,-504.5 2263,-504.5 2263,-469.5 1990,-469.5"/>
<polygon fill="none" stroke="#000000" points="1990,-469.5 1990,-504.5 2263,-504.5 2263,-469.5 1990,-469.5"/>
<text text-anchor="start" x="2012.3639" y="-482.3" font-family="Arial Bold" font-size="18.00" fill="#000000">public.resources</text>
<text text-anchor="start" x="2143.3823" y="-482.3" font-family="Arial" font-size="14.00" fill="#000000"> </text>
<text text-anchor="start" x="2147.2729" y="-482.3" font-family="Arial" font-size="14.00" fill="#666666">[BASE TABLE]</text>
<polygon fill="none" stroke="#000000" points="1990,-439.5 1990,-469.5 2263,-469.5 2263,-439.5 1990,-439.5"/>
<text text-anchor="start" x="1997" y="-450.9" font-family="Arial" font-size="14.00" fill="#000000">id </text>
<text text-anchor="start" x="2011.7798" y="-450.9" font-family="Arial" font-size="14.00" fill="#666666">[uuid]</text>
<polygon fill="none" stroke="#000000" points="1990,-409.5 1990,-439.5 2263,-439.5 2263,-409.5 1990,-409.5"/>
<text text-anchor="start" x="1997" y="-420.9" font-family="Arial" font-size="14.00" fill="#000000">tenant_id </text>
<text text-anchor="start" x="2058.474" y="-420.9" font-family="Arial" font-size="14.00" fill="#666666">[uuid]</text>
<polygon fill="none" stroke="#000000" points="1990,-379.5 1990,-409.5 2263,-409.5 2263,-379.5 1990,-379.5"/>
<text text-anchor="start" x="1997" y="-390.9" font-family="Arial" font-size="14.00" fill="#000000">name </text>
<text text-anchor="start" x="2035.899" y="-390.9" font-family="Arial" font-size="14.00" fill="#666666">[text]</text>
<polygon fill="none" stroke="#000000" points="1990,-349.5 1990,-379.5 2263,-379.5 2263,-349.5 1990,-349.5"/>
<text text-anchor="start" x="1997" y="-360.9" font-family="Arial" font-size="14.00" fill="#000000">created_at </text>
<text text-anchor="start" x="2067.028" y="-360.9" font-family="Arial" font-size="14.00" fill="#666666">[timestamp without time zone]</text>
<polygon fill="none" stroke="#000000" points="1990,-319.5 1990,-349.5 2263,-349.5 2263,-319.5 1990,-319.5"/>
<text text-anchor="start" x="1996.9636" y="-330.9" font-family="Arial" font-size="14.00" fill="#000000">updated_at </text>
<text text-anchor="start" x="2070.8962" y="-330.9" font-family="Arial" font-size="14.00" fill="#666666">[timestamp without time zone]</text>
</g>
<!-- public.resources&#45;&gt;public.tenants -->
<g id="edge3" class="edge">
<title>public.resources:tenant_id&#45;&gt;public.tenants:id</title>
<path fill="none" stroke="#000000" d="M1979.7817,-423.6047C1927.6291,-413.4394 1987.4319,-319.3414 1937,-277 1807.467,-168.2473 1356.1329,-147.5 1187,-147.5"/>
<polygon fill="#000000" stroke="#000000" points="1980.0382,-423.6271 1989.6072,-428.9828 1985.0191,-424.0636 1990,-424.5 1990,-424.5 1990,-424.5 1985.0191,-424.0636 1990.3928,-420.0172 1980.0382,-423.6271 1980.0382,-423.6271"/>
<text text-anchor="start" x="1632.7065" y="-434.5" font-family="Arial" font-size="10.00" fill="#000000">FOREIGN KEY (tenant_id) REFERENCES tenants(id) ON DELETE CASCADE</text>
</g>
<!-- public.actions -->
<g id="node5" class="node">
<title>public.actions</title>
<polygon fill="#efefef" stroke="transparent" points="1665,-424.5 1665,-459.5 1885,-459.5 1885,-424.5 1665,-424.5"/>
<polygon fill="none" stroke="#000000" points="1665,-424.5 1665,-459.5 1885,-459.5 1885,-424.5 1665,-424.5"/>
<text text-anchor="start" x="1671.861" y="-437.3" font-family="Arial Bold" font-size="18.00" fill="#000000">public.actions</text>
<text text-anchor="start" x="1780.8852" y="-437.3" font-family="Arial" font-size="14.00" fill="#000000"> </text>
<text text-anchor="start" x="1784.7758" y="-437.3" font-family="Arial" font-size="14.00" fill="#666666">[BASE TABLE]</text>
<polygon fill="none" stroke="#000000" points="1665,-394.5 1665,-424.5 1885,-424.5 1885,-394.5 1665,-394.5"/>
<text text-anchor="start" x="1672" y="-405.9" font-family="Arial" font-size="14.00" fill="#000000">id </text>
<text text-anchor="start" x="1686.7798" y="-405.9" font-family="Arial" font-size="14.00" fill="#666666">[uuid]</text>
<polygon fill="none" stroke="#000000" points="1665,-364.5 1665,-394.5 1885,-394.5 1885,-364.5 1665,-364.5"/>
<text text-anchor="start" x="1672" y="-375.9" font-family="Arial" font-size="14.00" fill="#000000">name </text>
<text text-anchor="start" x="1710.899" y="-375.9" font-family="Arial" font-size="14.00" fill="#666666">[text]</text>
</g>
<!-- public.roles -->
<g id="node6" class="node">
<title>public.roles</title>
<polygon fill="#efefef" stroke="transparent" points="1288,-469.5 1288,-504.5 1561,-504.5 1561,-469.5 1288,-469.5"/>
<polygon fill="none" stroke="#000000" points="1288,-469.5 1288,-504.5 1561,-504.5 1561,-469.5 1288,-469.5"/>
<text text-anchor="start" x="1330.3691" y="-482.3" font-family="Arial Bold" font-size="18.00" fill="#000000">public.roles</text>
<text text-anchor="start" x="1421.3771" y="-482.3" font-family="Arial" font-size="14.00" fill="#000000"> </text>
<text text-anchor="start" x="1425.2677" y="-482.3" font-family="Arial" font-size="14.00" fill="#666666">[BASE TABLE]</text>
<polygon fill="none" stroke="#000000" points="1288,-439.5 1288,-469.5 1561,-469.5 1561,-439.5 1288,-439.5"/>
<text text-anchor="start" x="1295" y="-450.9" font-family="Arial" font-size="14.00" fill="#000000">id </text>
<text text-anchor="start" x="1309.7798" y="-450.9" font-family="Arial" font-size="14.00" fill="#666666">[uuid]</text>
<polygon fill="none" stroke="#000000" points="1288,-409.5 1288,-439.5 1561,-439.5 1561,-409.5 1288,-409.5"/>
<text text-anchor="start" x="1295" y="-420.9" font-family="Arial" font-size="14.00" fill="#000000">tenant_id </text>
<text text-anchor="start" x="1356.474" y="-420.9" font-family="Arial" font-size="14.00" fill="#666666">[uuid]</text>
<polygon fill="none" stroke="#000000" points="1288,-379.5 1288,-409.5 1561,-409.5 1561,-379.5 1288,-379.5"/>
<text text-anchor="start" x="1295" y="-390.9" font-family="Arial" font-size="14.00" fill="#000000">name </text>
<text text-anchor="start" x="1333.899" y="-390.9" font-family="Arial" font-size="14.00" fill="#666666">[text]</text>
<polygon fill="none" stroke="#000000" points="1288,-349.5 1288,-379.5 1561,-379.5 1561,-349.5 1288,-349.5"/>
<text text-anchor="start" x="1295" y="-360.9" font-family="Arial" font-size="14.00" fill="#000000">created_at </text>
<text text-anchor="start" x="1365.028" y="-360.9" font-family="Arial" font-size="14.00" fill="#666666">[timestamp without time zone]</text>
<polygon fill="none" stroke="#000000" points="1288,-319.5 1288,-349.5 1561,-349.5 1561,-319.5 1288,-319.5"/>
<text text-anchor="start" x="1294.9636" y="-330.9" font-family="Arial" font-size="14.00" fill="#000000">updated_at </text>
<text text-anchor="start" x="1368.8962" y="-330.9" font-family="Arial" font-size="14.00" fill="#666666">[timestamp without time zone]</text>
</g>
<!-- public.roles&#45;&gt;public.tenants -->
<g id="edge4" class="edge">
<title>public.roles:tenant_id&#45;&gt;public.tenants:id</title>
<path fill="none" stroke="#000000" d="M1278.0768,-422.1053C1225.48,-395.0316 1248.9367,-147.5 1187,-147.5"/>
<polygon fill="#000000" stroke="#000000" points="1278.279,-422.1541 1286.9443,-428.8744 1283.1395,-423.327 1288,-424.5 1288,-424.5 1288,-424.5 1283.1395,-423.327 1289.0557,-420.1256 1278.279,-422.1541 1278.279,-422.1541"/>
<text text-anchor="start" x="1294.7065" y="-434.5" font-family="Arial" font-size="10.00" fill="#000000">FOREIGN KEY (tenant_id) REFERENCES tenants(id) ON DELETE CASCADE</text>
</g>
<!-- public.attributes -->
<g id="node7" class="node">
<title>public.attributes</title>
<polygon fill="#efefef" stroke="transparent" points="2367,-469.5 2367,-504.5 2640,-504.5 2640,-469.5 2367,-469.5"/>
<polygon fill="none" stroke="#000000" points="2367,-469.5 2367,-504.5 2640,-504.5 2640,-469.5 2367,-469.5"/>
<text text-anchor="start" x="2391.8596" y="-482.3" font-family="Arial Bold" font-size="18.00" fill="#000000">public.attributes</text>
<text text-anchor="start" x="2517.8866" y="-482.3" font-family="Arial" font-size="14.00" fill="#000000"> </text>
<text text-anchor="start" x="2521.7772" y="-482.3" font-family="Arial" font-size="14.00" fill="#666666">[BASE TABLE]</text>
<polygon fill="none" stroke="#000000" points="2367,-439.5 2367,-469.5 2640,-469.5 2640,-439.5 2367,-439.5"/>
<text text-anchor="start" x="2374" y="-450.9" font-family="Arial" font-size="14.00" fill="#000000">id </text>
<text text-anchor="start" x="2388.7798" y="-450.9" font-family="Arial" font-size="14.00" fill="#666666">[uuid]</text>
<polygon fill="none" stroke="#000000" points="2367,-409.5 2367,-439.5 2640,-439.5 2640,-409.5 2367,-409.5"/>
<text text-anchor="start" x="2374" y="-420.9" font-family="Arial" font-size="14.00" fill="#000000">tenant_id </text>
<text text-anchor="start" x="2435.474" y="-420.9" font-family="Arial" font-size="14.00" fill="#666666">[uuid]</text>
<polygon fill="none" stroke="#000000" points="2367,-379.5 2367,-409.5 2640,-409.5 2640,-379.5 2367,-379.5"/>
<text text-anchor="start" x="2374" y="-390.9" font-family="Arial" font-size="14.00" fill="#000000">name </text>
<text text-anchor="start" x="2412.899" y="-390.9" font-family="Arial" font-size="14.00" fill="#666666">[text]</text>
<polygon fill="none" stroke="#000000" points="2367,-349.5 2367,-379.5 2640,-379.5 2640,-349.5 2367,-349.5"/>
<text text-anchor="start" x="2374" y="-360.9" font-family="Arial" font-size="14.00" fill="#000000">created_at </text>
<text text-anchor="start" x="2444.028" y="-360.9" font-family="Arial" font-size="14.00" fill="#666666">[timestamp without time zone]</text>
<polygon fill="none" stroke="#000000" points="2367,-319.5 2367,-349.5 2640,-349.5 2640,-319.5 2367,-319.5"/>
<text text-anchor="start" x="2373.9636" y="-330.9" font-family="Arial" font-size="14.00" fill="#000000">updated_at </text>
<text text-anchor="start" x="2447.8962" y="-330.9" font-family="Arial" font-size="14.00" fill="#666666">[timestamp without time zone]</text>
</g>
<!-- public.attributes&#45;&gt;public.tenants -->
<g id="edge5" class="edge">
<title>public.attributes:tenant_id&#45;&gt;public.tenants:id</title>
<path fill="none" stroke="#000000" d="M2356.8206,-423.5924C2304.9722,-413.2886 2366.378,-317.9627 2315,-277 2216.3576,-198.3542 1313.1566,-147.5 1187,-147.5"/>
<polygon fill="#000000" stroke="#000000" points="2357.0395,-423.6118 2366.6003,-428.9822 2362.0198,-424.0559 2367,-424.5 2367,-424.5 2367,-424.5 2362.0198,-424.0559 2367.3997,-420.0178 2357.0395,-423.6118 2357.0395,-423.6118"/>
<text text-anchor="start" x="2373.7065" y="-434.5" font-family="Arial" font-size="10.00" fill="#000000">FOREIGN KEY (tenant_id) REFERENCES tenants(id) ON DELETE CASCADE</text>
</g>
<!-- public.users -->
<g id="node8" class="node">
<title>public.users</title>
<polygon fill="#efefef" stroke="transparent" points="466,-866.5 466,-901.5 739,-901.5 739,-866.5 466,-866.5"/>
<polygon fill="none" stroke="#000000" points="466,-866.5 466,-901.5 739,-901.5 739,-866.5 466,-866.5"/>
<text text-anchor="start" x="505.8662" y="-879.3" font-family="Arial Bold" font-size="18.00" fill="#000000">public.users</text>
<text text-anchor="start" x="601.88" y="-879.3" font-family="Arial" font-size="14.00" fill="#000000"> </text>
<text text-anchor="start" x="605.7706" y="-879.3" font-family="Arial" font-size="14.00" fill="#666666">[BASE TABLE]</text>
<polygon fill="none" stroke="#000000" points="466,-836.5 466,-866.5 739,-866.5 739,-836.5 466,-836.5"/>
<text text-anchor="start" x="473" y="-847.9" font-family="Arial" font-size="14.00" fill="#000000">id </text>
<text text-anchor="start" x="487.7798" y="-847.9" font-family="Arial" font-size="14.00" fill="#666666">[uuid]</text>
<polygon fill="none" stroke="#000000" points="466,-806.5 466,-836.5 739,-836.5 739,-806.5 466,-806.5"/>
<text text-anchor="start" x="473" y="-817.9" font-family="Arial" font-size="14.00" fill="#000000">tenant_id </text>
<text text-anchor="start" x="534.474" y="-817.9" font-family="Arial" font-size="14.00" fill="#666666">[uuid]</text>
<polygon fill="none" stroke="#000000" points="466,-776.5 466,-806.5 739,-806.5 739,-776.5 466,-776.5"/>
<text text-anchor="start" x="473" y="-787.9" font-family="Arial" font-size="14.00" fill="#000000">department_id </text>
<text text-anchor="start" x="566.3604" y="-787.9" font-family="Arial" font-size="14.00" fill="#666666">[uuid]</text>
<polygon fill="none" stroke="#000000" points="466,-746.5 466,-776.5 739,-776.5 739,-746.5 466,-746.5"/>
<text text-anchor="start" x="473" y="-757.9" font-family="Arial" font-size="14.00" fill="#000000">employment_type_id </text>
<text text-anchor="start" x="606.0322" y="-757.9" font-family="Arial" font-size="14.00" fill="#666666">[uuid]</text>
<polygon fill="none" stroke="#000000" points="466,-716.5 466,-746.5 739,-746.5 739,-716.5 466,-716.5"/>
<text text-anchor="start" x="473" y="-727.9" font-family="Arial" font-size="14.00" fill="#000000">name </text>
<text text-anchor="start" x="511.899" y="-727.9" font-family="Arial" font-size="14.00" fill="#666666">[text]</text>
<polygon fill="none" stroke="#000000" points="466,-686.5 466,-716.5 739,-716.5 739,-686.5 466,-686.5"/>
<text text-anchor="start" x="473" y="-697.9" font-family="Arial" font-size="14.00" fill="#000000">email </text>
<text text-anchor="start" x="510.3296" y="-697.9" font-family="Arial" font-size="14.00" fill="#666666">[text]</text>
<polygon fill="none" stroke="#000000" points="466,-656.5 466,-686.5 739,-686.5 739,-656.5 466,-656.5"/>
<text text-anchor="start" x="473" y="-667.9" font-family="Arial" font-size="14.00" fill="#000000">created_at </text>
<text text-anchor="start" x="543.028" y="-667.9" font-family="Arial" font-size="14.00" fill="#666666">[timestamp without time zone]</text>
<polygon fill="none" stroke="#000000" points="466,-626.5 466,-656.5 739,-656.5 739,-626.5 466,-626.5"/>
<text text-anchor="start" x="472.9636" y="-637.9" font-family="Arial" font-size="14.00" fill="#000000">updated_at </text>
<text text-anchor="start" x="546.8962" y="-637.9" font-family="Arial" font-size="14.00" fill="#666666">[timestamp without time zone]</text>
</g>
<!-- public.users&#45;&gt;public.tenants -->
<g id="edge6" class="edge">
<title>public.users:tenant_id&#45;&gt;public.tenants:id</title>
<path fill="none" stroke="#000000" d="M749.1596,-821.3123C978.3495,-812.6279 752.9511,-504.3691 837,-277 860.2173,-214.1927 847.0388,-147.5 914,-147.5"/>
<polygon fill="#000000" stroke="#000000" points="748.9983,-821.3152 738.9168,-817.0008 743.9991,-821.4076 739,-821.5 739,-821.5 739,-821.5 743.9991,-821.4076 739.0832,-825.9992 748.9983,-821.3152 748.9983,-821.3152"/>
<text text-anchor="start" x="745.7065" y="-831.5" font-family="Arial" font-size="10.00" fill="#000000">FOREIGN KEY (tenant_id) REFERENCES tenants(id) ON DELETE CASCADE</text>
</g>
<!-- public.users&#45;&gt;public.departments -->
<g id="edge7" class="edge">
<title>public.users:department_id&#45;&gt;public.departments:id</title>
<path fill="none" stroke="#000000" d="M455.9624,-789.348C391.2757,-760.6467 394.6215,-454.5 466,-454.5"/>
<polygon fill="#000000" stroke="#000000" points="456.2222,-789.4036 465.0566,-795.9 461.1111,-790.4518 466,-791.5 466,-791.5 466,-791.5 461.1111,-790.4518 466.9434,-787.1 456.2222,-789.4036 456.2222,-789.4036"/>
<text text-anchor="start" x="62.9305" y="-801.5" font-family="Arial" font-size="10.00" fill="#000000">FOREIGN KEY (department_id) REFERENCES departments(id) ON DELETE CASCADE</text>
</g>
<!-- public.users&#45;&gt;public.employment_types -->
<g id="edge8" class="edge">
<title>public.users:employment_type_id&#45;&gt;public.employment_types:id</title>
<path fill="none" stroke="#000000" d="M456.2084,-759.3756C397.461,-732.2515 429.5815,-454.5 361,-454.5"/>
<polygon fill="#000000" stroke="#000000" points="456.2274,-759.3797 465.0459,-765.8977 461.1137,-760.4398 466,-761.5 466,-761.5 466,-761.5 461.1137,-760.4398 466.9541,-757.1023 456.2274,-759.3797 456.2274,-759.3797"/>
<text text-anchor="start" x="6.5935" y="-771.5" font-family="Arial" font-size="10.00" fill="#000000">FOREIGN KEY (employment_type_id) REFERENCES employment_types(id) ON DELETE CASCADE</text>
</g>
<!-- public.role_permissions -->
<g id="node9" class="node">
<title>public.role_permissions</title>
<polygon fill="#efefef" stroke="transparent" points="1625,-806.5 1625,-841.5 1924,-841.5 1924,-806.5 1625,-806.5"/>
<polygon fill="none" stroke="#000000" points="1625,-806.5 1625,-841.5 1924,-841.5 1924,-806.5 1625,-806.5"/>
<text text-anchor="start" x="1631.8672" y="-819.3" font-family="Arial Bold" font-size="18.00" fill="#000000">public.role_permissions</text>
<text text-anchor="start" x="1819.879" y="-819.3" font-family="Arial" font-size="14.00" fill="#000000"> </text>
<text text-anchor="start" x="1823.7696" y="-819.3" font-family="Arial" font-size="14.00" fill="#666666">[BASE TABLE]</text>
<polygon fill="none" stroke="#000000" points="1625,-776.5 1625,-806.5 1924,-806.5 1924,-776.5 1625,-776.5"/>
<text text-anchor="start" x="1632" y="-787.9" font-family="Arial" font-size="14.00" fill="#000000">id </text>
<text text-anchor="start" x="1646.7798" y="-787.9" font-family="Arial" font-size="14.00" fill="#666666">[uuid]</text>
<polygon fill="none" stroke="#000000" points="1625,-746.5 1625,-776.5 1924,-776.5 1924,-746.5 1625,-746.5"/>
<text text-anchor="start" x="1632" y="-757.9" font-family="Arial" font-size="14.00" fill="#000000">role_id </text>
<text text-anchor="start" x="1677.8948" y="-757.9" font-family="Arial" font-size="14.00" fill="#666666">[uuid]</text>
<polygon fill="none" stroke="#000000" points="1625,-716.5 1625,-746.5 1924,-746.5 1924,-716.5 1625,-716.5"/>
<text text-anchor="start" x="1632" y="-727.9" font-family="Arial" font-size="14.00" fill="#000000">resource_id </text>
<text text-anchor="start" x="1709.014" y="-727.9" font-family="Arial" font-size="14.00" fill="#666666">[uuid]</text>
<polygon fill="none" stroke="#000000" points="1625,-686.5 1625,-716.5 1924,-716.5 1924,-686.5 1625,-686.5"/>
<text text-anchor="start" x="1632" y="-697.9" font-family="Arial" font-size="14.00" fill="#000000">action_id </text>
<text text-anchor="start" x="1691.9074" y="-697.9" font-family="Arial" font-size="14.00" fill="#666666">[uuid]</text>
</g>
<!-- public.role_permissions&#45;&gt;public.resources -->
<g id="edge9" class="edge">
<title>public.role_permissions:resource_id&#45;&gt;public.resources:id</title>
<path fill="none" stroke="#000000" d="M1934.012,-730.8461C2040.2107,-716.0327 1867.0267,-454.5 1990,-454.5"/>
<polygon fill="#000000" stroke="#000000" points="1933.9787,-730.8482 1923.7067,-727.0096 1928.9894,-731.1741 1924,-731.5 1924,-731.5 1924,-731.5 1928.9894,-731.1741 1924.2933,-735.9904 1933.9787,-730.8482 1933.9787,-730.8482"/>
<text text-anchor="start" x="1930.6065" y="-741.5" font-family="Arial" font-size="10.00" fill="#000000">FOREIGN KEY (resource_id) REFERENCES resources(id) ON DELETE CASCADE</text>
</g>
<!-- public.role_permissions&#45;&gt;public.actions -->
<g id="edge10" class="edge">
<title>public.role_permissions:action_id&#45;&gt;public.actions:id</title>
<path fill="none" stroke="#000000" d="M1774.6577,-676.3105C1768.8,-591.5225 1689.4222,-591.2406 1665,-503 1653.9155,-462.9501 1623.4444,-409.5 1665,-409.5"/>
<polygon fill="#000000" stroke="#000000" points="1774.6642,-676.5056 1770.5025,-686.6511 1774.8321,-681.5028 1775,-686.5 1775,-686.5 1775,-686.5 1774.8321,-681.5028 1779.4975,-686.3489 1774.6642,-676.5056 1774.6642,-676.5056"/>
<text text-anchor="start" x="1781.8255" y="-696.5" font-family="Arial" font-size="10.00" fill="#000000">FOREIGN KEY (action_id) REFERENCES actions(id) ON DELETE CASCADE</text>
</g>
<!-- public.role_permissions&#45;&gt;public.roles -->
<g id="edge11" class="edge">
<title>public.role_permissions:role_id&#45;&gt;public.roles:id</title>
<path fill="none" stroke="#000000" d="M1614.7006,-760.8709C1496.701,-745.524 1696.7028,-454.5 1561,-454.5"/>
<polygon fill="#000000" stroke="#000000" points="1615.0186,-760.8903 1624.7256,-765.9916 1620.0093,-761.1951 1625,-761.5 1625,-761.5 1625,-761.5 1620.0093,-761.1951 1625.2744,-757.0084 1615.0186,-760.8903 1615.0186,-760.8903"/>
<text text-anchor="start" x="1375.3345" y="-745.5" font-family="Arial" font-size="10.00" fill="#000000">FOREIGN KEY (role_id) REFERENCES roles(id) ON DELETE CASCADE</text>
</g>
<!-- public.user_roles -->
<g id="node10" class="node">
<title>public.user_roles</title>
<polygon fill="#efefef" stroke="transparent" points="1059,-806.5 1059,-841.5 1306,-841.5 1306,-806.5 1059,-806.5"/>
<polygon fill="none" stroke="#000000" points="1059,-806.5 1059,-841.5 1306,-841.5 1306,-806.5 1059,-806.5"/>
<text text-anchor="start" x="1065.8637" y="-819.3" font-family="Arial Bold" font-size="18.00" fill="#000000">public.user_roles</text>
<text text-anchor="start" x="1201.8825" y="-819.3" font-family="Arial" font-size="14.00" fill="#000000"> </text>
<text text-anchor="start" x="1205.7731" y="-819.3" font-family="Arial" font-size="14.00" fill="#666666">[BASE TABLE]</text>
<polygon fill="none" stroke="#000000" points="1059,-776.5 1059,-806.5 1306,-806.5 1306,-776.5 1059,-776.5"/>
<text text-anchor="start" x="1066" y="-787.9" font-family="Arial" font-size="14.00" fill="#000000">id </text>
<text text-anchor="start" x="1080.7798" y="-787.9" font-family="Arial" font-size="14.00" fill="#666666">[uuid]</text>
<polygon fill="none" stroke="#000000" points="1059,-746.5 1059,-776.5 1306,-776.5 1306,-746.5 1059,-746.5"/>
<text text-anchor="start" x="1066" y="-757.9" font-family="Arial" font-size="14.00" fill="#000000">user_id </text>
<text text-anchor="start" x="1115.7882" y="-757.9" font-family="Arial" font-size="14.00" fill="#666666">[uuid]</text>
<polygon fill="none" stroke="#000000" points="1059,-716.5 1059,-746.5 1306,-746.5 1306,-716.5 1059,-716.5"/>
<text text-anchor="start" x="1066" y="-727.9" font-family="Arial" font-size="14.00" fill="#000000">role_id </text>
<text text-anchor="start" x="1111.8948" y="-727.9" font-family="Arial" font-size="14.00" fill="#666666">[uuid]</text>
<polygon fill="none" stroke="#000000" points="1059,-686.5 1059,-716.5 1306,-716.5 1306,-686.5 1059,-686.5"/>
<text text-anchor="start" x="1066" y="-697.9" font-family="Arial" font-size="14.00" fill="#000000">tenant_id </text>
<text text-anchor="start" x="1127.474" y="-697.9" font-family="Arial" font-size="14.00" fill="#666666">[uuid]</text>
</g>
<!-- public.user_roles&#45;&gt;public.tenants -->
<g id="edge12" class="edge">
<title>public.user_roles:tenant_id&#45;&gt;public.tenants:id</title>
<path fill="none" stroke="#000000" d="M1048.9713,-701.3391C947.5233,-698.0177 912.863,-643.3849 867,-548 828.1688,-467.2397 824.3893,-147.5 914,-147.5"/>
<polygon fill="#000000" stroke="#000000" points="1049.0013,-701.3395 1058.9278,-705.9994 1054.0006,-701.4197 1059,-701.5 1059,-701.5 1059,-701.5 1054.0006,-701.4197 1059.0722,-697.0006 1049.0013,-701.3395 1049.0013,-701.3395"/>
<text text-anchor="start" x="792.7065" y="-685.5" font-family="Arial" font-size="10.00" fill="#000000">FOREIGN KEY (tenant_id) REFERENCES tenants(id) ON DELETE CASCADE</text>
</g>
<!-- public.user_roles&#45;&gt;public.roles -->
<g id="edge13" class="edge">
<title>public.user_roles:role_id&#45;&gt;public.roles:id</title>
<path fill="none" stroke="#000000" d="M1316.159,-730.7538C1413.6972,-714.9824 1168.3641,-454.5 1288,-454.5"/>
<polygon fill="#000000" stroke="#000000" points="1315.9731,-730.7673 1305.6703,-727.0121 1310.9866,-731.1337 1306,-731.5 1306,-731.5 1306,-731.5 1310.9866,-731.1337 1306.3297,-735.9879 1315.9731,-730.7673 1315.9731,-730.7673"/>
<text text-anchor="start" x="1312.8345" y="-715.5" font-family="Arial" font-size="10.00" fill="#000000">FOREIGN KEY (role_id) REFERENCES roles(id) ON DELETE CASCADE</text>
</g>
<!-- public.abac_policies -->
<g id="node11" class="node">
<title>public.abac_policies</title>
<polygon fill="#efefef" stroke="transparent" points="2197,-866.5 2197,-901.5 2470,-901.5 2470,-866.5 2197,-866.5"/>
<polygon fill="none" stroke="#000000" points="2197,-866.5 2197,-901.5 2470,-901.5 2470,-866.5 2197,-866.5"/>
<text text-anchor="start" x="2204.3555" y="-879.3" font-family="Arial Bold" font-size="18.00" fill="#000000">public.abac_policies</text>
<text text-anchor="start" x="2365.3907" y="-879.3" font-family="Arial" font-size="14.00" fill="#000000"> </text>
<text text-anchor="start" x="2369.2813" y="-879.3" font-family="Arial" font-size="14.00" fill="#666666">[BASE TABLE]</text>
<polygon fill="none" stroke="#000000" points="2197,-836.5 2197,-866.5 2470,-866.5 2470,-836.5 2197,-836.5"/>
<text text-anchor="start" x="2204" y="-847.9" font-family="Arial" font-size="14.00" fill="#000000">id </text>
<text text-anchor="start" x="2218.7798" y="-847.9" font-family="Arial" font-size="14.00" fill="#666666">[uuid]</text>
<polygon fill="none" stroke="#000000" points="2197,-806.5 2197,-836.5 2470,-836.5 2470,-806.5 2197,-806.5"/>
<text text-anchor="start" x="2204" y="-817.9" font-family="Arial" font-size="14.00" fill="#000000">tenant_id </text>
<text text-anchor="start" x="2265.474" y="-817.9" font-family="Arial" font-size="14.00" fill="#666666">[uuid]</text>
<polygon fill="none" stroke="#000000" points="2197,-776.5 2197,-806.5 2470,-806.5 2470,-776.5 2197,-776.5"/>
<text text-anchor="start" x="2204" y="-787.9" font-family="Arial" font-size="14.00" fill="#000000">resource_id </text>
<text text-anchor="start" x="2281.014" y="-787.9" font-family="Arial" font-size="14.00" fill="#666666">[uuid]</text>
<polygon fill="none" stroke="#000000" points="2197,-746.5 2197,-776.5 2470,-776.5 2470,-746.5 2197,-746.5"/>
<text text-anchor="start" x="2204" y="-757.9" font-family="Arial" font-size="14.00" fill="#000000">action_id </text>
<text text-anchor="start" x="2263.9074" y="-757.9" font-family="Arial" font-size="14.00" fill="#666666">[uuid]</text>
<polygon fill="none" stroke="#000000" points="2197,-716.5 2197,-746.5 2470,-746.5 2470,-716.5 2197,-716.5"/>
<text text-anchor="start" x="2204" y="-727.9" font-family="Arial" font-size="14.00" fill="#000000">attribute_id </text>
<text text-anchor="start" x="2277.1318" y="-727.9" font-family="Arial" font-size="14.00" fill="#666666">[uuid]</text>
<polygon fill="none" stroke="#000000" points="2197,-686.5 2197,-716.5 2470,-716.5 2470,-686.5 2197,-686.5"/>
<text text-anchor="start" x="2204" y="-697.9" font-family="Arial" font-size="14.00" fill="#000000">condition </text>
<text text-anchor="start" x="2263.9074" y="-697.9" font-family="Arial" font-size="14.00" fill="#666666">[jsonb]</text>
<polygon fill="none" stroke="#000000" points="2197,-656.5 2197,-686.5 2470,-686.5 2470,-656.5 2197,-656.5"/>
<text text-anchor="start" x="2204" y="-667.9" font-family="Arial" font-size="14.00" fill="#000000">created_at </text>
<text text-anchor="start" x="2274.028" y="-667.9" font-family="Arial" font-size="14.00" fill="#666666">[timestamp without time zone]</text>
<polygon fill="none" stroke="#000000" points="2197,-626.5 2197,-656.5 2470,-656.5 2470,-626.5 2197,-626.5"/>
<text text-anchor="start" x="2203.9636" y="-637.9" font-family="Arial" font-size="14.00" fill="#000000">updated_at </text>
<text text-anchor="start" x="2277.8962" y="-637.9" font-family="Arial" font-size="14.00" fill="#666666">[timestamp without time zone]</text>
</g>
<!-- public.abac_policies&#45;&gt;public.tenants -->
<g id="edge14" class="edge">
<title>public.abac_policies:tenant_id&#45;&gt;public.tenants:id</title>
<path fill="none" stroke="#000000" d="M2480.3344,-821.3106C2627.1675,-815.8312 2640.8298,-692.2351 2692,-548 2732.2708,-434.4873 2773.4346,-365.7427 2692,-277 2578.5203,-153.3365 1354.8401,-147.5 1187,-147.5"/>
<polygon fill="#000000" stroke="#000000" points="2479.9983,-821.3166 2469.9175,-817.0008 2474.9992,-821.4083 2470,-821.5 2470,-821.5 2470,-821.5 2474.9992,-821.4083 2470.0825,-825.9992 2479.9983,-821.3166 2479.9983,-821.3166"/>
<text text-anchor="start" x="2476.7065" y="-831.5" font-family="Arial" font-size="10.00" fill="#000000">FOREIGN KEY (tenant_id) REFERENCES tenants(id) ON DELETE CASCADE</text>
</g>
<!-- public.abac_policies&#45;&gt;public.resources -->
<g id="edge15" class="edge">
<title>public.abac_policies:resource_id&#45;&gt;public.resources:id</title>
<path fill="none" stroke="#000000" d="M2186.8135,-790.9237C2108.3078,-781.5591 2151.7627,-660.2041 2197,-584 2214.0563,-555.268 2245.9437,-576.732 2263,-548 2284.2126,-512.2664 2304.5556,-454.5 2263,-454.5"/>
<polygon fill="#000000" stroke="#000000" points="2187.016,-790.9351 2196.7458,-795.9928 2192.008,-791.2175 2197,-791.5 2197,-791.5 2197,-791.5 2192.008,-791.2175 2197.2542,-787.0072 2187.016,-790.9351 2187.016,-790.9351"/>
<text text-anchor="start" x="2010.6065" y="-775.5" font-family="Arial" font-size="10.00" fill="#000000">FOREIGN KEY (resource_id) REFERENCES resources(id) ON DELETE CASCADE</text>
</g>
<!-- public.abac_policies&#45;&gt;public.actions -->
<g id="edge16" class="edge">
<title>public.abac_policies:action_id&#45;&gt;public.actions:id</title>
<path fill="none" stroke="#000000" d="M2187.7942,-757.3473C2140.5274,-728.7599 1947.9513,-561.8383 1938,-548 1899.5205,-494.4904 1950.9087,-409.5 1885,-409.5"/>
<polygon fill="#000000" stroke="#000000" points="2187.8845,-757.388 2195.1496,-765.602 2192.4422,-759.444 2197,-761.5 2197,-761.5 2197,-761.5 2192.4422,-759.444 2198.8504,-757.398 2187.8845,-757.388 2187.8845,-757.388"/>
<text text-anchor="start" x="1841.8255" y="-771.5" font-family="Arial" font-size="10.00" fill="#000000">FOREIGN KEY (action_id) REFERENCES actions(id) ON DELETE CASCADE</text>
</g>
<!-- public.abac_policies&#45;&gt;public.attributes -->
<g id="edge17" class="edge">
<title>public.abac_policies:attribute_id&#45;&gt;public.attributes:id</title>
<path fill="none" stroke="#000000" d="M2480.2577,-730.6194C2532.3946,-720.977 2505.7954,-634.4299 2470,-584 2441.9312,-544.4557 2395.0688,-587.5443 2367,-548 2342.9469,-514.1132 2325.4444,-454.5 2367,-454.5"/>
<polygon fill="#000000" stroke="#000000" points="2479.9633,-730.6445 2469.615,-727.0165 2474.9817,-731.0723 2470,-731.5 2470,-731.5 2470,-731.5 2474.9817,-731.0723 2470.385,-735.9835 2479.9633,-730.6445 2479.9633,-730.6445"/>
<text text-anchor="start" x="2477.3795" y="-741.5" font-family="Arial" font-size="10.00" fill="#000000">FOREIGN KEY (attribute_id) REFERENCES attributes(id) ON DELETE CASCADE</text>
</g>
<!-- public.relationships -->
<g id="node12" class="node">
<title>public.relationships</title>
<polygon fill="#efefef" stroke="transparent" points="919,-469.5 919,-504.5 1183,-504.5 1183,-469.5 919,-469.5"/>
<polygon fill="none" stroke="#000000" points="919,-469.5 919,-504.5 1183,-504.5 1183,-469.5 919,-469.5"/>
<text text-anchor="start" x="925.8614" y="-482.3" font-family="Arial Bold" font-size="18.00" fill="#000000">public.relationships</text>
<text text-anchor="start" x="1078.8848" y="-482.3" font-family="Arial" font-size="14.00" fill="#000000"> </text>
<text text-anchor="start" x="1082.7754" y="-482.3" font-family="Arial" font-size="14.00" fill="#666666">[BASE TABLE]</text>
<polygon fill="none" stroke="#000000" points="919,-439.5 919,-469.5 1183,-469.5 1183,-439.5 919,-439.5"/>
<text text-anchor="start" x="926" y="-450.9" font-family="Arial" font-size="14.00" fill="#000000">id </text>
<text text-anchor="start" x="940.7798" y="-450.9" font-family="Arial" font-size="14.00" fill="#666666">[uuid]</text>
<polygon fill="none" stroke="#000000" points="919,-409.5 919,-439.5 1183,-439.5 1183,-409.5 919,-409.5"/>
<text text-anchor="start" x="926" y="-420.9" font-family="Arial" font-size="14.00" fill="#000000">subject_id </text>
<text text-anchor="start" x="992.9074" y="-420.9" font-family="Arial" font-size="14.00" fill="#666666">[uuid]</text>
<polygon fill="none" stroke="#000000" points="919,-379.5 919,-409.5 1183,-409.5 1183,-379.5 919,-379.5"/>
<text text-anchor="start" x="926" y="-390.9" font-family="Arial" font-size="14.00" fill="#000000">object_id </text>
<text text-anchor="start" x="985.9074" y="-390.9" font-family="Arial" font-size="14.00" fill="#666666">[uuid]</text>
<polygon fill="none" stroke="#000000" points="919,-349.5 919,-379.5 1183,-379.5 1183,-349.5 919,-349.5"/>
<text text-anchor="start" x="926" y="-360.9" font-family="Arial" font-size="14.00" fill="#000000">relation </text>
<text text-anchor="start" x="975.7854" y="-360.9" font-family="Arial" font-size="14.00" fill="#666666">[text]</text>
<polygon fill="none" stroke="#000000" points="919,-319.5 919,-349.5 1183,-349.5 1183,-319.5 919,-319.5"/>
<text text-anchor="start" x="926" y="-330.9" font-family="Arial" font-size="14.00" fill="#000000">tenant_id </text>
<text text-anchor="start" x="987.474" y="-330.9" font-family="Arial" font-size="14.00" fill="#666666">[uuid]</text>
</g>
<!-- public.relationships&#45;&gt;public.tenants -->
<g id="edge18" class="edge">
<title>public.relationships:tenant_id&#45;&gt;public.tenants:id</title>
<path fill="none" stroke="#000000" d="M1051.8189,-309.4384C1061.4789,-254.8531 1153.9417,-298.2516 1187,-241 1207.7797,-205.013 1228.5556,-147.5 1187,-147.5"/>
<polygon fill="#000000" stroke="#000000" points="1051.8113,-309.533 1046.5148,-319.1349 1051.4057,-314.5165 1051,-319.5 1051,-319.5 1051,-319.5 1051.4057,-314.5165 1055.4852,-319.8651 1051.8113,-309.533 1051.8113,-309.533"/>
<text text-anchor="start" x="693.7065" y="-329.5" font-family="Arial" font-size="10.00" fill="#000000">FOREIGN KEY (tenant_id) REFERENCES tenants(id) ON DELETE CASCADE</text>
</g>
</g>
</svg>
