<?xml version="1.0" encoding="UTF-8" standalone="no"?>
<!DOCTYPE svg PUBLIC "-//W3C//DTD SVG 1.1//EN"
 "http://www.w3.org/Graphics/SVG/1.1/DTD/svg11.dtd">
<!-- Generated by graphviz version 2.40.1 (20161225.0304)
 -->
<!-- Title: foo Pages: 1 -->
<svg width="334pt" height="189pt"
 viewBox="0.00 0.00 334.00 189.00" xmlns="http://www.w3.org/2000/svg" xmlns:xlink="http://www.w3.org/1999/xlink">
<g id="graph0" class="graph" transform="scale(1 1) rotate(0) translate(4 185)">
<title>foo</title>
<polygon fill="#ffffff" stroke="transparent" points="-4,4 -4,-185 330,-185 330,4 -4,4"/>
<!-- public.examples -->
<g id="node1" class="node">
<title>public.examples</title>
<polygon fill="#efefef" stroke="transparent" points="43,-102.5 43,-137.5 283,-137.5 283,-102.5 43,-102.5"/>
<polygon fill="none" stroke="#000000" points="43,-102.5 43,-137.5 283,-137.5 283,-102.5 43,-102.5"/>
<text text-anchor="start" x="49.8629" y="-115.3" font-family="Arial Bold" font-size="18.00" fill="#000000">public.examples</text>
<text text-anchor="start" x="178.8833" y="-115.3" font-family="Arial" font-size="14.00" fill="#000000"> </text>
<text text-anchor="start" x="182.7739" y="-115.3" font-family="Arial" font-size="14.00" fill="#666666">[BASE TABLE]</text>
<polygon fill="none" stroke="#000000" points="43,-72.5 43,-102.5 283,-102.5 283,-72.5 43,-72.5"/>
<text text-anchor="start" x="50" y="-83.9" font-family="Arial" font-size="14.00" fill="#000000">id </text>
<text text-anchor="start" x="64.7798" y="-83.9" font-family="Arial" font-size="14.00" fill="#666666">[integer]</text>
<polygon fill="none" stroke="#000000" points="43,-42.5 43,-72.5 283,-72.5 283,-42.5 43,-42.5"/>
<text text-anchor="start" x="50" y="-53.9" font-family="Arial" font-size="14.00" fill="#000000">name </text>
<text text-anchor="start" x="88.899" y="-53.9" font-family="Arial" font-size="14.00" fill="#666666">[varchar(100)]</text>
</g>
</g>
</svg>
