<?xml version="1.0" encoding="UTF-8" standalone="no"?>
<!DOCTYPE svg PUBLIC "-//W3C//DTD SVG 1.1//EN"
 "http://www.w3.org/Graphics/SVG/1.1/DTD/svg11.dtd">
<!-- Generated by graphviz version 2.40.1 (20161225.0304)
 -->
<!-- Title: public.departments Pages: 1 -->
<svg width="626pt" height="712pt"
 viewBox="0.00 0.00 625.50 712.00" xmlns="http://www.w3.org/2000/svg" xmlns:xlink="http://www.w3.org/1999/xlink">
<g id="graph0" class="graph" transform="scale(1 1) rotate(0) translate(4 708)">
<title>public.departments</title>
<polygon fill="#ffffff" stroke="transparent" points="-4,4 -4,-708 621.5,-708 621.5,4 -4,4"/>
<!-- public.departments -->
<g id="node1" class="node">
<title>public.departments</title>
<polygon fill="#efefef" stroke="transparent" points="299,-195.5 299,-230.5 572,-230.5 572,-195.5 299,-195.5"/>
<polygon fill="none" stroke="#000000" points="299,-195.5 299,-230.5 572,-230.5 572,-195.5 299,-195.5"/>
<text text-anchor="start" x="310.8555" y="-208.3" font-family="Arial Bold" font-size="18.00" fill="#000000">public.departments</text>
<text text-anchor="start" x="462.8907" y="-208.3" font-family="Arial" font-size="14.00" fill="#000000"> </text>
<text text-anchor="start" x="466.7813" y="-208.3" font-family="Arial" font-size="14.00" fill="#666666">[BASE TABLE]</text>
<polygon fill="none" stroke="#000000" points="299,-165.5 299,-195.5 572,-195.5 572,-165.5 299,-165.5"/>
<text text-anchor="start" x="306" y="-176.9" font-family="Arial" font-size="14.00" fill="#000000">id </text>
<text text-anchor="start" x="320.7798" y="-176.9" font-family="Arial" font-size="14.00" fill="#666666">[uuid]</text>
<polygon fill="none" stroke="#000000" points="299,-135.5 299,-165.5 572,-165.5 572,-135.5 299,-135.5"/>
<text text-anchor="start" x="306" y="-146.9" font-family="Arial" font-size="14.00" fill="#000000">name </text>
<text text-anchor="start" x="344.899" y="-146.9" font-family="Arial" font-size="14.00" fill="#666666">[varchar(255)]</text>
<polygon fill="none" stroke="#000000" points="299,-105.5 299,-135.5 572,-135.5 572,-105.5 299,-105.5"/>
<text text-anchor="start" x="306" y="-116.9" font-family="Arial" font-size="14.00" fill="#000000">description </text>
<text text-anchor="start" x="377.568" y="-116.9" font-family="Arial" font-size="14.00" fill="#666666">[text]</text>
<polygon fill="none" stroke="#000000" points="299,-75.5 299,-105.5 572,-105.5 572,-75.5 299,-75.5"/>
<text text-anchor="start" x="306" y="-86.9" font-family="Arial" font-size="14.00" fill="#000000">created_at </text>
<text text-anchor="start" x="376.028" y="-86.9" font-family="Arial" font-size="14.00" fill="#666666">[timestamp without time zone]</text>
<polygon fill="none" stroke="#000000" points="299,-45.5 299,-75.5 572,-75.5 572,-45.5 299,-45.5"/>
<text text-anchor="start" x="305.9636" y="-56.9" font-family="Arial" font-size="14.00" fill="#000000">updated_at </text>
<text text-anchor="start" x="379.8962" y="-56.9" font-family="Arial" font-size="14.00" fill="#666666">[timestamp without time zone]</text>
<polygon fill="none" stroke="#000000" stroke-width="3" points="297,-44.5 297,-232.5 573,-232.5 573,-44.5 297,-44.5"/>
</g>
<!-- public.employees -->
<g id="node2" class="node">
<title>public.employees</title>
<polygon fill="#efefef" stroke="transparent" points="299,-625.5 299,-660.5 572,-660.5 572,-625.5 299,-625.5"/>
<polygon fill="none" stroke="#000000" points="299,-625.5 299,-660.5 572,-660.5 572,-625.5 299,-625.5"/>
<text text-anchor="start" x="317.3598" y="-638.3" font-family="Arial Bold" font-size="18.00" fill="#000000">public.employees</text>
<text text-anchor="start" x="456.3864" y="-638.3" font-family="Arial" font-size="14.00" fill="#000000"> </text>
<text text-anchor="start" x="460.277" y="-638.3" font-family="Arial" font-size="14.00" fill="#666666">[BASE TABLE]</text>
<polygon fill="none" stroke="#000000" points="299,-595.5 299,-625.5 572,-625.5 572,-595.5 299,-595.5"/>
<text text-anchor="start" x="306" y="-606.9" font-family="Arial" font-size="14.00" fill="#000000">id </text>
<text text-anchor="start" x="320.7798" y="-606.9" font-family="Arial" font-size="14.00" fill="#666666">[uuid]</text>
<polygon fill="none" stroke="#000000" points="299,-565.5 299,-595.5 572,-595.5 572,-565.5 299,-565.5"/>
<text text-anchor="start" x="306" y="-576.9" font-family="Arial" font-size="14.00" fill="#000000">name </text>
<text text-anchor="start" x="344.899" y="-576.9" font-family="Arial" font-size="14.00" fill="#666666">[varchar(255)]</text>
<polygon fill="none" stroke="#000000" points="299,-535.5 299,-565.5 572,-565.5 572,-535.5 299,-535.5"/>
<text text-anchor="start" x="306" y="-546.9" font-family="Arial" font-size="14.00" fill="#000000">email </text>
<text text-anchor="start" x="343.3296" y="-546.9" font-family="Arial" font-size="14.00" fill="#666666">[varchar(255)]</text>
<polygon fill="none" stroke="#000000" points="299,-505.5 299,-535.5 572,-535.5 572,-505.5 299,-505.5"/>
<text text-anchor="start" x="306" y="-516.9" font-family="Arial" font-size="14.00" fill="#000000">department_id </text>
<text text-anchor="start" x="399.3604" y="-516.9" font-family="Arial" font-size="14.00" fill="#666666">[uuid]</text>
<polygon fill="none" stroke="#000000" points="299,-475.5 299,-505.5 572,-505.5 572,-475.5 299,-475.5"/>
<text text-anchor="start" x="306" y="-486.9" font-family="Arial" font-size="14.00" fill="#000000">employment_type_id </text>
<text text-anchor="start" x="439.0322" y="-486.9" font-family="Arial" font-size="14.00" fill="#666666">[uuid]</text>
<polygon fill="none" stroke="#000000" points="299,-445.5 299,-475.5 572,-475.5 572,-445.5 299,-445.5"/>
<text text-anchor="start" x="306" y="-456.9" font-family="Arial" font-size="14.00" fill="#000000">joined_at </text>
<text text-anchor="start" x="366.69" y="-456.9" font-family="Arial" font-size="14.00" fill="#666666">[timestamp without time zone]</text>
<polygon fill="none" stroke="#000000" points="299,-415.5 299,-445.5 572,-445.5 572,-415.5 299,-415.5"/>
<text text-anchor="start" x="306" y="-426.9" font-family="Arial" font-size="14.00" fill="#000000">position </text>
<text text-anchor="start" x="358.1248" y="-426.9" font-family="Arial" font-size="14.00" fill="#666666">[varchar(255)]</text>
<polygon fill="none" stroke="#000000" points="299,-385.5 299,-415.5 572,-415.5 572,-385.5 299,-385.5"/>
<text text-anchor="start" x="306" y="-396.9" font-family="Arial" font-size="14.00" fill="#000000">created_at </text>
<text text-anchor="start" x="376.028" y="-396.9" font-family="Arial" font-size="14.00" fill="#666666">[timestamp without time zone]</text>
<polygon fill="none" stroke="#000000" points="299,-355.5 299,-385.5 572,-385.5 572,-355.5 299,-355.5"/>
<text text-anchor="start" x="305.9636" y="-366.9" font-family="Arial" font-size="14.00" fill="#000000">updated_at </text>
<text text-anchor="start" x="379.8962" y="-366.9" font-family="Arial" font-size="14.00" fill="#666666">[timestamp without time zone]</text>
</g>
<!-- public.employees&#45;&gt;public.departments -->
<g id="edge1" class="edge">
<title>public.employees:department_id&#45;&gt;public.departments:id</title>
<path fill="none" stroke="#000000" d="M288.873,-518.3288C223.6105,-489.3721 226.9861,-180.5 299,-180.5"/>
<polygon fill="#000000" stroke="#000000" points="289.2222,-518.4036 298.0566,-524.9 294.1111,-519.4518 299,-520.5 299,-520.5 299,-520.5 294.1111,-519.4518 299.9434,-516.1 289.2222,-518.4036 289.2222,-518.4036"/>
<text text-anchor="start" x="7.2115" y="-530.5" font-family="Arial" font-size="10.00" fill="#000000">FOREIGN KEY (department_id) REFERENCES departments(id)</text>
</g>
</g>
</svg>
