<?xml version="1.0" encoding="UTF-8" standalone="no"?>
<!DOCTYPE svg PUBLIC "-//W3C//DTD SVG 1.1//EN"
 "http://www.w3.org/Graphics/SVG/1.1/DTD/svg11.dtd">
<!-- Generated by graphviz version 2.40.1 (20161225.0304)
 -->
<!-- Title: public.employees Pages: 1 -->
<svg width="936pt" height="712pt"
 viewBox="0.00 0.00 936.00 712.00" xmlns="http://www.w3.org/2000/svg" xmlns:xlink="http://www.w3.org/1999/xlink">
<g id="graph0" class="graph" transform="scale(1 1) rotate(0) translate(4 708)">
<title>public.employees</title>
<polygon fill="#ffffff" stroke="transparent" points="-4,4 -4,-708 932,-708 932,4 -4,4"/>
<!-- public.employees -->
<g id="node1" class="node">
<title>public.employees</title>
<polygon fill="#efefef" stroke="transparent" points="299,-622.5 299,-657.5 572,-657.5 572,-622.5 299,-622.5"/>
<polygon fill="none" stroke="#000000" points="299,-622.5 299,-657.5 572,-657.5 572,-622.5 299,-622.5"/>
<text text-anchor="start" x="317.3598" y="-635.3" font-family="Arial Bold" font-size="18.00" fill="#000000">public.employees</text>
<text text-anchor="start" x="456.3864" y="-635.3" font-family="Arial" font-size="14.00" fill="#000000"> </text>
<text text-anchor="start" x="460.277" y="-635.3" font-family="Arial" font-size="14.00" fill="#666666">[BASE TABLE]</text>
<polygon fill="none" stroke="#000000" points="299,-592.5 299,-622.5 572,-622.5 572,-592.5 299,-592.5"/>
<text text-anchor="start" x="306" y="-603.9" font-family="Arial" font-size="14.00" fill="#000000">id </text>
<text text-anchor="start" x="320.7798" y="-603.9" font-family="Arial" font-size="14.00" fill="#666666">[uuid]</text>
<polygon fill="none" stroke="#000000" points="299,-562.5 299,-592.5 572,-592.5 572,-562.5 299,-562.5"/>
<text text-anchor="start" x="306" y="-573.9" font-family="Arial" font-size="14.00" fill="#000000">name </text>
<text text-anchor="start" x="344.899" y="-573.9" font-family="Arial" font-size="14.00" fill="#666666">[varchar(255)]</text>
<polygon fill="none" stroke="#000000" points="299,-532.5 299,-562.5 572,-562.5 572,-532.5 299,-532.5"/>
<text text-anchor="start" x="306" y="-543.9" font-family="Arial" font-size="14.00" fill="#000000">email </text>
<text text-anchor="start" x="343.3296" y="-543.9" font-family="Arial" font-size="14.00" fill="#666666">[varchar(255)]</text>
<polygon fill="none" stroke="#000000" points="299,-502.5 299,-532.5 572,-532.5 572,-502.5 299,-502.5"/>
<text text-anchor="start" x="306" y="-513.9" font-family="Arial" font-size="14.00" fill="#000000">department_id </text>
<text text-anchor="start" x="399.3604" y="-513.9" font-family="Arial" font-size="14.00" fill="#666666">[uuid]</text>
<polygon fill="none" stroke="#000000" points="299,-472.5 299,-502.5 572,-502.5 572,-472.5 299,-472.5"/>
<text text-anchor="start" x="306" y="-483.9" font-family="Arial" font-size="14.00" fill="#000000">employment_type_id </text>
<text text-anchor="start" x="439.0322" y="-483.9" font-family="Arial" font-size="14.00" fill="#666666">[uuid]</text>
<polygon fill="none" stroke="#000000" points="299,-442.5 299,-472.5 572,-472.5 572,-442.5 299,-442.5"/>
<text text-anchor="start" x="306" y="-453.9" font-family="Arial" font-size="14.00" fill="#000000">joined_at </text>
<text text-anchor="start" x="366.69" y="-453.9" font-family="Arial" font-size="14.00" fill="#666666">[timestamp without time zone]</text>
<polygon fill="none" stroke="#000000" points="299,-412.5 299,-442.5 572,-442.5 572,-412.5 299,-412.5"/>
<text text-anchor="start" x="306" y="-423.9" font-family="Arial" font-size="14.00" fill="#000000">position </text>
<text text-anchor="start" x="358.1248" y="-423.9" font-family="Arial" font-size="14.00" fill="#666666">[varchar(255)]</text>
<polygon fill="none" stroke="#000000" points="299,-382.5 299,-412.5 572,-412.5 572,-382.5 299,-382.5"/>
<text text-anchor="start" x="306" y="-393.9" font-family="Arial" font-size="14.00" fill="#000000">created_at </text>
<text text-anchor="start" x="376.028" y="-393.9" font-family="Arial" font-size="14.00" fill="#666666">[timestamp without time zone]</text>
<polygon fill="none" stroke="#000000" points="299,-352.5 299,-382.5 572,-382.5 572,-352.5 299,-352.5"/>
<text text-anchor="start" x="305.9636" y="-363.9" font-family="Arial" font-size="14.00" fill="#000000">updated_at </text>
<text text-anchor="start" x="379.8962" y="-363.9" font-family="Arial" font-size="14.00" fill="#666666">[timestamp without time zone]</text>
<polygon fill="none" stroke="#000000" stroke-width="3" points="297,-351.5 297,-659.5 573,-659.5 573,-351.5 297,-351.5"/>
</g>
<!-- public.departments -->
<g id="node2" class="node">
<title>public.departments</title>
<polygon fill="#efefef" stroke="transparent" points="101,-192.5 101,-227.5 374,-227.5 374,-192.5 101,-192.5"/>
<polygon fill="none" stroke="#000000" points="101,-192.5 101,-227.5 374,-227.5 374,-192.5 101,-192.5"/>
<text text-anchor="start" x="112.8555" y="-205.3" font-family="Arial Bold" font-size="18.00" fill="#000000">public.departments</text>
<text text-anchor="start" x="264.8907" y="-205.3" font-family="Arial" font-size="14.00" fill="#000000"> </text>
<text text-anchor="start" x="268.7813" y="-205.3" font-family="Arial" font-size="14.00" fill="#666666">[BASE TABLE]</text>
<polygon fill="none" stroke="#000000" points="101,-162.5 101,-192.5 374,-192.5 374,-162.5 101,-162.5"/>
<text text-anchor="start" x="108" y="-173.9" font-family="Arial" font-size="14.00" fill="#000000">id </text>
<text text-anchor="start" x="122.7798" y="-173.9" font-family="Arial" font-size="14.00" fill="#666666">[uuid]</text>
<polygon fill="none" stroke="#000000" points="101,-132.5 101,-162.5 374,-162.5 374,-132.5 101,-132.5"/>
<text text-anchor="start" x="108" y="-143.9" font-family="Arial" font-size="14.00" fill="#000000">name </text>
<text text-anchor="start" x="146.899" y="-143.9" font-family="Arial" font-size="14.00" fill="#666666">[varchar(255)]</text>
<polygon fill="none" stroke="#000000" points="101,-102.5 101,-132.5 374,-132.5 374,-102.5 101,-102.5"/>
<text text-anchor="start" x="108" y="-113.9" font-family="Arial" font-size="14.00" fill="#000000">description </text>
<text text-anchor="start" x="179.568" y="-113.9" font-family="Arial" font-size="14.00" fill="#666666">[text]</text>
<polygon fill="none" stroke="#000000" points="101,-72.5 101,-102.5 374,-102.5 374,-72.5 101,-72.5"/>
<text text-anchor="start" x="108" y="-83.9" font-family="Arial" font-size="14.00" fill="#000000">created_at </text>
<text text-anchor="start" x="178.028" y="-83.9" font-family="Arial" font-size="14.00" fill="#666666">[timestamp without time zone]</text>
<polygon fill="none" stroke="#000000" points="101,-42.5 101,-72.5 374,-72.5 374,-42.5 101,-42.5"/>
<text text-anchor="start" x="107.9636" y="-53.9" font-family="Arial" font-size="14.00" fill="#000000">updated_at </text>
<text text-anchor="start" x="181.8962" y="-53.9" font-family="Arial" font-size="14.00" fill="#666666">[timestamp without time zone]</text>
</g>
<!-- public.employees&#45;&gt;public.departments -->
<g id="edge1" class="edge">
<title>public.employees:department_id&#45;&gt;public.departments:id</title>
<path fill="none" stroke="#000000" d="M288.6571,-516.9098C208.8702,-507.3205 251.1211,-383.0908 299,-307 318.6916,-275.7054 354.3084,-302.2946 374,-271 396.1314,-235.8281 415.5556,-177.5 374,-177.5"/>
<polygon fill="#000000" stroke="#000000" points="289.0162,-516.9302 298.7436,-521.9927 294.0081,-517.2151 299,-517.5 299,-517.5 299,-517.5 294.0081,-517.2151 299.2564,-513.0073 289.0162,-516.9302 289.0162,-516.9302"/>
<text text-anchor="start" x="7.2115" y="-527.5" font-family="Arial" font-size="10.00" fill="#000000">FOREIGN KEY (department_id) REFERENCES departments(id)</text>
</g>
<!-- public.employment_types -->
<g id="node3" class="node">
<title>public.employment_types</title>
<polygon fill="#efefef" stroke="transparent" points="478,-192.5 478,-227.5 792,-227.5 792,-192.5 478,-192.5"/>
<polygon fill="none" stroke="#000000" points="478,-192.5 478,-227.5 792,-227.5 792,-192.5 478,-192.5"/>
<text text-anchor="start" x="484.8522" y="-205.3" font-family="Arial Bold" font-size="18.00" fill="#000000">public.employment_types</text>
<text text-anchor="start" x="687.894" y="-205.3" font-family="Arial" font-size="14.00" fill="#000000"> </text>
<text text-anchor="start" x="691.7846" y="-205.3" font-family="Arial" font-size="14.00" fill="#666666">[BASE TABLE]</text>
<polygon fill="none" stroke="#000000" points="478,-162.5 478,-192.5 792,-192.5 792,-162.5 478,-162.5"/>
<text text-anchor="start" x="485" y="-173.9" font-family="Arial" font-size="14.00" fill="#000000">id </text>
<text text-anchor="start" x="499.7798" y="-173.9" font-family="Arial" font-size="14.00" fill="#666666">[uuid]</text>
<polygon fill="none" stroke="#000000" points="478,-132.5 478,-162.5 792,-162.5 792,-132.5 478,-132.5"/>
<text text-anchor="start" x="485" y="-143.9" font-family="Arial" font-size="14.00" fill="#000000">name </text>
<text text-anchor="start" x="523.899" y="-143.9" font-family="Arial" font-size="14.00" fill="#666666">[varchar(255)]</text>
<polygon fill="none" stroke="#000000" points="478,-102.5 478,-132.5 792,-132.5 792,-102.5 478,-102.5"/>
<text text-anchor="start" x="485" y="-113.9" font-family="Arial" font-size="14.00" fill="#000000">description </text>
<text text-anchor="start" x="556.568" y="-113.9" font-family="Arial" font-size="14.00" fill="#666666">[text]</text>
<polygon fill="none" stroke="#000000" points="478,-72.5 478,-102.5 792,-102.5 792,-72.5 478,-72.5"/>
<text text-anchor="start" x="485" y="-83.9" font-family="Arial" font-size="14.00" fill="#000000">created_at </text>
<text text-anchor="start" x="555.028" y="-83.9" font-family="Arial" font-size="14.00" fill="#666666">[timestamp without time zone]</text>
<polygon fill="none" stroke="#000000" points="478,-42.5 478,-72.5 792,-72.5 792,-42.5 478,-42.5"/>
<text text-anchor="start" x="485" y="-53.9" font-family="Arial" font-size="14.00" fill="#000000">updated_at </text>
<text text-anchor="start" x="558.9326" y="-53.9" font-family="Arial" font-size="14.00" fill="#666666">[timestamp without time zone]</text>
</g>
<!-- public.employees&#45;&gt;public.employment_types -->
<g id="edge2" class="edge">
<title>public.employees:employment_type_id&#45;&gt;public.employment_types:id</title>
<path fill="none" stroke="#000000" d="M582.1246,-486.8222C649.0778,-477.319 615.4216,-370.1266 572,-307 546.6466,-270.141 503.3534,-307.859 478,-271 454.4495,-236.7621 436.4444,-177.5 478,-177.5"/>
<polygon fill="#000000" stroke="#000000" points="581.9777,-486.8319 571.6994,-483.0101 576.9888,-487.1659 572,-487.5 572,-487.5 572,-487.5 576.9888,-487.1659 572.3006,-491.9899 581.9777,-486.8319 581.9777,-486.8319"/>
<text text-anchor="start" x="578.8745" y="-497.5" font-family="Arial" font-size="10.00" fill="#000000">FOREIGN KEY (employment_type_id) REFERENCES employment_types(id)</text>
</g>
</g>
</svg>
