<?xml version="1.0" encoding="UTF-8" standalone="no"?>
<!DOCTYPE svg PUBLIC "-//W3C//DTD SVG 1.1//EN"
 "http://www.w3.org/Graphics/SVG/1.1/DTD/svg11.dtd">
<!-- Generated by graphviz version 2.40.1 (20161225.0304)
 -->
<!-- Title: public.employment_types Pages: 1 -->
<svg width="703pt" height="712pt"
 viewBox="0.00 0.00 703.00 712.00" xmlns="http://www.w3.org/2000/svg" xmlns:xlink="http://www.w3.org/1999/xlink">
<g id="graph0" class="graph" transform="scale(1 1) rotate(0) translate(4 708)">
<title>public.employment_types</title>
<polygon fill="#ffffff" stroke="transparent" points="-4,4 -4,-708 699,-708 699,4 -4,4"/>
<!-- public.employment_types -->
<g id="node1" class="node">
<title>public.employment_types</title>
<polygon fill="#efefef" stroke="transparent" points="46,-195.5 46,-230.5 360,-230.5 360,-195.5 46,-195.5"/>
<polygon fill="none" stroke="#000000" points="46,-195.5 46,-230.5 360,-230.5 360,-195.5 46,-195.5"/>
<text text-anchor="start" x="52.8522" y="-208.3" font-family="Arial Bold" font-size="18.00" fill="#000000">public.employment_types</text>
<text text-anchor="start" x="255.894" y="-208.3" font-family="Arial" font-size="14.00" fill="#000000"> </text>
<text text-anchor="start" x="259.7846" y="-208.3" font-family="Arial" font-size="14.00" fill="#666666">[BASE TABLE]</text>
<polygon fill="none" stroke="#000000" points="46,-165.5 46,-195.5 360,-195.5 360,-165.5 46,-165.5"/>
<text text-anchor="start" x="53" y="-176.9" font-family="Arial" font-size="14.00" fill="#000000">id </text>
<text text-anchor="start" x="67.7798" y="-176.9" font-family="Arial" font-size="14.00" fill="#666666">[uuid]</text>
<polygon fill="none" stroke="#000000" points="46,-135.5 46,-165.5 360,-165.5 360,-135.5 46,-135.5"/>
<text text-anchor="start" x="53" y="-146.9" font-family="Arial" font-size="14.00" fill="#000000">name </text>
<text text-anchor="start" x="91.899" y="-146.9" font-family="Arial" font-size="14.00" fill="#666666">[varchar(255)]</text>
<polygon fill="none" stroke="#000000" points="46,-105.5 46,-135.5 360,-135.5 360,-105.5 46,-105.5"/>
<text text-anchor="start" x="53" y="-116.9" font-family="Arial" font-size="14.00" fill="#000000">description </text>
<text text-anchor="start" x="124.568" y="-116.9" font-family="Arial" font-size="14.00" fill="#666666">[text]</text>
<polygon fill="none" stroke="#000000" points="46,-75.5 46,-105.5 360,-105.5 360,-75.5 46,-75.5"/>
<text text-anchor="start" x="53" y="-86.9" font-family="Arial" font-size="14.00" fill="#000000">created_at </text>
<text text-anchor="start" x="123.028" y="-86.9" font-family="Arial" font-size="14.00" fill="#666666">[timestamp without time zone]</text>
<polygon fill="none" stroke="#000000" points="46,-45.5 46,-75.5 360,-75.5 360,-45.5 46,-45.5"/>
<text text-anchor="start" x="53" y="-56.9" font-family="Arial" font-size="14.00" fill="#000000">updated_at </text>
<text text-anchor="start" x="126.9326" y="-56.9" font-family="Arial" font-size="14.00" fill="#666666">[timestamp without time zone]</text>
<polygon fill="none" stroke="#000000" stroke-width="3" points="44.5,-44.5 44.5,-232.5 361.5,-232.5 361.5,-44.5 44.5,-44.5"/>
</g>
<!-- public.employees -->
<g id="node2" class="node">
<title>public.employees</title>
<polygon fill="#efefef" stroke="transparent" points="66,-625.5 66,-660.5 339,-660.5 339,-625.5 66,-625.5"/>
<polygon fill="none" stroke="#000000" points="66,-625.5 66,-660.5 339,-660.5 339,-625.5 66,-625.5"/>
<text text-anchor="start" x="84.3598" y="-638.3" font-family="Arial Bold" font-size="18.00" fill="#000000">public.employees</text>
<text text-anchor="start" x="223.3864" y="-638.3" font-family="Arial" font-size="14.00" fill="#000000"> </text>
<text text-anchor="start" x="227.277" y="-638.3" font-family="Arial" font-size="14.00" fill="#666666">[BASE TABLE]</text>
<polygon fill="none" stroke="#000000" points="66,-595.5 66,-625.5 339,-625.5 339,-595.5 66,-595.5"/>
<text text-anchor="start" x="73" y="-606.9" font-family="Arial" font-size="14.00" fill="#000000">id </text>
<text text-anchor="start" x="87.7798" y="-606.9" font-family="Arial" font-size="14.00" fill="#666666">[uuid]</text>
<polygon fill="none" stroke="#000000" points="66,-565.5 66,-595.5 339,-595.5 339,-565.5 66,-565.5"/>
<text text-anchor="start" x="73" y="-576.9" font-family="Arial" font-size="14.00" fill="#000000">name </text>
<text text-anchor="start" x="111.899" y="-576.9" font-family="Arial" font-size="14.00" fill="#666666">[varchar(255)]</text>
<polygon fill="none" stroke="#000000" points="66,-535.5 66,-565.5 339,-565.5 339,-535.5 66,-535.5"/>
<text text-anchor="start" x="73" y="-546.9" font-family="Arial" font-size="14.00" fill="#000000">email </text>
<text text-anchor="start" x="110.3296" y="-546.9" font-family="Arial" font-size="14.00" fill="#666666">[varchar(255)]</text>
<polygon fill="none" stroke="#000000" points="66,-505.5 66,-535.5 339,-535.5 339,-505.5 66,-505.5"/>
<text text-anchor="start" x="73" y="-516.9" font-family="Arial" font-size="14.00" fill="#000000">department_id </text>
<text text-anchor="start" x="166.3604" y="-516.9" font-family="Arial" font-size="14.00" fill="#666666">[uuid]</text>
<polygon fill="none" stroke="#000000" points="66,-475.5 66,-505.5 339,-505.5 339,-475.5 66,-475.5"/>
<text text-anchor="start" x="73" y="-486.9" font-family="Arial" font-size="14.00" fill="#000000">employment_type_id </text>
<text text-anchor="start" x="206.0322" y="-486.9" font-family="Arial" font-size="14.00" fill="#666666">[uuid]</text>
<polygon fill="none" stroke="#000000" points="66,-445.5 66,-475.5 339,-475.5 339,-445.5 66,-445.5"/>
<text text-anchor="start" x="73" y="-456.9" font-family="Arial" font-size="14.00" fill="#000000">joined_at </text>
<text text-anchor="start" x="133.69" y="-456.9" font-family="Arial" font-size="14.00" fill="#666666">[timestamp without time zone]</text>
<polygon fill="none" stroke="#000000" points="66,-415.5 66,-445.5 339,-445.5 339,-415.5 66,-415.5"/>
<text text-anchor="start" x="73" y="-426.9" font-family="Arial" font-size="14.00" fill="#000000">position </text>
<text text-anchor="start" x="125.1248" y="-426.9" font-family="Arial" font-size="14.00" fill="#666666">[varchar(255)]</text>
<polygon fill="none" stroke="#000000" points="66,-385.5 66,-415.5 339,-415.5 339,-385.5 66,-385.5"/>
<text text-anchor="start" x="73" y="-396.9" font-family="Arial" font-size="14.00" fill="#000000">created_at </text>
<text text-anchor="start" x="143.028" y="-396.9" font-family="Arial" font-size="14.00" fill="#666666">[timestamp without time zone]</text>
<polygon fill="none" stroke="#000000" points="66,-355.5 66,-385.5 339,-385.5 339,-355.5 66,-355.5"/>
<text text-anchor="start" x="72.9636" y="-366.9" font-family="Arial" font-size="14.00" fill="#000000">updated_at </text>
<text text-anchor="start" x="146.8962" y="-366.9" font-family="Arial" font-size="14.00" fill="#666666">[timestamp without time zone]</text>
</g>
<!-- public.employees&#45;&gt;public.employment_types -->
<g id="edge1" class="edge">
<title>public.employees:employment_type_id&#45;&gt;public.employment_types:id</title>
<path fill="none" stroke="#000000" d="M349,-489.7992C415.4457,-479.981 388.9229,-369.4321 339,-313 252.0673,-214.7324 132.9327,-375.2676 46,-277 17.5823,-244.877 3.1111,-180.5 46,-180.5"/>
<polygon fill="#000000" stroke="#000000" points="348.9755,-489.8009 338.6854,-486.011 343.9878,-490.1504 339,-490.5 339,-490.5 339,-490.5 343.9878,-490.1504 339.3146,-494.989 348.9755,-489.8009 348.9755,-489.8009"/>
<text text-anchor="start" x="345.8745" y="-500.5" font-family="Arial" font-size="10.00" fill="#000000">FOREIGN KEY (employment_type_id) REFERENCES employment_types(id)</text>
</g>
</g>
</svg>
