<?xml version="1.0" encoding="UTF-8" standalone="no"?>
<!DOCTYPE svg PUBLIC "-//W3C//DTD SVG 1.1//EN"
 "http://www.w3.org/Graphics/SVG/1.1/DTD/svg11.dtd">
<!-- Generated by graphviz version 2.40.1 (20161225.0304)
 -->
<!-- Title: employee Pages: 1 -->
<svg width="936pt" height="706pt"
 viewBox="0.00 0.00 936.00 706.00" xmlns="http://www.w3.org/2000/svg" xmlns:xlink="http://www.w3.org/1999/xlink">
<g id="graph0" class="graph" transform="scale(1 1) rotate(0) translate(4 702)">
<title>employee</title>
<polygon fill="#ffffff" stroke="transparent" points="-4,4 -4,-702 932,-702 932,4 -4,4"/>
<!-- public.departments -->
<g id="node1" class="node">
<title>public.departments</title>
<polygon fill="#efefef" stroke="transparent" points="101,-192.5 101,-227.5 374,-227.5 374,-192.5 101,-192.5"/>
<polygon fill="none" stroke="#000000" points="101,-192.5 101,-227.5 374,-227.5 374,-192.5 101,-192.5"/>
<text text-anchor="start" x="112.8555" y="-205.3" font-family="Arial Bold" font-size="18.00" fill="#000000">public.departments</text>
<text text-anchor="start" x="264.8907" y="-205.3" font-family="Arial" font-size="14.00" fill="#000000"> </text>
<text text-anchor="start" x="268.7813" y="-205.3" font-family="Arial" font-size="14.00" fill="#666666">[BASE TABLE]</text>
<polygon fill="none" stroke="#000000" points="101,-162.5 101,-192.5 374,-192.5 374,-162.5 101,-162.5"/>
<text text-anchor="start" x="108" y="-173.9" font-family="Arial" font-size="14.00" fill="#000000">id </text>
<text text-anchor="start" x="122.7798" y="-173.9" font-family="Arial" font-size="14.00" fill="#666666">[uuid]</text>
<polygon fill="none" stroke="#000000" points="101,-132.5 101,-162.5 374,-162.5 374,-132.5 101,-132.5"/>
<text text-anchor="start" x="108" y="-143.9" font-family="Arial" font-size="14.00" fill="#000000">name </text>
<text text-anchor="start" x="146.899" y="-143.9" font-family="Arial" font-size="14.00" fill="#666666">[varchar(255)]</text>
<polygon fill="none" stroke="#000000" points="101,-102.5 101,-132.5 374,-132.5 374,-102.5 101,-102.5"/>
<text text-anchor="start" x="108" y="-113.9" font-family="Arial" font-size="14.00" fill="#000000">description </text>
<text text-anchor="start" x="179.568" y="-113.9" font-family="Arial" font-size="14.00" fill="#666666">[text]</text>
<polygon fill="none" stroke="#000000" points="101,-72.5 101,-102.5 374,-102.5 374,-72.5 101,-72.5"/>
<text text-anchor="start" x="108" y="-83.9" font-family="Arial" font-size="14.00" fill="#000000">created_at </text>
<text text-anchor="start" x="178.028" y="-83.9" font-family="Arial" font-size="14.00" fill="#666666">[timestamp without time zone]</text>
<polygon fill="none" stroke="#000000" points="101,-42.5 101,-72.5 374,-72.5 374,-42.5 101,-42.5"/>
<text text-anchor="start" x="107.9636" y="-53.9" font-family="Arial" font-size="14.00" fill="#000000">updated_at </text>
<text text-anchor="start" x="181.8962" y="-53.9" font-family="Arial" font-size="14.00" fill="#666666">[timestamp without time zone]</text>
</g>
<!-- public.employment_types -->
<g id="node2" class="node">
<title>public.employment_types</title>
<polygon fill="#efefef" stroke="transparent" points="478,-192.5 478,-227.5 792,-227.5 792,-192.5 478,-192.5"/>
<polygon fill="none" stroke="#000000" points="478,-192.5 478,-227.5 792,-227.5 792,-192.5 478,-192.5"/>
<text text-anchor="start" x="484.8522" y="-205.3" font-family="Arial Bold" font-size="18.00" fill="#000000">public.employment_types</text>
<text text-anchor="start" x="687.894" y="-205.3" font-family="Arial" font-size="14.00" fill="#000000"> </text>
<text text-anchor="start" x="691.7846" y="-205.3" font-family="Arial" font-size="14.00" fill="#666666">[BASE TABLE]</text>
<polygon fill="none" stroke="#000000" points="478,-162.5 478,-192.5 792,-192.5 792,-162.5 478,-162.5"/>
<text text-anchor="start" x="485" y="-173.9" font-family="Arial" font-size="14.00" fill="#000000">id </text>
<text text-anchor="start" x="499.7798" y="-173.9" font-family="Arial" font-size="14.00" fill="#666666">[uuid]</text>
<polygon fill="none" stroke="#000000" points="478,-132.5 478,-162.5 792,-162.5 792,-132.5 478,-132.5"/>
<text text-anchor="start" x="485" y="-143.9" font-family="Arial" font-size="14.00" fill="#000000">name </text>
<text text-anchor="start" x="523.899" y="-143.9" font-family="Arial" font-size="14.00" fill="#666666">[varchar(255)]</text>
<polygon fill="none" stroke="#000000" points="478,-102.5 478,-132.5 792,-132.5 792,-102.5 478,-102.5"/>
<text text-anchor="start" x="485" y="-113.9" font-family="Arial" font-size="14.00" fill="#000000">description </text>
<text text-anchor="start" x="556.568" y="-113.9" font-family="Arial" font-size="14.00" fill="#666666">[text]</text>
<polygon fill="none" stroke="#000000" points="478,-72.5 478,-102.5 792,-102.5 792,-72.5 478,-72.5"/>
<text text-anchor="start" x="485" y="-83.9" font-family="Arial" font-size="14.00" fill="#000000">created_at </text>
<text text-anchor="start" x="555.028" y="-83.9" font-family="Arial" font-size="14.00" fill="#666666">[timestamp without time zone]</text>
<polygon fill="none" stroke="#000000" points="478,-42.5 478,-72.5 792,-72.5 792,-42.5 478,-42.5"/>
<text text-anchor="start" x="485" y="-53.9" font-family="Arial" font-size="14.00" fill="#000000">updated_at </text>
<text text-anchor="start" x="558.9326" y="-53.9" font-family="Arial" font-size="14.00" fill="#666666">[timestamp without time zone]</text>
</g>
<!-- public.employees -->
<g id="node3" class="node">
<title>public.employees</title>
<polygon fill="#efefef" stroke="transparent" points="299,-619.5 299,-654.5 572,-654.5 572,-619.5 299,-619.5"/>
<polygon fill="none" stroke="#000000" points="299,-619.5 299,-654.5 572,-654.5 572,-619.5 299,-619.5"/>
<text text-anchor="start" x="317.3598" y="-632.3" font-family="Arial Bold" font-size="18.00" fill="#000000">public.employees</text>
<text text-anchor="start" x="456.3864" y="-632.3" font-family="Arial" font-size="14.00" fill="#000000"> </text>
<text text-anchor="start" x="460.277" y="-632.3" font-family="Arial" font-size="14.00" fill="#666666">[BASE TABLE]</text>
<polygon fill="none" stroke="#000000" points="299,-589.5 299,-619.5 572,-619.5 572,-589.5 299,-589.5"/>
<text text-anchor="start" x="306" y="-600.9" font-family="Arial" font-size="14.00" fill="#000000">id </text>
<text text-anchor="start" x="320.7798" y="-600.9" font-family="Arial" font-size="14.00" fill="#666666">[uuid]</text>
<polygon fill="none" stroke="#000000" points="299,-559.5 299,-589.5 572,-589.5 572,-559.5 299,-559.5"/>
<text text-anchor="start" x="306" y="-570.9" font-family="Arial" font-size="14.00" fill="#000000">name </text>
<text text-anchor="start" x="344.899" y="-570.9" font-family="Arial" font-size="14.00" fill="#666666">[varchar(255)]</text>
<polygon fill="none" stroke="#000000" points="299,-529.5 299,-559.5 572,-559.5 572,-529.5 299,-529.5"/>
<text text-anchor="start" x="306" y="-540.9" font-family="Arial" font-size="14.00" fill="#000000">email </text>
<text text-anchor="start" x="343.3296" y="-540.9" font-family="Arial" font-size="14.00" fill="#666666">[varchar(255)]</text>
<polygon fill="none" stroke="#000000" points="299,-499.5 299,-529.5 572,-529.5 572,-499.5 299,-499.5"/>
<text text-anchor="start" x="306" y="-510.9" font-family="Arial" font-size="14.00" fill="#000000">department_id </text>
<text text-anchor="start" x="399.3604" y="-510.9" font-family="Arial" font-size="14.00" fill="#666666">[uuid]</text>
<polygon fill="none" stroke="#000000" points="299,-469.5 299,-499.5 572,-499.5 572,-469.5 299,-469.5"/>
<text text-anchor="start" x="306" y="-480.9" font-family="Arial" font-size="14.00" fill="#000000">employment_type_id </text>
<text text-anchor="start" x="439.0322" y="-480.9" font-family="Arial" font-size="14.00" fill="#666666">[uuid]</text>
<polygon fill="none" stroke="#000000" points="299,-439.5 299,-469.5 572,-469.5 572,-439.5 299,-439.5"/>
<text text-anchor="start" x="306" y="-450.9" font-family="Arial" font-size="14.00" fill="#000000">joined_at </text>
<text text-anchor="start" x="366.69" y="-450.9" font-family="Arial" font-size="14.00" fill="#666666">[timestamp without time zone]</text>
<polygon fill="none" stroke="#000000" points="299,-409.5 299,-439.5 572,-439.5 572,-409.5 299,-409.5"/>
<text text-anchor="start" x="306" y="-420.9" font-family="Arial" font-size="14.00" fill="#000000">position </text>
<text text-anchor="start" x="358.1248" y="-420.9" font-family="Arial" font-size="14.00" fill="#666666">[varchar(255)]</text>
<polygon fill="none" stroke="#000000" points="299,-379.5 299,-409.5 572,-409.5 572,-379.5 299,-379.5"/>
<text text-anchor="start" x="306" y="-390.9" font-family="Arial" font-size="14.00" fill="#000000">created_at </text>
<text text-anchor="start" x="376.028" y="-390.9" font-family="Arial" font-size="14.00" fill="#666666">[timestamp without time zone]</text>
<polygon fill="none" stroke="#000000" points="299,-349.5 299,-379.5 572,-379.5 572,-349.5 299,-349.5"/>
<text text-anchor="start" x="305.9636" y="-360.9" font-family="Arial" font-size="14.00" fill="#000000">updated_at </text>
<text text-anchor="start" x="379.8962" y="-360.9" font-family="Arial" font-size="14.00" fill="#666666">[timestamp without time zone]</text>
</g>
<!-- public.employees&#45;&gt;public.departments -->
<g id="edge1" class="edge">
<title>public.employees:department_id&#45;&gt;public.departments:id</title>
<path fill="none" stroke="#000000" d="M288.8045,-513.9182C210.1547,-504.4656 251.8035,-382.0064 299,-307 318.6916,-275.7054 354.3084,-302.2946 374,-271 396.1314,-235.8281 415.5556,-177.5 374,-177.5"/>
<polygon fill="#000000" stroke="#000000" points="289.0162,-513.9302 298.7436,-518.9927 294.0081,-514.2151 299,-514.5 299,-514.5 299,-514.5 294.0081,-514.2151 299.2564,-510.0073 289.0162,-513.9302 289.0162,-513.9302"/>
<text text-anchor="start" x="7.2115" y="-524.5" font-family="Arial" font-size="10.00" fill="#000000">FOREIGN KEY (department_id) REFERENCES departments(id)</text>
</g>
<!-- public.employees&#45;&gt;public.employment_types -->
<g id="edge2" class="edge">
<title>public.employees:employment_type_id&#45;&gt;public.employment_types:id</title>
<path fill="none" stroke="#000000" d="M582.359,-483.7749C647.6613,-474.0572 614.6125,-368.9504 572,-307 546.6466,-270.141 503.3534,-307.859 478,-271 454.4495,-236.7621 436.4444,-177.5 478,-177.5"/>
<polygon fill="#000000" stroke="#000000" points="581.9756,-483.8016 571.6857,-480.011 576.9878,-484.1508 572,-484.5 572,-484.5 572,-484.5 576.9878,-484.1508 572.3143,-488.989 581.9756,-483.8016 581.9756,-483.8016"/>
<text text-anchor="start" x="578.8745" y="-494.5" font-family="Arial" font-size="10.00" fill="#000000">FOREIGN KEY (employment_type_id) REFERENCES employment_types(id)</text>
</g>
</g>
</svg>
